Garage_Gothic-Regular.ufo
<glyph name="exclam" format="1">
  <advance width="144"/>
  <unicode hex="0021"/>
  <outline>
    <contour>
      <point x="104" y="187" type="curve" smooth="yes"/>
      <point x="104" y="172"/>
      <point x="99" y="169"/>
      <point x="70" y="169" type="curve" smooth="yes"/>
      <point x="44" y="169"/>
      <point x="40" y="171"/>
      <point x="40" y="186" type="curve" smooth="yes"/>
      <point x="40" y="361"/>
      <point x="40" y="507"/>
      <point x="40" y="683" type="curve" smooth="yes"/>
      <point x="40" y="697"/>
      <point x="44" y="700"/>
      <point x="70" y="700" type="curve" smooth="yes"/>
      <point x="100" y="700"/>
      <point x="104" y="699"/>
      <point x="104" y="681" type="curve" smooth="yes"/>
      <point x="104" y="508"/>
      <point x="104" y="361"/>
    </contour>
    <contour>
      <point x="112" y="41" type="curve" smooth="yes"/>
      <point x="111" y="18"/>
      <point x="95" y="2"/>
      <point x="72" y="0" type="curve" smooth="yes"/>
      <point x="38" y="-2"/>
      <point x="32" y="17"/>
      <point x="30" y="39" type="curve" smooth="yes"/>
      <point x="27" y="65"/>
      <point x="47" y="92"/>
      <point x="72" y="89" type="curve" smooth="yes"/>
      <point x="117" y="84"/>
      <point x="114" y="66"/>
    </contour>
  </outline>
</glyph>
<glyph name="quotedbl" format="1">
  <advance width="222"/>
  <unicode hex="0022"/>
  <outline>
    <contour>
      <point x="192" y="683" type="curve" smooth="yes"/>
      <point x="192" y="614"/>
      <point x="191" y="615"/>
      <point x="191" y="559" type="curve" smooth="yes"/>
      <point x="191" y="554"/>
      <point x="187" y="533"/>
      <point x="172" y="536" type="curve" smooth="yes"/>
      <point x="162" y="538"/>
      <point x="156" y="537"/>
      <point x="144" y="536" type="curve" smooth="yes"/>
      <point x="132" y="535"/>
      <point x="129" y="545"/>
      <point x="129" y="567" type="curve" smooth="yes"/>
      <point x="129" y="601"/>
      <point x="130" y="620"/>
      <point x="129" y="653" type="curve" smooth="yes"/>
      <point x="128" y="680"/>
      <point x="134" y="699"/>
      <point x="145" y="699" type="curve" smooth="yes"/>
      <point x="156" y="699"/>
      <point x="165" y="699"/>
      <point x="176" y="702" type="curve" smooth="yes"/>
      <point x="184" y="704"/>
      <point x="192" y="703"/>
    </contour>
    <contour>
      <point x="94" y="683" type="curve" smooth="yes"/>
      <point x="94" y="614"/>
      <point x="93" y="615"/>
      <point x="93" y="559" type="curve" smooth="yes"/>
      <point x="93" y="554"/>
      <point x="89" y="533"/>
      <point x="74" y="536" type="curve" smooth="yes"/>
      <point x="64" y="538"/>
      <point x="58" y="537"/>
      <point x="46" y="536" type="curve" smooth="yes"/>
      <point x="34" y="535"/>
      <point x="31" y="545"/>
      <point x="31" y="567" type="curve" smooth="yes"/>
      <point x="31" y="601"/>
      <point x="32" y="620"/>
      <point x="31" y="653" type="curve" smooth="yes"/>
      <point x="30" y="680"/>
      <point x="36" y="697"/>
      <point x="47" y="699" type="curve" smooth="yes"/>
      <point x="58" y="701"/>
      <point x="66" y="702"/>
      <point x="78" y="702" type="curve" smooth="yes"/>
      <point x="86" y="702"/>
      <point x="94" y="703"/>
    </contour>
  </outline>
</glyph>
<glyph name="numbersign" format="1">
  <advance width="462"/>
  <unicode hex="0023"/>
  <outline>
    <contour>
      <point x="424" y="551" type="curve"/>
      <point x="394" y="546"/>
      <point x="359" y="552"/>
      <point x="353" y="548" type="curve" smooth="yes"/>
      <point x="347" y="544"/>
      <point x="325" y="416"/>
      <point x="328" y="410" type="curve" smooth="yes"/>
      <point x="331" y="404"/>
      <point x="367" y="409"/>
      <point x="402" y="409" type="curve" smooth="yes"/>
      <point x="411" y="409"/>
      <point x="409" y="355"/>
      <point x="404" y="355" type="curve" smooth="yes"/>
      <point x="373" y="353"/>
      <point x="324" y="355"/>
      <point x="319" y="350" type="curve" smooth="yes"/>
      <point x="316" y="347"/>
      <point x="304" y="259"/>
      <point x="290" y="227" type="curve" smooth="yes"/>
      <point x="285" y="217"/>
      <point x="237" y="218"/>
      <point x="235" y="230" type="curve"/>
      <point x="234" y="246"/>
      <point x="256" y="340"/>
      <point x="255" y="346" type="curve" smooth="yes"/>
      <point x="254" y="350"/>
      <point x="166" y="351"/>
      <point x="161" y="346" type="curve" smooth="yes"/>
      <point x="158" y="343"/>
      <point x="151" y="269"/>
      <point x="138" y="237" type="curve" smooth="yes"/>
      <point x="134" y="227"/>
      <point x="81" y="224"/>
      <point x="80" y="237" type="curve" smooth="yes"/>
      <point x="79" y="266"/>
      <point x="99" y="341"/>
      <point x="96" y="346" type="curve" smooth="yes"/>
      <point x="92" y="353"/>
      <point x="71" y="349"/>
      <point x="38" y="354" type="curve" smooth="yes"/>
      <point x="31" y="355"/>
      <point x="33" y="408"/>
      <point x="39" y="409" type="curve" smooth="yes"/>
      <point x="69" y="412"/>
      <point x="102" y="410"/>
      <point x="108" y="413" type="curve" smooth="yes"/>
      <point x="114" y="416"/>
      <point x="138" y="542"/>
      <point x="135" y="546" type="curve" smooth="yes"/>
      <point x="130" y="552"/>
      <point x="89" y="546"/>
      <point x="57" y="553" type="curve" smooth="yes"/>
      <point x="45" y="556"/>
      <point x="47" y="602"/>
      <point x="59" y="606" type="curve" smooth="yes"/>
      <point x="88" y="615"/>
      <point x="132" y="604"/>
      <point x="141" y="610" type="curve" smooth="yes"/>
      <point x="146" y="614"/>
      <point x="157" y="668"/>
      <point x="162" y="703" type="curve"/>
      <point x="165" y="713"/>
      <point x="221" y="713"/>
      <point x="220" y="700" type="curve" smooth="yes"/>
      <point x="219" y="673"/>
      <point x="205" y="613"/>
      <point x="210" y="610" type="curve" smooth="yes"/>
      <point x="216" y="607"/>
      <point x="296" y="607"/>
      <point x="300" y="610" type="curve" smooth="yes"/>
      <point x="304" y="613"/>
      <point x="313" y="668"/>
      <point x="318" y="703" type="curve" smooth="yes"/>
      <point x="319" y="713"/>
      <point x="375" y="713"/>
      <point x="374" y="700" type="curve" smooth="yes"/>
      <point x="371" y="670"/>
      <point x="360" y="611"/>
      <point x="363" y="609" type="curve" smooth="yes"/>
      <point x="368" y="605"/>
      <point x="396" y="605"/>
      <point x="421" y="606" type="curve" smooth="yes"/>
      <point x="431" y="606"/>
      <point x="433" y="554"/>
    </contour>
    <contour>
      <point x="289" y="546" type="curve" smooth="yes"/>
      <point x="287" y="550"/>
      <point x="205" y="551"/>
      <point x="200" y="546" type="curve" smooth="yes"/>
      <point x="197" y="543"/>
      <point x="172" y="413"/>
      <point x="175" y="410" type="curve" smooth="yes"/>
      <point x="178" y="407"/>
      <point x="257" y="406"/>
      <point x="261" y="410" type="curve" smooth="yes"/>
      <point x="265" y="414"/>
      <point x="291" y="541"/>
    </contour>
  </outline>
</glyph>
<glyph name="dollar" format="1">
  <advance width="282"/>
  <unicode hex="0024"/>
  <outline>
    <contour>
      <point x="257" y="116" type="curve" smooth="yes"/>
      <point x="257" y="61"/>
      <point x="224" y="21"/>
      <point x="177" y="5" type="curve" smooth="yes"/>
      <point x="173" y="4"/>
      <point x="172" y="-4"/>
      <point x="172" y="-8" type="curve" smooth="yes"/>
      <point x="172" y="-30"/>
      <point x="172" y="-37"/>
      <point x="172" y="-54" type="curve" smooth="yes"/>
      <point x="172" y="-65"/>
      <point x="163" y="-67"/>
      <point x="138" y="-67" type="curve" smooth="yes"/>
      <point x="115" y="-67"/>
      <point x="108" y="-64"/>
      <point x="108" y="-54" type="curve" smooth="yes"/>
      <point x="108" y="-40"/>
      <point x="108" y="-31"/>
      <point x="108" y="-10" type="curve" smooth="yes"/>
      <point x="108" y="-6"/>
      <point x="109" y="3"/>
      <point x="104" y="4" type="curve" smooth="yes"/>
      <point x="57" y="14"/>
      <point x="25" y="53"/>
      <point x="25" y="116" type="curve" smooth="yes"/>
      <point x="25" y="120"/>
      <point x="25" y="162"/>
      <point x="25" y="166" type="curve" smooth="yes"/>
      <point x="25" y="183"/>
      <point x="32" y="185"/>
      <point x="59" y="185" type="curve" smooth="yes"/>
      <point x="86" y="185"/>
      <point x="92" y="185"/>
      <point x="92" y="168" type="curve" smooth="yes"/>
      <point x="92" y="162"/>
      <point x="92" y="125"/>
      <point x="92" y="119" type="curve" smooth="yes"/>
      <point x="92" y="94"/>
      <point x="105" y="67"/>
      <point x="141" y="67" type="curve" smooth="yes"/>
      <point x="184" y="67"/>
      <point x="192" y="99"/>
      <point x="192" y="122" type="curve" smooth="yes"/>
      <point x="192" y="146"/>
      <point x="192" y="166"/>
      <point x="192" y="183" type="curve" smooth="yes"/>
      <point x="192" y="236"/>
      <point x="153" y="292"/>
      <point x="113" y="348" type="curve" smooth="yes"/>
      <point x="71" y="407"/>
      <point x="28" y="467"/>
      <point x="28" y="526" type="curve" smooth="yes"/>
      <point x="28" y="542"/>
      <point x="28" y="560"/>
      <point x="28" y="581" type="curve" smooth="yes"/>
      <point x="28" y="624"/>
      <point x="48" y="677"/>
      <point x="101" y="694" type="curve" smooth="yes"/>
      <point x="108" y="696"/>
      <point x="108" y="704"/>
      <point x="108" y="709" type="curve" smooth="yes"/>
      <point x="108" y="729"/>
      <point x="108" y="746"/>
      <point x="108" y="760" type="curve" smooth="yes"/>
      <point x="108" y="771"/>
      <point x="115" y="771"/>
      <point x="138" y="771" type="curve" smooth="yes"/>
      <point x="162" y="771"/>
      <point x="170" y="770"/>
      <point x="170" y="763" type="curve" smooth="yes"/>
      <point x="170" y="747"/>
      <point x="170" y="723"/>
      <point x="170" y="708" type="curve" smooth="yes"/>
      <point x="170" y="703"/>
      <point x="169" y="697"/>
      <point x="176" y="694" type="curve" smooth="yes"/>
      <point x="231" y="673"/>
      <point x="252" y="624"/>
      <point x="252" y="582" type="curve" smooth="yes"/>
      <point x="252" y="576"/>
      <point x="252" y="545"/>
      <point x="252" y="539" type="curve" smooth="yes"/>
      <point x="252" y="530"/>
      <point x="237" y="528"/>
      <point x="218" y="528" type="curve" smooth="yes"/>
      <point x="199" y="528"/>
      <point x="185" y="530"/>
      <point x="185" y="540" type="curve" smooth="yes"/>
      <point x="185" y="546"/>
      <point x="185" y="579"/>
      <point x="185" y="584" type="curve" smooth="yes"/>
      <point x="185" y="617"/>
      <point x="162" y="638"/>
      <point x="140" y="638" type="curve" smooth="yes"/>
      <point x="112" y="638"/>
      <point x="93" y="610"/>
      <point x="93" y="585" type="curve" smooth="yes"/>
      <point x="93" y="561"/>
      <point x="93" y="542"/>
      <point x="93" y="526" type="curve" smooth="yes"/>
      <point x="93" y="488"/>
      <point x="128" y="441"/>
      <point x="166" y="388" type="curve" smooth="yes"/>
      <point x="210" y="327"/>
      <point x="257" y="257"/>
      <point x="257" y="182" type="curve" smooth="yes"/>
      <point x="257" y="163"/>
      <point x="257" y="141"/>
    </contour>
  </outline>
</glyph>
<glyph name="ampersand" format="1">
  <advance width="324"/>
  <unicode hex="0026"/>
  <outline>
    <contour>
      <point x="310" y="5" type="curve" smooth="yes"/>
      <point x="313" y="-3"/>
      <point x="298" y="0"/>
      <point x="291" y="0" type="curve" smooth="yes"/>
      <point x="279" y="-1"/>
      <point x="271" y="0"/>
      <point x="260" y="1" type="curve" smooth="yes"/>
      <point x="254" y="2"/>
      <point x="244" y="-4"/>
      <point x="241" y="6" type="curve" smooth="yes"/>
      <point x="233" y="31"/>
      <point x="231" y="45"/>
      <point x="224" y="45" type="curve" smooth="yes"/>
      <point x="220" y="45"/>
      <point x="223" y="44"/>
      <point x="211" y="34" type="curve" smooth="yes"/>
      <point x="183" y="10"/>
      <point x="162" y="0"/>
      <point x="136" y="0" type="curve" smooth="yes"/>
      <point x="71" y="0"/>
      <point x="30" y="48"/>
      <point x="30" y="116" type="curve" smooth="yes"/>
      <point x="30" y="141"/>
      <point x="30" y="219"/>
      <point x="30" y="238" type="curve" smooth="yes"/>
      <point x="30" y="281"/>
      <point x="54" y="316"/>
      <point x="86" y="353" type="curve" smooth="yes"/>
      <point x="90" y="358"/>
      <point x="93" y="362"/>
      <point x="93" y="369" type="curve" smooth="yes"/>
      <point x="93" y="379"/>
      <point x="95" y="374"/>
      <point x="89" y="390" type="curve" smooth="yes"/>
      <point x="58" y="471"/>
      <point x="35" y="544"/>
      <point x="35" y="582" type="curve" smooth="yes"/>
      <point x="35" y="633"/>
      <point x="71" y="700"/>
      <point x="147" y="700" type="curve" smooth="yes"/>
      <point x="230" y="700"/>
      <point x="259" y="633"/>
      <point x="259" y="581" type="curve" smooth="yes"/>
      <point x="259" y="569"/>
      <point x="259" y="533"/>
      <point x="259" y="520" type="curve" smooth="yes"/>
      <point x="258" y="462"/>
      <point x="222" y="417"/>
      <point x="182" y="369" type="curve" smooth="yes"/>
      <point x="178" y="364"/>
      <point x="173" y="361"/>
      <point x="173" y="354" type="curve" smooth="yes"/>
      <point x="173" y="348"/>
      <point x="174" y="345"/>
      <point x="176" y="338" type="curve" smooth="yes"/>
      <point x="189" y="303"/>
      <point x="201" y="271"/>
      <point x="215" y="240" type="curve" smooth="yes"/>
      <point x="220" y="229"/>
      <point x="220" y="228"/>
      <point x="224" y="229" type="curve" smooth="yes"/>
      <point x="230" y="230"/>
      <point x="229" y="254"/>
      <point x="229" y="269" type="curve" smooth="yes"/>
      <point x="229" y="301"/>
      <point x="228" y="308"/>
      <point x="228" y="314" type="curve" smooth="yes"/>
      <point x="228" y="320"/>
      <point x="237" y="317"/>
      <point x="245" y="317" type="curve" smooth="yes"/>
      <point x="254" y="317"/>
      <point x="258" y="317"/>
      <point x="266" y="316" type="curve" smooth="yes"/>
      <point x="273" y="315"/>
      <point x="289" y="321"/>
      <point x="289" y="312" type="curve" smooth="yes"/>
      <point x="289" y="308"/>
      <point x="290" y="302"/>
      <point x="290" y="268" type="curve" smooth="yes"/>
      <point x="290" y="217"/>
      <point x="284" y="185"/>
      <point x="275" y="147" type="curve" smooth="yes"/>
      <point x="272" y="134"/>
      <point x="271" y="127"/>
      <point x="271" y="120" type="curve" smooth="yes"/>
      <point x="271" y="92"/>
      <point x="280" y="77"/>
    </contour>
    <contour>
      <point x="194" y="519" type="curve" smooth="yes"/>
      <point x="194" y="528"/>
      <point x="194" y="576"/>
      <point x="194" y="585" type="curve" smooth="yes"/>
      <point x="194" y="610"/>
      <point x="175" y="638"/>
      <point x="147" y="638" type="curve" smooth="yes"/>
      <point x="125" y="638"/>
      <point x="100" y="617"/>
      <point x="100" y="584" type="curve" smooth="yes"/>
      <point x="100" y="557"/>
      <point x="115" y="506"/>
      <point x="138" y="439" type="curve" smooth="yes"/>
      <point x="141" y="429"/>
      <point x="142" y="428"/>
      <point x="148" y="428" type="curve" smooth="yes"/>
      <point x="157" y="428"/>
      <point x="161" y="436"/>
      <point x="165" y="442" type="curve" smooth="yes"/>
      <point x="182" y="467"/>
      <point x="194" y="491"/>
    </contour>
    <contour>
      <point x="195" y="117" type="curve" smooth="yes"/>
      <point x="195" y="127"/>
      <point x="194" y="131"/>
      <point x="191" y="138" type="curve" smooth="yes"/>
      <point x="167" y="195"/>
      <point x="153" y="227"/>
      <point x="131" y="282" type="curve" smooth="yes"/>
      <point x="128" y="290"/>
      <point x="128" y="296"/>
      <point x="122" y="296" type="curve" smooth="yes"/>
      <point x="117" y="296"/>
      <point x="115" y="293"/>
      <point x="111" y="286" type="curve" smooth="yes"/>
      <point x="102" y="270"/>
      <point x="95" y="254"/>
      <point x="95" y="239" type="curve" smooth="yes"/>
      <point x="95" y="222"/>
      <point x="95" y="146"/>
      <point x="95" y="122" type="curve" smooth="yes"/>
      <point x="95" y="99"/>
      <point x="93" y="67"/>
      <point x="136" y="67" type="curve" smooth="yes"/>
      <point x="153" y="67"/>
      <point x="172" y="75"/>
      <point x="188" y="97" type="curve" smooth="yes"/>
      <point x="192" y="103"/>
      <point x="195" y="109"/>
    </contour>
  </outline>
</glyph>
<glyph name="quotesingle" format="1">
  <advance width="124"/>
  <unicode hex="0027"/>
  <outline>
    <contour>
      <point x="94" y="683" type="curve" smooth="yes"/>
      <point x="94" y="614"/>
      <point x="93" y="615"/>
      <point x="93" y="559" type="curve" smooth="yes"/>
      <point x="93" y="554"/>
      <point x="89" y="533"/>
      <point x="74" y="536" type="curve" smooth="yes"/>
      <point x="64" y="538"/>
      <point x="58" y="537"/>
      <point x="46" y="536" type="curve" smooth="yes"/>
      <point x="34" y="535"/>
      <point x="31" y="545"/>
      <point x="31" y="567" type="curve" smooth="yes"/>
      <point x="31" y="601"/>
      <point x="32" y="620"/>
      <point x="31" y="653" type="curve" smooth="yes"/>
      <point x="30" y="680"/>
      <point x="36" y="699"/>
      <point x="47" y="699" type="curve" smooth="yes"/>
      <point x="58" y="699"/>
      <point x="67" y="699"/>
      <point x="78" y="702" type="curve" smooth="yes"/>
      <point x="86" y="704"/>
      <point x="94" y="703"/>
    </contour>
  </outline>
</glyph>
<glyph name="parenleft" format="1">
  <advance width="160"/>
  <unicode hex="0028"/>
  <outline>
    <contour>
      <point x="163" y="775" type="curve" smooth="yes"/>
      <point x="163" y="763"/>
      <point x="163" y="743"/>
      <point x="156" y="743" type="curve" smooth="yes"/>
      <point x="126" y="743"/>
      <point x="105" y="712"/>
      <point x="105" y="683" type="curve" smooth="yes"/>
      <point x="105" y="497"/>
      <point x="105" y="210"/>
      <point x="105" y="23" type="curve" smooth="yes"/>
      <point x="105" y="-7"/>
      <point x="118" y="-38"/>
      <point x="156" y="-38" type="curve" smooth="yes"/>
      <point x="162" y="-38"/>
      <point x="161" y="-55"/>
      <point x="161" y="-66" type="curve" smooth="yes"/>
      <point x="161" y="-83"/>
      <point x="163" y="-105"/>
      <point x="156" y="-105" type="curve" smooth="yes"/>
      <point x="78" y="-105"/>
      <point x="40" y="-48"/>
      <point x="40" y="20" type="curve" smooth="yes"/>
      <point x="40" y="212"/>
      <point x="40" y="493"/>
      <point x="40" y="683" type="curve" smooth="yes"/>
      <point x="40" y="747"/>
      <point x="80" y="805"/>
      <point x="156" y="805" type="curve" smooth="yes"/>
      <point x="166" y="805"/>
      <point x="163" y="788"/>
    </contour>
  </outline>
</glyph>
<glyph name="parenright" format="1">
  <advance width="160"/>
  <unicode hex="0029"/>
  <outline>
    <contour>
      <point x="121" y="20" type="curve" smooth="yes"/>
      <point x="121" y="-48"/>
      <point x="83" y="-105"/>
      <point x="5" y="-105" type="curve" smooth="yes"/>
      <point x="-2" y="-105"/>
      <point x="0" y="-83"/>
      <point x="0" y="-66" type="curve" smooth="yes"/>
      <point x="0" y="-55"/>
      <point x="-1" y="-38"/>
      <point x="5" y="-38" type="curve" smooth="yes"/>
      <point x="43" y="-38"/>
      <point x="56" y="-7"/>
      <point x="56" y="23" type="curve" smooth="yes"/>
      <point x="56" y="210"/>
      <point x="56" y="497"/>
      <point x="56" y="683" type="curve" smooth="yes"/>
      <point x="56" y="712"/>
      <point x="35" y="743"/>
      <point x="5" y="743" type="curve" smooth="yes"/>
      <point x="-2" y="743"/>
      <point x="-2" y="763"/>
      <point x="-2" y="775" type="curve" smooth="yes"/>
      <point x="-2" y="788"/>
      <point x="-5" y="805"/>
      <point x="5" y="805" type="curve" smooth="yes"/>
      <point x="81" y="805"/>
      <point x="121" y="747"/>
      <point x="121" y="683" type="curve" smooth="yes"/>
      <point x="121" y="493"/>
      <point x="121" y="212"/>
    </contour>
  </outline>
</glyph>
<glyph name="asterisk" format="1">
  <advance width="293"/>
  <unicode hex="002A"/>
  <outline>
    <contour>
      <point x="261" y="627" type="curve" smooth="yes"/>
      <point x="233" y="611"/>
      <point x="191" y="590"/>
      <point x="191" y="581" type="curve" smooth="yes"/>
      <point x="191" y="575"/>
      <point x="230" y="560"/>
      <point x="252" y="546" type="curve"/>
      <point x="260" y="542"/>
      <point x="245" y="497"/>
      <point x="237" y="500" type="curve" smooth="yes"/>
      <point x="194" y="518"/>
      <point x="176" y="531"/>
      <point x="170" y="527" type="curve"/>
      <point x="164" y="522"/>
      <point x="168" y="494"/>
      <point x="168" y="467" type="curve" smooth="yes"/>
      <point x="168" y="459"/>
      <point x="120" y="458"/>
      <point x="119" y="465" type="curve"/>
      <point x="114" y="486"/>
      <point x="117" y="525"/>
      <point x="111" y="531" type="curve" smooth="yes"/>
      <point x="105" y="537"/>
      <point x="81" y="516"/>
      <point x="59" y="503" type="curve"/>
      <point x="51" y="497"/>
      <point x="27" y="540"/>
      <point x="33" y="545" type="curve" smooth="yes"/>
      <point x="50" y="557"/>
      <point x="95" y="573"/>
      <point x="95" y="582" type="curve" smooth="yes"/>
      <point x="95" y="590"/>
      <point x="56" y="608"/>
      <point x="32" y="615" type="curve" smooth="yes"/>
      <point x="23" y="617"/>
      <point x="38" y="662"/>
      <point x="47" y="659" type="curve" smooth="yes"/>
      <point x="75" y="651"/>
      <point x="105" y="627"/>
      <point x="111" y="630" type="curve"/>
      <point x="119" y="635"/>
      <point x="118" y="675"/>
      <point x="119" y="701" type="curve" smooth="yes"/>
      <point x="120" y="710"/>
      <point x="167" y="710"/>
      <point x="167" y="701" type="curve" smooth="yes"/>
      <point x="165" y="659"/>
      <point x="164" y="629"/>
      <point x="173" y="626" type="curve" smooth="yes"/>
      <point x="180" y="623"/>
      <point x="218" y="651"/>
      <point x="237" y="665" type="curve" smooth="yes"/>
      <point x="243" y="669"/>
      <point x="269" y="632"/>
    </contour>
  </outline>
</glyph>
<glyph name="plus" format="1">
  <advance width="208"/>
  <unicode hex="002B"/>
  <outline>
    <contour>
      <point x="186" y="234" type="curve" smooth="yes"/>
      <point x="173" y="228"/>
      <point x="127" y="232"/>
      <point x="123" y="226" type="curve" smooth="yes"/>
      <point x="119" y="221"/>
      <point x="121" y="183"/>
      <point x="121" y="165" type="curve" smooth="yes"/>
      <point x="121" y="160"/>
      <point x="93" y="156"/>
      <point x="91" y="161" type="curve" smooth="yes"/>
      <point x="85" y="174"/>
      <point x="88" y="220"/>
      <point x="83" y="226" type="curve" smooth="yes"/>
      <point x="77" y="233"/>
      <point x="41" y="227"/>
      <point x="24" y="231" type="curve" smooth="yes"/>
      <point x="18" y="232"/>
      <point x="19" y="262"/>
      <point x="25" y="264" type="curve" smooth="yes"/>
      <point x="40" y="268"/>
      <point x="77" y="263"/>
      <point x="83" y="269" type="curve" smooth="yes"/>
      <point x="88" y="274"/>
      <point x="84" y="314"/>
      <point x="88" y="331" type="curve" smooth="yes"/>
      <point x="89" y="337"/>
      <point x="119" y="336"/>
      <point x="121" y="330" type="curve" smooth="yes"/>
      <point x="125" y="315"/>
      <point x="120" y="273"/>
      <point x="125" y="268" type="curve" smooth="yes"/>
      <point x="130" y="263"/>
      <point x="164" y="264"/>
      <point x="182" y="264" type="curve" smooth="yes"/>
      <point x="187" y="264"/>
      <point x="191" y="236"/>
    </contour>
  </outline>
</glyph>
<glyph name="comma" format="1">
  <advance width="104"/>
  <unicode hex="002C"/>
  <outline>
    <contour>
      <point x="91" y="44" type="curve"/>
      <point x="91" y="35"/>
      <point x="89" y="14"/>
      <point x="82" y="-5" type="curve" smooth="yes"/>
      <point x="70" y="-41"/>
      <point x="48" y="-75"/>
      <point x="33" y="-73" type="curve" smooth="yes"/>
      <point x="19" y="-71"/>
      <point x="29" y="-37"/>
      <point x="34" y="-10" type="curve" smooth="yes"/>
      <point x="37" y="8"/>
      <point x="31" y="6"/>
      <point x="22" y="14" type="curve" smooth="yes"/>
      <point x="16" y="20"/>
      <point x="11" y="28"/>
      <point x="11" y="46" type="curve" smooth="yes"/>
      <point x="11" y="67"/>
      <point x="19" y="86"/>
      <point x="52" y="84" type="curve" smooth="yes"/>
      <point x="74" y="82"/>
      <point x="89" y="66"/>
    </contour>
  </outline>
</glyph>
<glyph name="hyphen" format="1">
  <advance width="206"/>
  <unicode hex="002D"/>
  <unicode hex="2010"/>
  <unicode hex="2011"/>
  <outline>
    <contour>
      <point x="186" y="236" type="curve" smooth="yes"/>
      <point x="188" y="228"/>
      <point x="187" y="220"/>
      <point x="167" y="220" type="curve" smooth="yes"/>
      <point x="98" y="220"/>
      <point x="99" y="221"/>
      <point x="43" y="221" type="curve" smooth="yes"/>
      <point x="38" y="221"/>
      <point x="17" y="225"/>
      <point x="20" y="240" type="curve" smooth="yes"/>
      <point x="22" y="250"/>
      <point x="21" y="256"/>
      <point x="20" y="268" type="curve" smooth="yes"/>
      <point x="19" y="280"/>
      <point x="29" y="283"/>
      <point x="51" y="283" type="curve" smooth="yes"/>
      <point x="85" y="283"/>
      <point x="104" y="282"/>
      <point x="137" y="283" type="curve" smooth="yes"/>
      <point x="164" y="284"/>
      <point x="183" y="278"/>
      <point x="183" y="267" type="curve" smooth="yes"/>
      <point x="183" y="256"/>
      <point x="183" y="247"/>
    </contour>
  </outline>
</glyph>
<glyph name="period" format="1">
  <advance width="104"/>
  <unicode hex="002E"/>
  <outline>
    <contour>
      <point x="92" y="43" type="curve" smooth="yes"/>
      <point x="94" y="18"/>
      <point x="97" y="0"/>
      <point x="52" y="-5" type="curve" smooth="yes"/>
      <point x="27" y="-8"/>
      <point x="7" y="19"/>
      <point x="10" y="45" type="curve" smooth="yes"/>
      <point x="12" y="67"/>
      <point x="18" y="88"/>
      <point x="52" y="86" type="curve" smooth="yes"/>
      <point x="75" y="85"/>
      <point x="91" y="66"/>
    </contour>
  </outline>
</glyph>
<glyph name="slash" format="1">
  <advance width="211"/>
  <unicode hex="002F"/>
  <outline>
    <contour>
      <point x="195" y="681" type="curve" smooth="yes"/>
      <point x="152" y="435"/>
      <point x="119" y="248"/>
      <point x="78" y="16" type="curve" smooth="yes"/>
      <point x="75" y="0"/>
      <point x="62" y="0"/>
      <point x="42" y="0" type="curve" smooth="yes"/>
      <point x="25" y="0"/>
      <point x="12" y="0"/>
      <point x="15" y="17" type="curve" smooth="yes"/>
      <point x="53" y="231"/>
      <point x="91" y="445"/>
      <point x="134" y="686" type="curve" smooth="yes"/>
      <point x="136" y="699"/>
      <point x="143" y="702"/>
      <point x="164" y="702" type="curve" smooth="yes"/>
      <point x="192" y="702"/>
      <point x="198" y="701"/>
    </contour>
  </outline>
</glyph>
<glyph name="zero" format="1">
  <advance width="302"/>
  <unicode hex="0030"/>
  <outline>
    <contour>
      <point x="267" y="125" type="curve" smooth="yes"/>
      <point x="267" y="36"/>
      <point x="218" y="0"/>
      <point x="151" y="0" type="curve" smooth="yes"/>
      <point x="85" y="0"/>
      <point x="35" y="45"/>
      <point x="35" y="125" type="curve" smooth="yes"/>
      <point x="35" y="276"/>
      <point x="35" y="429"/>
      <point x="35" y="578" type="curve" smooth="yes"/>
      <point x="35" y="653"/>
      <point x="86" y="700"/>
      <point x="151" y="700" type="curve" smooth="yes"/>
      <point x="217" y="700"/>
      <point x="267" y="649"/>
      <point x="267" y="578" type="curve" smooth="yes"/>
      <point x="267" y="429"/>
      <point x="267" y="276"/>
    </contour>
    <contour>
      <point x="201" y="128" type="curve" smooth="yes"/>
      <point x="201" y="274"/>
      <point x="201" y="433"/>
      <point x="201" y="578" type="curve" smooth="yes"/>
      <point x="201" y="606"/>
      <point x="180" y="638"/>
      <point x="151" y="638" type="curve" smooth="yes"/>
      <point x="121" y="638"/>
      <point x="100" y="606"/>
      <point x="100" y="578" type="curve" smooth="yes"/>
      <point x="100" y="434"/>
      <point x="100" y="273"/>
      <point x="100" y="128" type="curve" smooth="yes"/>
      <point x="100" y="87"/>
      <point x="121" y="67"/>
      <point x="151" y="67" type="curve" smooth="yes"/>
      <point x="182" y="67"/>
      <point x="201" y="87"/>
    </contour>
  </outline>
</glyph>
<glyph name="one" format="1">
  <advance width="258"/>
  <unicode hex="0031"/>
  <outline>
    <contour>
      <point x="243" y="33" type="curve" smooth="yes"/>
      <point x="243" y="11"/>
      <point x="241" y="0"/>
      <point x="232" y="0" type="curve" smooth="yes"/>
      <point x="182" y="0"/>
      <point x="84" y="0"/>
      <point x="34" y="0" type="curve" smooth="yes"/>
      <point x="21" y="0"/>
      <point x="20" y="8"/>
      <point x="20" y="32" type="curve" smooth="yes"/>
      <point x="20" y="58"/>
      <point x="22" y="68"/>
      <point x="36" y="68" type="curve" smooth="yes"/>
      <point x="46" y="68"/>
      <point x="65" y="68"/>
      <point x="80" y="68" type="curve" smooth="yes"/>
      <point x="87" y="68"/>
      <point x="93" y="67"/>
      <point x="98" y="70" type="curve" smooth="yes"/>
      <point x="103" y="73"/>
      <point x="103" y="88"/>
      <point x="103" y="100" type="curve" smooth="yes"/>
      <point x="103" y="277"/>
      <point x="103" y="384"/>
      <point x="103" y="561" type="curve" smooth="yes"/>
      <point x="103" y="569"/>
      <point x="104" y="585"/>
      <point x="99" y="585" type="curve" smooth="yes"/>
      <point x="88" y="585"/>
      <point x="69" y="567"/>
      <point x="59" y="560" type="curve"/>
      <point x="51" y="553"/>
      <point x="35" y="535"/>
      <point x="32" y="551" type="curve" smooth="yes"/>
      <point x="29" y="571"/>
      <point x="26" y="579"/>
      <point x="30" y="600" type="curve"/>
      <point x="31" y="610"/>
      <point x="53" y="627"/>
      <point x="70" y="641" type="curve" smooth="yes"/>
      <point x="86" y="654"/>
      <point x="92" y="690"/>
      <point x="101" y="692" type="curve"/>
      <point x="126" y="700"/>
      <point x="136" y="700"/>
      <point x="156" y="700" type="curve" smooth="yes"/>
      <point x="169" y="700"/>
      <point x="167" y="681"/>
      <point x="167" y="670" type="curve" smooth="yes"/>
      <point x="167" y="460"/>
      <point x="167" y="322"/>
      <point x="167" y="100" type="curve" smooth="yes"/>
      <point x="167" y="89"/>
      <point x="167" y="77"/>
      <point x="170" y="73" type="curve" smooth="yes"/>
      <point x="174" y="68"/>
      <point x="183" y="68"/>
      <point x="187" y="68" type="curve" smooth="yes"/>
      <point x="207" y="68"/>
      <point x="220" y="68"/>
      <point x="234" y="68" type="curve" smooth="yes"/>
      <point x="243" y="68"/>
      <point x="243" y="59"/>
    </contour>
  </outline>
</glyph>
<glyph name="two" format="1">
  <advance width="267"/>
  <unicode hex="0032"/>
  <outline>
    <contour>
      <point x="249" y="495" type="curve" smooth="yes"/>
      <point x="249" y="443"/>
      <point x="232" y="404"/>
      <point x="202" y="366" type="curve" smooth="yes"/>
      <point x="166" y="320"/>
      <point x="142" y="290"/>
      <point x="110" y="247" type="curve" smooth="yes"/>
      <point x="97" y="229"/>
      <point x="88" y="200"/>
      <point x="88" y="170" type="curve" smooth="yes"/>
      <point x="88" y="147"/>
      <point x="88" y="124"/>
      <point x="88" y="101" type="curve" smooth="yes"/>
      <point x="88" y="86"/>
      <point x="87" y="78"/>
      <point x="93" y="72" type="curve" smooth="yes"/>
      <point x="98" y="67"/>
      <point x="106" y="67"/>
      <point x="116" y="67" type="curve" smooth="yes"/>
      <point x="148" y="67"/>
      <point x="200" y="67"/>
      <point x="232" y="67" type="curve" smooth="yes"/>
      <point x="245" y="67"/>
      <point x="247" y="59"/>
      <point x="247" y="33" type="curve" smooth="yes"/>
      <point x="247" y="8"/>
      <point x="246" y="0"/>
      <point x="230" y="0" type="curve" smooth="yes"/>
      <point x="181" y="0"/>
      <point x="110" y="0"/>
      <point x="56" y="0" type="curve" smooth="yes"/>
      <point x="45" y="0"/>
      <point x="39" y="-2"/>
      <point x="32" y="4" type="curve" smooth="yes"/>
      <point x="23" y="11"/>
      <point x="25" y="13"/>
      <point x="25" y="28" type="curve" smooth="yes"/>
      <point x="25" y="78"/>
      <point x="25" y="126"/>
      <point x="25" y="176" type="curve" smooth="yes"/>
      <point x="25" y="220"/>
      <point x="41" y="266"/>
      <point x="58" y="288" type="curve" smooth="yes"/>
      <point x="106" y="347"/>
      <point x="111" y="354"/>
      <point x="161" y="421" type="curve" smooth="yes"/>
      <point x="183" y="450"/>
      <point x="187" y="471"/>
      <point x="187" y="503" type="curve" smooth="yes"/>
      <point x="187" y="538"/>
      <point x="187" y="564"/>
      <point x="187" y="596" type="curve" smooth="yes"/>
      <point x="187" y="626"/>
      <point x="169" y="641"/>
      <point x="135" y="641" type="curve" smooth="yes"/>
      <point x="107" y="641"/>
      <point x="91" y="620"/>
      <point x="91" y="597" type="curve" smooth="yes"/>
      <point x="91" y="578"/>
      <point x="91" y="557"/>
      <point x="91" y="542" type="curve" smooth="yes"/>
      <point x="91" y="531"/>
      <point x="82" y="529"/>
      <point x="60" y="529" type="curve" smooth="yes"/>
      <point x="37" y="529"/>
      <point x="28" y="529"/>
      <point x="28" y="543" type="curve" smooth="yes"/>
      <point x="28" y="562"/>
      <point x="29" y="580"/>
      <point x="29" y="599" type="curve" smooth="yes"/>
      <point x="29" y="645"/>
      <point x="64" y="700"/>
      <point x="136" y="700" type="curve" smooth="yes"/>
      <point x="212" y="700"/>
      <point x="249" y="649"/>
      <point x="249" y="601" type="curve" smooth="yes"/>
      <point x="249" y="563"/>
      <point x="249" y="535"/>
    </contour>
  </outline>
</glyph>
<glyph name="three" format="1">
  <advance width="272"/>
  <unicode hex="0033"/>
  <outline>
    <contour>
      <point x="247" y="116" type="curve" smooth="yes"/>
      <point x="247" y="53"/>
      <point x="194" y="0"/>
      <point x="131" y="0" type="curve" smooth="yes"/>
      <point x="69" y="0"/>
      <point x="20" y="53"/>
      <point x="20" y="116" type="curve" smooth="yes"/>
      <point x="20" y="134"/>
      <point x="20" y="148"/>
      <point x="20" y="165" type="curve" smooth="yes"/>
      <point x="20" y="182"/>
      <point x="24" y="185"/>
      <point x="51" y="185" type="curve" smooth="yes"/>
      <point x="81" y="185"/>
      <point x="84" y="184"/>
      <point x="84" y="174" type="curve" smooth="yes"/>
      <point x="84" y="153"/>
      <point x="84" y="133"/>
      <point x="84" y="118" type="curve" smooth="yes"/>
      <point x="84" y="90"/>
      <point x="97" y="58"/>
      <point x="133" y="58" type="curve" smooth="yes"/>
      <point x="167" y="58"/>
      <point x="184" y="88"/>
      <point x="184" y="117" type="curve" smooth="yes"/>
      <point x="184" y="191"/>
      <point x="184" y="237"/>
      <point x="184" y="299" type="curve" smooth="yes"/>
      <point x="184" y="329"/>
      <point x="174" y="341"/>
      <point x="153" y="347" type="curve" smooth="yes"/>
      <point x="127" y="354"/>
      <point x="129" y="342"/>
      <point x="112" y="340" type="curve" smooth="yes"/>
      <point x="96" y="339"/>
      <point x="89" y="347"/>
      <point x="73" y="354" type="curve"/>
      <point x="66" y="356"/>
      <point x="59" y="365"/>
      <point x="62" y="372" type="curve" smooth="yes"/>
      <point x="135" y="530"/>
      <point x="134" y="528"/>
      <point x="172" y="613" type="curve" smooth="yes"/>
      <point x="179" y="629"/>
      <point x="179" y="630"/>
      <point x="174" y="637" type="curve" smooth="yes"/>
      <point x="170" y="643"/>
      <point x="89" y="642"/>
      <point x="43" y="642" type="curve" smooth="yes"/>
      <point x="33" y="642"/>
      <point x="30" y="651"/>
      <point x="30" y="672" type="curve" smooth="yes"/>
      <point x="30" y="694"/>
      <point x="32" y="700"/>
      <point x="43" y="700" type="curve" smooth="yes"/>
      <point x="113" y="700"/>
      <point x="148" y="700"/>
      <point x="232" y="700" type="curve" smooth="yes"/>
      <point x="244" y="700"/>
      <point x="246" y="691"/>
      <point x="246" y="671" type="curve" smooth="yes"/>
      <point x="246" y="649"/>
      <point x="247" y="633"/>
      <point x="239" y="613" type="curve" smooth="yes"/>
      <point x="205" y="529"/>
      <point x="190" y="501"/>
      <point x="154" y="418" type="curve" smooth="yes"/>
      <point x="152" y="413"/>
      <point x="148" y="406"/>
      <point x="161" y="403" type="curve" smooth="yes"/>
      <point x="177" y="400"/>
      <point x="189" y="395"/>
      <point x="203" y="385" type="curve" smooth="yes"/>
      <point x="232" y="365"/>
      <point x="247" y="339"/>
      <point x="247" y="305" type="curve" smooth="yes"/>
      <point x="247" y="236"/>
      <point x="247" y="183"/>
    </contour>
  </outline>
</glyph>
<glyph name="four" format="1">
  <advance width="267"/>
  <unicode hex="0034"/>
  <outline>
    <contour>
      <point x="248" y="165" type="curve" smooth="yes"/>
      <point x="248" y="146"/>
      <point x="248" y="139"/>
      <point x="242" y="139" type="curve" smooth="yes"/>
      <point x="228" y="139"/>
      <point x="227" y="140"/>
      <point x="221" y="135" type="curve"/>
      <point x="217" y="131"/>
      <point x="218" y="129"/>
      <point x="218" y="123" type="curve" smooth="yes"/>
      <point x="218" y="84"/>
      <point x="218" y="48"/>
      <point x="218" y="12" type="curve" smooth="yes"/>
      <point x="218" y="1"/>
      <point x="207" y="0"/>
      <point x="181" y="0" type="curve" smooth="yes"/>
      <point x="161" y="0"/>
      <point x="151" y="2"/>
      <point x="151" y="13" type="curve" smooth="yes"/>
      <point x="151" y="48"/>
      <point x="151" y="76"/>
      <point x="151" y="114" type="curve" smooth="yes"/>
      <point x="151" y="120"/>
      <point x="152" y="125"/>
      <point x="149" y="132" type="curve"/>
      <point x="145" y="138"/>
      <point x="132" y="137"/>
      <point x="122" y="137" type="curve" smooth="yes"/>
      <point x="91" y="137"/>
      <point x="75" y="137"/>
      <point x="44" y="137" type="curve" smooth="yes"/>
      <point x="39" y="137"/>
      <point x="31" y="136"/>
      <point x="28" y="141" type="curve" smooth="yes"/>
      <point x="24" y="148"/>
      <point x="25" y="156"/>
      <point x="25" y="164" type="curve" smooth="yes"/>
      <point x="25" y="203"/>
      <point x="25" y="227"/>
      <point x="25" y="266" type="curve" smooth="yes"/>
      <point x="25" y="277"/>
      <point x="25" y="284"/>
      <point x="27" y="297" type="curve" smooth="yes"/>
      <point x="29" y="307"/>
      <point x="32" y="315"/>
      <point x="35" y="325" type="curve" smooth="yes"/>
      <point x="76" y="463"/>
      <point x="96" y="529"/>
      <point x="140" y="679" type="curve" smooth="yes"/>
      <point x="146" y="698"/>
      <point x="149" y="702"/>
      <point x="178" y="702" type="curve" smooth="yes"/>
      <point x="216" y="702"/>
      <point x="217" y="699"/>
      <point x="217" y="689" type="curve" smooth="yes"/>
      <point x="217" y="507"/>
      <point x="217" y="393"/>
      <point x="217" y="211" type="curve" smooth="yes"/>
      <point x="217" y="207"/>
      <point x="217" y="199"/>
      <point x="219" y="197" type="curve" smooth="yes"/>
      <point x="223" y="193"/>
      <point x="234" y="194"/>
      <point x="242" y="194" type="curve" smooth="yes"/>
      <point x="248" y="194"/>
      <point x="248" y="185"/>
    </contour>
    <contour>
      <point x="156" y="467" type="curve" smooth="yes"/>
      <point x="156" y="506"/>
      <point x="157" y="520"/>
      <point x="152" y="520" type="curve" smooth="yes"/>
      <point x="145" y="520"/>
      <point x="143" y="502"/>
      <point x="140" y="491" type="curve" smooth="yes"/>
      <point x="125" y="437"/>
      <point x="110" y="375"/>
      <point x="95" y="320" type="curve" smooth="yes"/>
      <point x="92" y="309"/>
      <point x="87" y="300"/>
      <point x="85" y="289" type="curve" smooth="yes"/>
      <point x="84" y="282"/>
      <point x="84" y="277"/>
      <point x="84" y="270" type="curve" smooth="yes"/>
      <point x="84" y="252"/>
      <point x="84" y="236"/>
      <point x="84" y="218" type="curve" smooth="yes"/>
      <point x="84" y="207"/>
      <point x="83" y="201"/>
      <point x="87" y="196" type="curve" smooth="yes"/>
      <point x="89" y="193"/>
      <point x="103" y="193"/>
      <point x="117" y="193" type="curve" smooth="yes"/>
      <point x="131" y="193"/>
      <point x="144" y="194"/>
      <point x="148" y="196" type="curve" smooth="yes"/>
      <point x="152" y="198"/>
      <point x="151" y="206"/>
      <point x="151" y="214" type="curve" smooth="yes"/>
      <point x="151" y="307"/>
      <point x="156" y="374"/>
    </contour>
  </outline>
</glyph>
<glyph name="five" format="1">
  <advance width="280"/>
  <unicode hex="0035"/>
  <outline>
    <contour>
      <point x="255" y="214" type="curve" smooth="yes"/>
      <point x="255" y="173"/>
      <point x="247" y="143"/>
      <point x="231" y="109" type="curve" smooth="yes"/>
      <point x="214" y="71"/>
      <point x="184" y="45"/>
      <point x="141" y="19" type="curve" smooth="yes"/>
      <point x="124" y="9"/>
      <point x="56" y="-10"/>
      <point x="35" y="1" type="curve" smooth="yes"/>
      <point x="29" y="4"/>
      <point x="30" y="16"/>
      <point x="30" y="27" type="curve" smooth="yes"/>
      <point x="30" y="36"/>
      <point x="30" y="52"/>
      <point x="34" y="56" type="curve" smooth="yes"/>
      <point x="49" y="71"/>
      <point x="52" y="52"/>
      <point x="103" y="71" type="curve" smooth="yes"/>
      <point x="149" y="88"/>
      <point x="166" y="117"/>
      <point x="174" y="132" type="curve" smooth="yes"/>
      <point x="189" y="160"/>
      <point x="189" y="179"/>
      <point x="189" y="211" type="curve" smooth="yes"/>
      <point x="189" y="242"/>
      <point x="189" y="252"/>
      <point x="189" y="293" type="curve" smooth="yes"/>
      <point x="189" y="329"/>
      <point x="174" y="352"/>
      <point x="145" y="352" type="curve" smooth="yes"/>
      <point x="123" y="352"/>
      <point x="113" y="346"/>
      <point x="100" y="333" type="curve" smooth="yes"/>
      <point x="91" y="324"/>
      <point x="98" y="321"/>
      <point x="86" y="316" type="curve" smooth="yes"/>
      <point x="77" y="313"/>
      <point x="55" y="309"/>
      <point x="32" y="316" type="curve" smooth="yes"/>
      <point x="27" y="318"/>
      <point x="29" y="334"/>
      <point x="29" y="350" type="curve" smooth="yes"/>
      <point x="29" y="477"/>
      <point x="29" y="542"/>
      <point x="29" y="664" type="curve" smooth="yes"/>
      <point x="29" y="676"/>
      <point x="31" y="687"/>
      <point x="33" y="690" type="curve" smooth="yes"/>
      <point x="41" y="701"/>
      <point x="47" y="700"/>
      <point x="59" y="700" type="curve" smooth="yes"/>
      <point x="117" y="700"/>
      <point x="178" y="700"/>
      <point x="235" y="700" type="curve" smooth="yes"/>
      <point x="250" y="700"/>
      <point x="252" y="691"/>
      <point x="252" y="671" type="curve" smooth="yes"/>
      <point x="252" y="651"/>
      <point x="250" y="641"/>
      <point x="237" y="641" type="curve" smooth="yes"/>
      <point x="196" y="641"/>
      <point x="163" y="641"/>
      <point x="123" y="641" type="curve" smooth="yes"/>
      <point x="112" y="641"/>
      <point x="106" y="641"/>
      <point x="100" y="634" type="curve" smooth="yes"/>
      <point x="94" y="627"/>
      <point x="94" y="623"/>
      <point x="94" y="613" type="curve" smooth="yes"/>
      <point x="94" y="548"/>
      <point x="94" y="505"/>
      <point x="94" y="441" type="curve" smooth="yes"/>
      <point x="94" y="426"/>
      <point x="91" y="402"/>
      <point x="108" y="403" type="curve" smooth="yes"/>
      <point x="120" y="403"/>
      <point x="116" y="412"/>
      <point x="151" y="412" type="curve" smooth="yes"/>
      <point x="187" y="411"/>
      <point x="207" y="402"/>
      <point x="228" y="378" type="curve" smooth="yes"/>
      <point x="249" y="354"/>
      <point x="255" y="330"/>
      <point x="255" y="299" type="curve" smooth="yes"/>
      <point x="255" y="267"/>
      <point x="255" y="246"/>
    </contour>
  </outline>
</glyph>
<glyph name="six" format="1">
  <advance width="274"/>
  <unicode hex="0036"/>
  <outline>
    <contour>
      <point x="249" y="145" type="curve" smooth="yes"/>
      <point x="249" y="60"/>
      <point x="212" y="0"/>
      <point x="141" y="0" type="curve" smooth="yes"/>
      <point x="53" y="0"/>
      <point x="30" y="66"/>
      <point x="30" y="144" type="curve" smooth="yes"/>
      <point x="30" y="269"/>
      <point x="30" y="363"/>
      <point x="30" y="497" type="curve" smooth="yes"/>
      <point x="30" y="665"/>
      <point x="174" y="701"/>
      <point x="243" y="701" type="curve" smooth="yes"/>
      <point x="250" y="701"/>
      <point x="249" y="684"/>
      <point x="249" y="674" type="curve" smooth="yes"/>
      <point x="249" y="664"/>
      <point x="249" y="640"/>
      <point x="243" y="640" type="curve" smooth="yes"/>
      <point x="165" y="640"/>
      <point x="92" y="601"/>
      <point x="92" y="494" type="curve" smooth="yes"/>
      <point x="92" y="465"/>
      <point x="92" y="446"/>
      <point x="92" y="417" type="curve" smooth="yes"/>
      <point x="92" y="411"/>
      <point x="91" y="404"/>
      <point x="96" y="398" type="curve" smooth="yes"/>
      <point x="104" y="387"/>
      <point x="125" y="400"/>
      <point x="146" y="400" type="curve" smooth="yes"/>
      <point x="169" y="400"/>
      <point x="186" y="393"/>
      <point x="206" y="379" type="curve" smooth="yes"/>
      <point x="231" y="362"/>
      <point x="249" y="332"/>
      <point x="249" y="310" type="curve" smooth="yes"/>
      <point x="249" y="251"/>
      <point x="249" y="206"/>
    </contour>
    <contour>
      <point x="190" y="143" type="curve" smooth="yes"/>
      <point x="190" y="195"/>
      <point x="190" y="237"/>
      <point x="190" y="285" type="curve" smooth="yes"/>
      <point x="190" y="320"/>
      <point x="168" y="340"/>
      <point x="139" y="340" type="curve" smooth="yes"/>
      <point x="109" y="340"/>
      <point x="91" y="321"/>
      <point x="91" y="281" type="curve" smooth="yes"/>
      <point x="91" y="233"/>
      <point x="91" y="194"/>
      <point x="91" y="143" type="curve" smooth="yes"/>
      <point x="91" y="88"/>
      <point x="96" y="61"/>
      <point x="141" y="61" type="curve" smooth="yes"/>
      <point x="177" y="61"/>
      <point x="190" y="95"/>
    </contour>
  </outline>
</glyph>
<glyph name="seven" format="1">
  <advance width="257"/>
  <unicode hex="0037"/>
  <outline>
    <contour>
      <point x="238" y="592" type="curve" smooth="yes"/>
      <point x="238" y="579"/>
      <point x="226" y="551"/>
      <point x="219" y="528" type="curve" smooth="yes"/>
      <point x="201" y="472"/>
      <point x="189" y="438"/>
      <point x="178" y="381" type="curve" smooth="yes"/>
      <point x="152" y="251"/>
      <point x="133" y="173"/>
      <point x="128" y="41" type="curve" smooth="yes"/>
      <point x="128" y="27"/>
      <point x="129" y="11"/>
      <point x="124" y="7" type="curve" smooth="yes"/>
      <point x="114" y="-1"/>
      <point x="105" y="0"/>
      <point x="94" y="0" type="curve" smooth="yes"/>
      <point x="83" y="0"/>
      <point x="74" y="-2"/>
      <point x="66" y="5" type="curve" smooth="yes"/>
      <point x="60" y="11"/>
      <point x="63" y="37"/>
      <point x="64" y="57" type="curve" smooth="yes"/>
      <point x="72" y="183"/>
      <point x="85" y="256"/>
      <point x="110" y="382" type="curve" smooth="yes"/>
      <point x="126" y="466"/>
      <point x="148" y="510"/>
      <point x="170" y="596" type="curve" smooth="yes"/>
      <point x="174" y="611"/>
      <point x="174" y="629"/>
      <point x="169" y="636" type="curve" smooth="yes"/>
      <point x="165" y="641"/>
      <point x="137" y="640"/>
      <point x="117" y="640" type="curve" smooth="yes"/>
      <point x="82" y="640"/>
      <point x="60" y="640"/>
      <point x="27" y="640" type="curve" smooth="yes"/>
      <point x="17" y="640"/>
      <point x="15" y="649"/>
      <point x="15" y="669" type="curve" smooth="yes"/>
      <point x="15" y="693"/>
      <point x="15" y="700"/>
      <point x="25" y="700" type="curve" smooth="yes"/>
      <point x="128" y="700"/>
      <point x="148" y="700"/>
      <point x="222" y="700" type="curve" smooth="yes"/>
      <point x="227" y="700"/>
      <point x="231" y="699"/>
      <point x="234" y="697" type="curve"/>
      <point x="237" y="693"/>
      <point x="238" y="687"/>
      <point x="238" y="683" type="curve" smooth="yes"/>
      <point x="238" y="649"/>
      <point x="238" y="626"/>
    </contour>
  </outline>
</glyph>
<glyph name="eight" format="1">
  <advance width="292"/>
  <unicode hex="0038"/>
  <outline>
    <contour>
      <point x="262" y="132" type="curve" smooth="yes"/>
      <point x="262" y="54"/>
      <point x="214" y="0"/>
      <point x="146" y="0" type="curve" smooth="yes"/>
      <point x="78" y="0"/>
      <point x="30" y="56"/>
      <point x="30" y="132" type="curve" smooth="yes"/>
      <point x="30" y="196"/>
      <point x="30" y="242"/>
      <point x="30" y="309" type="curve" smooth="yes"/>
      <point x="30" y="326"/>
      <point x="34" y="338"/>
      <point x="41" y="353" type="curve" smooth="yes"/>
      <point x="47" y="366"/>
      <point x="55" y="374"/>
      <point x="67" y="382" type="curve"/>
      <point x="56" y="391"/>
      <point x="51" y="401"/>
      <point x="44" y="412" type="curve" smooth="yes"/>
      <point x="34" y="428"/>
      <point x="30" y="441"/>
      <point x="30" y="459" type="curve" smooth="yes"/>
      <point x="30" y="511"/>
      <point x="30" y="547"/>
      <point x="30" y="597" type="curve" smooth="yes"/>
      <point x="30" y="656"/>
      <point x="86" y="700"/>
      <point x="146" y="700" type="curve" smooth="yes"/>
      <point x="204" y="700"/>
      <point x="262" y="655"/>
      <point x="262" y="596" type="curve" smooth="yes"/>
      <point x="262" y="546"/>
      <point x="262" y="509"/>
      <point x="262" y="456" type="curve" smooth="yes"/>
      <point x="262" y="439"/>
      <point x="254" y="428"/>
      <point x="247" y="412" type="curve" smooth="yes"/>
      <point x="241" y="398"/>
      <point x="233" y="389"/>
      <point x="222" y="380" type="curve"/>
      <point x="233" y="371"/>
      <point x="239" y="365"/>
      <point x="245" y="353" type="curve" smooth="yes"/>
      <point x="255" y="333"/>
      <point x="262" y="319"/>
      <point x="262" y="298" type="curve" smooth="yes"/>
      <point x="262" y="235"/>
      <point x="262" y="193"/>
    </contour>
    <contour>
      <point x="196" y="466" type="curve" smooth="yes"/>
      <point x="196" y="510"/>
      <point x="196" y="553"/>
      <point x="196" y="595" type="curve" smooth="yes"/>
      <point x="196" y="620"/>
      <point x="172" y="640"/>
      <point x="146" y="640" type="curve" smooth="yes"/>
      <point x="120" y="640"/>
      <point x="95" y="619"/>
      <point x="95" y="593" type="curve" smooth="yes"/>
      <point x="95" y="551"/>
      <point x="95" y="510"/>
      <point x="95" y="467" type="curve" smooth="yes"/>
      <point x="95" y="438"/>
      <point x="117" y="412"/>
      <point x="146" y="412" type="curve" smooth="yes"/>
      <point x="174" y="412"/>
      <point x="196" y="435"/>
    </contour>
    <contour>
      <point x="196" y="132" type="curve" smooth="yes"/>
      <point x="196" y="190"/>
      <point x="196" y="240"/>
      <point x="196" y="295" type="curve" smooth="yes"/>
      <point x="196" y="323"/>
      <point x="175" y="350"/>
      <point x="146" y="350" type="curve" smooth="yes"/>
      <point x="118" y="350"/>
      <point x="95" y="324"/>
      <point x="95" y="298" type="curve" smooth="yes"/>
      <point x="95" y="243"/>
      <point x="95" y="191"/>
      <point x="95" y="132" type="curve" smooth="yes"/>
      <point x="95" y="96"/>
      <point x="114" y="65"/>
      <point x="146" y="65" type="curve" smooth="yes"/>
      <point x="179" y="65"/>
      <point x="196" y="94"/>
    </contour>
  </outline>
</glyph>
<glyph name="nine" format="1">
  <advance width="279"/>
  <unicode hex="0039"/>
  <outline>
    <contour>
      <point x="249" y="209" type="curve" smooth="yes"/>
      <point x="249" y="22"/>
      <point x="84" y="-1"/>
      <point x="34" y="-1" type="curve" smooth="yes"/>
      <point x="25" y="-1"/>
      <point x="27" y="19"/>
      <point x="27" y="31" type="curve" smooth="yes"/>
      <point x="27" y="43"/>
      <point x="29" y="64"/>
      <point x="35" y="64" type="curve" smooth="yes"/>
      <point x="94" y="64"/>
      <point x="185" y="85"/>
      <point x="185" y="209" type="curve" smooth="yes"/>
      <point x="185" y="237"/>
      <point x="185" y="255"/>
      <point x="185" y="283" type="curve" smooth="yes"/>
      <point x="185" y="293"/>
      <point x="187" y="302"/>
      <point x="178" y="311" type="curve" smooth="yes"/>
      <point x="172" y="317"/>
      <point x="151" y="302"/>
      <point x="132" y="302" type="curve" smooth="yes"/>
      <point x="109" y="302"/>
      <point x="92" y="307"/>
      <point x="72" y="320" type="curve" smooth="yes"/>
      <point x="45" y="339"/>
      <point x="25" y="369"/>
      <point x="25" y="397" type="curve" smooth="yes"/>
      <point x="25" y="459"/>
      <point x="25" y="501"/>
      <point x="25" y="564" type="curve" smooth="yes"/>
      <point x="25" y="662"/>
      <point x="67" y="700"/>
      <point x="137" y="700" type="curve" smooth="yes"/>
      <point x="206" y="700"/>
      <point x="249" y="658"/>
      <point x="249" y="565" type="curve" smooth="yes"/>
      <point x="249" y="441"/>
      <point x="249" y="344"/>
    </contour>
    <contour>
      <point x="186" y="418" type="curve" smooth="yes"/>
      <point x="186" y="469"/>
      <point x="186" y="512"/>
      <point x="186" y="566" type="curve" smooth="yes"/>
      <point x="186" y="620"/>
      <point x="172" y="645"/>
      <point x="136" y="645" type="curve" smooth="yes"/>
      <point x="100" y="645"/>
      <point x="88" y="612"/>
      <point x="88" y="566" type="curve" smooth="yes"/>
      <point x="88" y="511"/>
      <point x="88" y="465"/>
      <point x="88" y="414" type="curve" smooth="yes"/>
      <point x="88" y="379"/>
      <point x="110" y="361"/>
      <point x="138" y="361" type="curve" smooth="yes"/>
      <point x="167" y="361"/>
      <point x="186" y="380"/>
    </contour>
  </outline>
</glyph>
<glyph name="colon" format="1">
  <advance width="124"/>
  <unicode hex="003A"/>
  <outline>
    <contour>
      <point x="97" y="243" type="curve" smooth="yes"/>
      <point x="98" y="221"/>
      <point x="101" y="205"/>
      <point x="62" y="201" type="curve" smooth="yes"/>
      <point x="40" y="198"/>
      <point x="23" y="222"/>
      <point x="25" y="245" type="curve" smooth="yes"/>
      <point x="27" y="264"/>
      <point x="32" y="282"/>
      <point x="62" y="280" type="curve" smooth="yes"/>
      <point x="82" y="279"/>
      <point x="96" y="263"/>
    </contour>
    <contour>
      <point x="97" y="43" type="curve" smooth="yes"/>
      <point x="98" y="21"/>
      <point x="101" y="5"/>
      <point x="62" y="1" type="curve" smooth="yes"/>
      <point x="40" y="-2"/>
      <point x="23" y="22"/>
      <point x="25" y="45" type="curve" smooth="yes"/>
      <point x="27" y="64"/>
      <point x="32" y="82"/>
      <point x="62" y="80" type="curve" smooth="yes"/>
      <point x="82" y="79"/>
      <point x="96" y="63"/>
    </contour>
  </outline>
</glyph>
<glyph name="semicolon" format="1">
  <advance width="124"/>
  <unicode hex="003B"/>
  <outline>
    <contour>
      <point x="97" y="243" type="curve" smooth="yes"/>
      <point x="98" y="221"/>
      <point x="101" y="205"/>
      <point x="62" y="201" type="curve" smooth="yes"/>
      <point x="40" y="198"/>
      <point x="23" y="222"/>
      <point x="25" y="245" type="curve" smooth="yes"/>
      <point x="27" y="264"/>
      <point x="32" y="282"/>
      <point x="62" y="280" type="curve" smooth="yes"/>
      <point x="82" y="279"/>
      <point x="96" y="263"/>
    </contour>
    <contour>
      <point x="97" y="43" type="curve" smooth="yes"/>
      <point x="97" y="35"/>
      <point x="95" y="16"/>
      <point x="89" y="-1" type="curve" smooth="yes"/>
      <point x="77" y="-34"/>
      <point x="58" y="-75"/>
      <point x="43" y="-73" type="curve" smooth="yes"/>
      <point x="29" y="-71"/>
      <point x="39" y="-37"/>
      <point x="44" y="-10" type="curve" smooth="yes"/>
      <point x="47" y="8"/>
      <point x="43" y="9"/>
      <point x="35" y="16" type="curve" smooth="yes"/>
      <point x="29" y="21"/>
      <point x="25" y="29"/>
      <point x="25" y="45" type="curve" smooth="yes"/>
      <point x="25" y="64"/>
      <point x="32" y="82"/>
      <point x="62" y="80" type="curve" smooth="yes"/>
      <point x="82" y="79"/>
      <point x="96" y="63"/>
    </contour>
  </outline>
</glyph>
<glyph name="less" format="1">
  <advance width="248"/>
  <unicode hex="003C"/>
  <outline>
    <contour>
      <point x="199" y="427" type="curve" smooth="yes"/>
      <point x="157" y="384"/>
      <point x="84" y="305"/>
      <point x="84" y="296" type="curve" smooth="yes"/>
      <point x="84" y="288"/>
      <point x="151" y="214"/>
      <point x="197" y="166" type="curve" smooth="yes"/>
      <point x="213" y="148"/>
      <point x="201" y="140"/>
      <point x="193" y="133" type="curve" smooth="yes"/>
      <point x="184" y="125"/>
      <point x="186" y="127"/>
      <point x="174" y="121" type="curve"/>
      <point x="163" y="114"/>
      <point x="18" y="282"/>
      <point x="18" y="296" type="curve" smooth="yes"/>
      <point x="18" y="311"/>
      <point x="166" y="479"/>
      <point x="176" y="472" type="curve"/>
      <point x="188" y="466"/>
      <point x="188" y="466"/>
      <point x="196" y="459" type="curve" smooth="yes"/>
      <point x="205" y="451"/>
      <point x="216" y="444"/>
    </contour>
  </outline>
</glyph>
<glyph name="equal" format="1">
  <advance width="226"/>
  <unicode hex="003D"/>
  <outline>
    <contour>
      <point x="209" y="342" type="curve" smooth="yes"/>
      <point x="196" y="336"/>
      <point x="185" y="338"/>
      <point x="172" y="337" type="curve" smooth="yes"/>
      <point x="138" y="334"/>
      <point x="97" y="334"/>
      <point x="62" y="335" type="curve" smooth="yes"/>
      <point x="45" y="335"/>
      <point x="36" y="336"/>
      <point x="19" y="340" type="curve" smooth="yes"/>
      <point x="13" y="341"/>
      <point x="14" y="370"/>
      <point x="20" y="372" type="curve" smooth="yes"/>
      <point x="35" y="376"/>
      <point x="43" y="374"/>
      <point x="57" y="374" type="curve" smooth="yes"/>
      <point x="88" y="375"/>
      <point x="127" y="373"/>
      <point x="157" y="373" type="curve" smooth="yes"/>
      <point x="175" y="373"/>
      <point x="187" y="372"/>
      <point x="205" y="372" type="curve" smooth="yes"/>
      <point x="210" y="372"/>
      <point x="214" y="344"/>
    </contour>
    <contour>
      <point x="208" y="224" type="curve" smooth="yes"/>
      <point x="195" y="218"/>
      <point x="184" y="220"/>
      <point x="171" y="219" type="curve" smooth="yes"/>
      <point x="137" y="216"/>
      <point x="96" y="216"/>
      <point x="61" y="217" type="curve" smooth="yes"/>
      <point x="44" y="217"/>
      <point x="35" y="217"/>
      <point x="18" y="221" type="curve" smooth="yes"/>
      <point x="12" y="222"/>
      <point x="13" y="252"/>
      <point x="19" y="254" type="curve" smooth="yes"/>
      <point x="34" y="258"/>
      <point x="42" y="256"/>
      <point x="56" y="256" type="curve" smooth="yes"/>
      <point x="87" y="257"/>
      <point x="126" y="255"/>
      <point x="156" y="255" type="curve" smooth="yes"/>
      <point x="174" y="255"/>
      <point x="186" y="254"/>
      <point x="204" y="254" type="curve" smooth="yes"/>
      <point x="209" y="254"/>
      <point x="213" y="226"/>
    </contour>
  </outline>
</glyph>
<glyph name="greater" format="1">
  <advance width="248"/>
  <unicode hex="003E"/>
  <outline>
    <contour>
      <point x="230" y="296" type="curve" smooth="yes"/>
      <point x="230" y="282"/>
      <point x="85" y="114"/>
      <point x="74" y="121" type="curve"/>
      <point x="62" y="127"/>
      <point x="61" y="129"/>
      <point x="53" y="136" type="curve" smooth="yes"/>
      <point x="44" y="144"/>
      <point x="31" y="148"/>
      <point x="48" y="166" type="curve" smooth="yes"/>
      <point x="93" y="214"/>
      <point x="161" y="288"/>
      <point x="161" y="296" type="curve" smooth="yes"/>
      <point x="161" y="305"/>
      <point x="87" y="384"/>
      <point x="45" y="427" type="curve" smooth="yes"/>
      <point x="29" y="444"/>
      <point x="42" y="451"/>
      <point x="50" y="458" type="curve" smooth="yes"/>
      <point x="59" y="466"/>
      <point x="60" y="466"/>
      <point x="72" y="472" type="curve"/>
      <point x="83" y="479"/>
      <point x="230" y="311"/>
    </contour>
  </outline>
</glyph>
<glyph name="question" format="1">
  <advance width="270"/>
  <unicode hex="003F"/>
  <outline>
    <contour>
      <point x="240" y="495" type="curve" smooth="yes"/>
      <point x="240" y="443"/>
      <point x="223" y="404"/>
      <point x="193" y="366" type="curve" smooth="yes"/>
      <point x="157" y="320"/>
      <point x="161" y="260"/>
      <point x="161" y="185" type="curve" smooth="yes"/>
      <point x="161" y="172"/>
      <point x="155" y="170"/>
      <point x="129" y="170" type="curve" smooth="yes"/>
      <point x="105" y="170"/>
      <point x="100" y="170"/>
      <point x="100" y="184" type="curve" smooth="yes"/>
      <point x="100" y="276"/>
      <point x="102" y="354"/>
      <point x="152" y="421" type="curve" smooth="yes"/>
      <point x="174" y="450"/>
      <point x="178" y="471"/>
      <point x="178" y="503" type="curve" smooth="yes"/>
      <point x="178" y="538"/>
      <point x="178" y="564"/>
      <point x="178" y="596" type="curve" smooth="yes"/>
      <point x="178" y="626"/>
      <point x="160" y="641"/>
      <point x="126" y="641" type="curve" smooth="yes"/>
      <point x="98" y="641"/>
      <point x="82" y="620"/>
      <point x="82" y="597" type="curve" smooth="yes"/>
      <point x="82" y="583"/>
      <point x="82" y="558"/>
      <point x="82" y="543" type="curve" smooth="yes"/>
      <point x="82" y="532"/>
      <point x="75" y="529"/>
      <point x="51" y="529" type="curve" smooth="yes"/>
      <point x="25" y="529"/>
      <point x="20" y="531"/>
      <point x="20" y="543" type="curve" smooth="yes"/>
      <point x="20" y="566"/>
      <point x="20" y="580"/>
      <point x="20" y="599" type="curve" smooth="yes"/>
      <point x="20" y="645"/>
      <point x="55" y="700"/>
      <point x="127" y="700" type="curve" smooth="yes"/>
      <point x="203" y="700"/>
      <point x="240" y="649"/>
      <point x="240" y="601" type="curve" smooth="yes"/>
      <point x="240" y="563"/>
      <point x="240" y="535"/>
    </contour>
    <contour>
      <point x="169" y="38" type="curve" smooth="yes"/>
      <point x="168" y="15"/>
      <point x="152" y="-3"/>
      <point x="129" y="-5" type="curve" smooth="yes"/>
      <point x="95" y="-7"/>
      <point x="89" y="14"/>
      <point x="87" y="36" type="curve" smooth="yes"/>
      <point x="84" y="62"/>
      <point x="104" y="89"/>
      <point x="129" y="86" type="curve" smooth="yes"/>
      <point x="174" y="81"/>
      <point x="171" y="63"/>
    </contour>
  </outline>
</glyph>
<glyph name="A" format="1">
  <advance width="255"/>
  <unicode hex="0041"/>
  <outline>
    <contour>
      <point x="245" y="10" type="curve" smooth="yes"/>
      <point x="246" y="-1"/>
      <point x="241" y="0"/>
      <point x="214" y="0" type="curve" smooth="yes"/>
      <point x="185" y="0"/>
      <point x="180" y="-2"/>
      <point x="178" y="12" type="curve" smooth="yes"/>
      <point x="170" y="68"/>
      <point x="164" y="118"/>
      <point x="156" y="173" type="curve" smooth="yes"/>
      <point x="155" y="183"/>
      <point x="141" y="182"/>
      <point x="125" y="182" type="curve" smooth="yes"/>
      <point x="106" y="182"/>
      <point x="96" y="183"/>
      <point x="95" y="173" type="curve" smooth="yes"/>
      <point x="89" y="117"/>
      <point x="84" y="68"/>
      <point x="79" y="10" type="curve" smooth="yes"/>
      <point x="78" y="-1"/>
      <point x="69" y="0"/>
      <point x="37" y="0" type="curve" smooth="yes"/>
      <point x="22" y="0"/>
      <point x="9" y="0"/>
      <point x="10" y="9" type="curve" smooth="yes"/>
      <point x="41" y="269"/>
      <point x="68" y="461"/>
      <point x="96" y="686" type="curve" smooth="yes"/>
      <point x="98" y="700"/>
      <point x="103" y="701"/>
      <point x="125" y="701" type="curve" smooth="yes"/>
      <point x="150" y="701"/>
      <point x="158" y="700"/>
      <point x="160" y="683" type="curve" smooth="yes"/>
      <point x="194" y="427"/>
      <point x="211" y="271"/>
    </contour>
    <contour>
      <point x="148" y="245" type="curve" smooth="yes"/>
      <point x="141" y="331"/>
      <point x="138" y="386"/>
      <point x="132" y="465" type="curve" smooth="yes"/>
      <point x="132" y="469"/>
      <point x="131" y="476"/>
      <point x="125" y="476" type="curve" smooth="yes"/>
      <point x="120" y="476"/>
      <point x="119" y="469"/>
      <point x="119" y="466" type="curve" smooth="yes"/>
      <point x="113" y="382"/>
      <point x="109" y="312"/>
      <point x="104" y="246" type="curve" smooth="yes"/>
      <point x="103" y="239"/>
      <point x="112" y="237"/>
      <point x="126" y="237" type="curve" smooth="yes"/>
      <point x="138" y="237"/>
      <point x="149" y="237"/>
    </contour>
  </outline>
</glyph>
<glyph name="B" format="1">
  <advance width="297"/>
  <unicode hex="0042"/>
  <outline>
    <contour>
      <point x="272" y="141" type="curve" smooth="yes"/>
      <point x="272" y="116"/>
      <point x="272" y="85"/>
      <point x="236" y="43" type="curve" smooth="yes"/>
      <point x="202" y="5"/>
      <point x="155" y="0"/>
      <point x="131" y="0" type="curve" smooth="yes"/>
      <point x="113" y="0"/>
      <point x="100" y="-1"/>
      <point x="82" y="0" type="curve" smooth="yes"/>
      <point x="70" y="1"/>
      <point x="52" y="-1"/>
      <point x="48" y="5" type="curve" smooth="yes"/>
      <point x="42" y="14"/>
      <point x="40" y="12"/>
      <point x="40" y="39" type="curve" smooth="yes"/>
      <point x="40" y="275"/>
      <point x="40" y="431"/>
      <point x="40" y="669" type="curve" smooth="yes"/>
      <point x="40" y="679"/>
      <point x="40" y="688"/>
      <point x="46" y="694" type="curve" smooth="yes"/>
      <point x="54" y="701"/>
      <point x="62" y="700"/>
      <point x="70" y="700" type="curve" smooth="yes"/>
      <point x="91" y="700"/>
      <point x="106" y="700"/>
      <point x="127" y="700" type="curve" smooth="yes"/>
      <point x="158" y="700"/>
      <point x="202" y="692"/>
      <point x="232" y="665" type="curve" smooth="yes"/>
      <point x="262" y="637"/>
      <point x="269" y="597"/>
      <point x="269" y="561" type="curve" smooth="yes"/>
      <point x="269" y="527"/>
      <point x="269" y="505"/>
      <point x="269" y="471" type="curve" smooth="yes"/>
      <point x="269" y="447"/>
      <point x="270" y="430"/>
      <point x="258" y="408" type="curve" smooth="yes"/>
      <point x="243" y="380"/>
      <point x="212" y="372"/>
      <point x="212" y="368" type="curve" smooth="yes"/>
      <point x="212" y="364"/>
      <point x="246" y="358"/>
      <point x="261" y="328" type="curve" smooth="yes"/>
      <point x="273" y="304"/>
      <point x="272" y="289"/>
      <point x="272" y="265" type="curve" smooth="yes"/>
      <point x="272" y="218"/>
      <point x="272" y="188"/>
    </contour>
    <contour>
      <point x="204" y="466" type="curve" smooth="yes"/>
      <point x="204" y="502"/>
      <point x="204" y="525"/>
      <point x="204" y="561" type="curve" smooth="yes"/>
      <point x="204" y="584"/>
      <point x="201" y="601"/>
      <point x="183" y="619" type="curve" smooth="yes"/>
      <point x="172" y="630"/>
      <point x="165" y="634"/>
      <point x="137" y="634" type="curve" smooth="yes"/>
      <point x="123" y="634"/>
      <point x="112" y="634"/>
      <point x="108" y="627" type="curve" smooth="yes"/>
      <point x="105" y="621"/>
      <point x="105" y="616"/>
      <point x="105" y="610" type="curve" smooth="yes"/>
      <point x="105" y="538"/>
      <point x="105" y="493"/>
      <point x="105" y="423" type="curve" smooth="yes"/>
      <point x="105" y="412"/>
      <point x="104" y="403"/>
      <point x="111" y="396" type="curve" smooth="yes"/>
      <point x="117" y="390"/>
      <point x="121" y="391"/>
      <point x="129" y="391" type="curve" smooth="yes"/>
      <point x="143" y="391"/>
      <point x="166" y="394"/>
      <point x="184" y="413" type="curve" smooth="yes"/>
      <point x="204" y="435"/>
      <point x="204" y="450"/>
    </contour>
    <contour>
      <point x="208" y="140" type="curve" smooth="yes"/>
      <point x="208" y="188"/>
      <point x="208" y="222"/>
      <point x="208" y="268" type="curve" smooth="yes"/>
      <point x="208" y="314"/>
      <point x="181" y="334"/>
      <point x="151" y="334" type="curve" smooth="yes"/>
      <point x="108" y="334"/>
      <point x="105" y="331"/>
      <point x="105" y="307" type="curve" smooth="yes"/>
      <point x="105" y="245"/>
      <point x="105" y="176"/>
      <point x="105" y="97" type="curve" smooth="yes"/>
      <point x="105" y="86"/>
      <point x="106" y="67"/>
      <point x="115" y="66" type="curve" smooth="yes"/>
      <point x="123" y="65"/>
      <point x="124" y="65"/>
      <point x="133" y="65" type="curve" smooth="yes"/>
      <point x="144" y="65"/>
      <point x="169" y="68"/>
      <point x="187" y="87" type="curve" smooth="yes"/>
      <point x="207" y="109"/>
      <point x="208" y="123"/>
    </contour>
  </outline>
</glyph>
<glyph name="C" format="1">
  <advance width="287"/>
  <unicode hex="0043"/>
  <outline>
    <contour>
      <point x="267" y="117" type="curve" smooth="yes"/>
      <point x="267" y="54"/>
      <point x="233" y="0"/>
      <point x="151" y="0" type="curve" smooth="yes"/>
      <point x="73" y="0"/>
      <point x="35" y="63"/>
      <point x="35" y="116" type="curve" smooth="yes"/>
      <point x="35" y="267"/>
      <point x="35" y="430"/>
      <point x="35" y="582" type="curve" smooth="yes"/>
      <point x="35" y="636"/>
      <point x="73" y="700"/>
      <point x="151" y="700" type="curve" smooth="yes"/>
      <point x="234" y="700"/>
      <point x="267" y="625"/>
      <point x="267" y="582" type="curve" smooth="yes"/>
      <point x="267" y="569"/>
      <point x="267" y="552"/>
      <point x="267" y="537" type="curve" smooth="yes"/>
      <point x="267" y="527"/>
      <point x="252" y="526"/>
      <point x="234" y="526" type="curve" smooth="yes"/>
      <point x="214" y="526"/>
      <point x="200" y="525"/>
      <point x="200" y="537" type="curve" smooth="yes"/>
      <point x="200" y="551"/>
      <point x="200" y="570"/>
      <point x="200" y="584" type="curve" smooth="yes"/>
      <point x="200" y="606"/>
      <point x="181" y="638"/>
      <point x="151" y="638" type="curve" smooth="yes"/>
      <point x="120" y="638"/>
      <point x="100" y="608"/>
      <point x="100" y="585" type="curve" smooth="yes"/>
      <point x="100" y="443"/>
      <point x="100" y="266"/>
      <point x="100" y="122" type="curve" smooth="yes"/>
      <point x="100" y="94"/>
      <point x="114" y="67"/>
      <point x="151" y="67" type="curve" smooth="yes"/>
      <point x="185" y="67"/>
      <point x="200" y="92"/>
      <point x="200" y="119" type="curve" smooth="yes"/>
      <point x="200" y="138"/>
      <point x="200" y="159"/>
      <point x="200" y="178" type="curve" smooth="yes"/>
      <point x="200" y="186"/>
      <point x="213" y="186"/>
      <point x="231" y="186" type="curve" smooth="yes"/>
      <point x="255" y="186"/>
      <point x="267" y="188"/>
      <point x="267" y="178" type="curve" smooth="yes"/>
      <point x="267" y="158"/>
      <point x="267" y="136"/>
    </contour>
  </outline>
</glyph>
<glyph name="D" format="1">
  <advance width="307"/>
  <unicode hex="0044"/>
  <outline>
    <contour>
      <point x="272" y="141" type="curve" smooth="yes"/>
      <point x="272" y="117"/>
      <point x="272" y="85"/>
      <point x="236" y="43" type="curve" smooth="yes"/>
      <point x="202" y="5"/>
      <point x="154" y="0"/>
      <point x="131" y="0" type="curve" smooth="yes"/>
      <point x="108" y="0"/>
      <point x="92" y="0"/>
      <point x="69" y="0" type="curve" smooth="yes"/>
      <point x="59" y="0"/>
      <point x="50" y="-1"/>
      <point x="45" y="7" type="curve" smooth="yes"/>
      <point x="40" y="14"/>
      <point x="40" y="25"/>
      <point x="40" y="32" type="curve" smooth="yes"/>
      <point x="40" y="278"/>
      <point x="40" y="429"/>
      <point x="40" y="669" type="curve" smooth="yes"/>
      <point x="40" y="679"/>
      <point x="40" y="689"/>
      <point x="46" y="695" type="curve" smooth="yes"/>
      <point x="54" y="702"/>
      <point x="62" y="700"/>
      <point x="70" y="700" type="curve" smooth="yes"/>
      <point x="92" y="700"/>
      <point x="108" y="700"/>
      <point x="130" y="700" type="curve" smooth="yes"/>
      <point x="162" y="700"/>
      <point x="205" y="692"/>
      <point x="235" y="665" type="curve" smooth="yes"/>
      <point x="265" y="637"/>
      <point x="272" y="597"/>
      <point x="272" y="561" type="curve" smooth="yes"/>
      <point x="272" y="403"/>
      <point x="272" y="298"/>
    </contour>
    <contour>
      <point x="207" y="140" type="curve" smooth="yes"/>
      <point x="207" y="295"/>
      <point x="207" y="405"/>
      <point x="207" y="561" type="curve" smooth="yes"/>
      <point x="207" y="583"/>
      <point x="204" y="601"/>
      <point x="186" y="619" type="curve" smooth="yes"/>
      <point x="175" y="630"/>
      <point x="167" y="634"/>
      <point x="140" y="634" type="curve" smooth="yes"/>
      <point x="122" y="634"/>
      <point x="112" y="634"/>
      <point x="108" y="627" type="curve" smooth="yes"/>
      <point x="105" y="621"/>
      <point x="105" y="616"/>
      <point x="105" y="610" type="curve" smooth="yes"/>
      <point x="105" y="413"/>
      <point x="105" y="288"/>
      <point x="105" y="97" type="curve" smooth="yes"/>
      <point x="105" y="86"/>
      <point x="104" y="75"/>
      <point x="111" y="68" type="curve" smooth="yes"/>
      <point x="115" y="64"/>
      <point x="130" y="65"/>
      <point x="134" y="65" type="curve" smooth="yes"/>
      <point x="145" y="65"/>
      <point x="169" y="68"/>
      <point x="187" y="87" type="curve" smooth="yes"/>
      <point x="207" y="109"/>
      <point x="207" y="125"/>
    </contour>
  </outline>
</glyph>
<glyph name="E" format="1">
  <advance width="263"/>
  <unicode hex="0045"/>
  <outline>
    <contour>
      <point x="248" y="28" type="curve" smooth="yes"/>
      <point x="248" y="6"/>
      <point x="247" y="0"/>
      <point x="236" y="0" type="curve" smooth="yes"/>
      <point x="193" y="0"/>
      <point x="129" y="0"/>
      <point x="86" y="0" type="curve" smooth="yes"/>
      <point x="70" y="0"/>
      <point x="53" y="-2"/>
      <point x="46" y="4" type="curve" smooth="yes"/>
      <point x="38" y="11"/>
      <point x="40" y="26"/>
      <point x="40" y="38" type="curve" smooth="yes"/>
      <point x="40" y="278"/>
      <point x="40" y="430"/>
      <point x="40" y="670" type="curve" smooth="yes"/>
      <point x="40" y="683"/>
      <point x="41" y="684"/>
      <point x="47" y="692" type="curve" smooth="yes"/>
      <point x="53" y="700"/>
      <point x="60" y="700"/>
      <point x="70" y="700" type="curve" smooth="yes"/>
      <point x="125" y="700"/>
      <point x="181" y="700"/>
      <point x="236" y="700" type="curve" smooth="yes"/>
      <point x="248" y="700"/>
      <point x="248" y="688"/>
      <point x="248" y="670" type="curve" smooth="yes"/>
      <point x="248" y="651"/>
      <point x="248" y="643"/>
      <point x="235" y="643" type="curve" smooth="yes"/>
      <point x="208" y="643"/>
      <point x="154" y="643"/>
      <point x="135" y="643" type="curve" smooth="yes"/>
      <point x="127" y="643"/>
      <point x="115" y="642"/>
      <point x="112" y="638" type="curve" smooth="yes"/>
      <point x="107" y="631"/>
      <point x="107" y="632"/>
      <point x="107" y="619" type="curve" smooth="yes"/>
      <point x="107" y="552"/>
      <point x="107" y="496"/>
      <point x="107" y="429" type="curve" smooth="yes"/>
      <point x="107" y="420"/>
      <point x="105" y="409"/>
      <point x="113" y="403" type="curve" smooth="yes"/>
      <point x="120" y="398"/>
      <point x="127" y="399"/>
      <point x="135" y="399" type="curve" smooth="yes"/>
      <point x="152" y="399"/>
      <point x="173" y="399"/>
      <point x="182" y="399" type="curve" smooth="yes"/>
      <point x="194" y="399"/>
      <point x="196" y="391"/>
      <point x="196" y="370" type="curve" smooth="yes"/>
      <point x="196" y="350"/>
      <point x="195" y="342"/>
      <point x="182" y="342" type="curve" smooth="yes"/>
      <point x="174" y="342"/>
      <point x="155" y="342"/>
      <point x="137" y="342" type="curve" smooth="yes"/>
      <point x="127" y="342"/>
      <point x="116" y="341"/>
      <point x="112" y="339" type="curve"/>
      <point x="103" y="333"/>
      <point x="105" y="323"/>
      <point x="105" y="310" type="curve" smooth="yes"/>
      <point x="105" y="230"/>
      <point x="105" y="175"/>
      <point x="105" y="95" type="curve" smooth="yes"/>
      <point x="105" y="82"/>
      <point x="105" y="63"/>
      <point x="110" y="60" type="curve" smooth="yes"/>
      <point x="115" y="57"/>
      <point x="129" y="56"/>
      <point x="140" y="56" type="curve" smooth="yes"/>
      <point x="167" y="56"/>
      <point x="208" y="56"/>
      <point x="235" y="56" type="curve" smooth="yes"/>
      <point x="247" y="56"/>
      <point x="248" y="50"/>
    </contour>
  </outline>
</glyph>
<glyph name="F" format="1">
  <advance width="258"/>
  <unicode hex="0046"/>
  <outline>
    <contour>
      <point x="248" y="670" type="curve" smooth="yes"/>
      <point x="248" y="649"/>
      <point x="246" y="643"/>
      <point x="229" y="643" type="curve" smooth="yes"/>
      <point x="210" y="643"/>
      <point x="155" y="643"/>
      <point x="135" y="643" type="curve" smooth="yes"/>
      <point x="127" y="643"/>
      <point x="119" y="643"/>
      <point x="114" y="641" type="curve"/>
      <point x="105" y="634"/>
      <point x="107" y="617"/>
      <point x="107" y="604" type="curve" smooth="yes"/>
      <point x="107" y="531"/>
      <point x="107" y="488"/>
      <point x="107" y="415" type="curve" smooth="yes"/>
      <point x="107" y="406"/>
      <point x="106" y="396"/>
      <point x="112" y="390" type="curve" smooth="yes"/>
      <point x="118" y="384"/>
      <point x="127" y="386"/>
      <point x="135" y="385" type="curve" smooth="yes"/>
      <point x="151" y="383"/>
      <point x="179" y="384"/>
      <point x="188" y="384" type="curve" smooth="yes"/>
      <point x="204" y="384"/>
      <point x="206" y="375"/>
      <point x="206" y="354" type="curve" smooth="yes"/>
      <point x="206" y="332"/>
      <point x="204" y="324"/>
      <point x="188" y="324" type="curve" smooth="yes"/>
      <point x="180" y="324"/>
      <point x="153" y="325"/>
      <point x="137" y="324" type="curve" smooth="yes"/>
      <point x="127" y="324"/>
      <point x="116" y="324"/>
      <point x="112" y="321" type="curve" smooth="yes"/>
      <point x="103" y="315"/>
      <point x="105" y="298"/>
      <point x="105" y="285" type="curve" smooth="yes"/>
      <point x="105" y="189"/>
      <point x="105" y="94"/>
      <point x="105" y="15" type="curve" smooth="yes"/>
      <point x="105" y="0"/>
      <point x="94" y="1"/>
      <point x="71" y="1" type="curve" smooth="yes"/>
      <point x="50" y="1"/>
      <point x="40" y="1"/>
      <point x="40" y="14" type="curve" smooth="yes"/>
      <point x="40" y="254"/>
      <point x="40" y="428"/>
      <point x="40" y="668" type="curve" smooth="yes"/>
      <point x="40" y="681"/>
      <point x="39" y="685"/>
      <point x="45" y="692" type="curve" smooth="yes"/>
      <point x="52" y="700"/>
      <point x="54" y="700"/>
      <point x="64" y="700" type="curve" smooth="yes"/>
      <point x="118" y="700"/>
      <point x="180" y="700"/>
      <point x="235" y="700" type="curve" smooth="yes"/>
      <point x="248" y="700"/>
      <point x="248" y="690"/>
    </contour>
  </outline>
</glyph>
<glyph name="G" format="1">
  <advance width="302"/>
  <unicode hex="0047"/>
  <outline>
    <contour>
      <point x="267" y="22" type="curve" smooth="yes"/>
      <point x="267" y="15"/>
      <point x="268" y="7"/>
      <point x="262" y="1" type="curve" smooth="yes"/>
      <point x="257" y="-4"/>
      <point x="249" y="1"/>
      <point x="240" y="1" type="curve" smooth="yes"/>
      <point x="232" y="1"/>
      <point x="236" y="23"/>
      <point x="222" y="32" type="curve" smooth="yes"/>
      <point x="211" y="39"/>
      <point x="200" y="0"/>
      <point x="151" y="0" type="curve" smooth="yes"/>
      <point x="66" y="0"/>
      <point x="35" y="70"/>
      <point x="35" y="116" type="curve" smooth="yes"/>
      <point x="35" y="267"/>
      <point x="35" y="430"/>
      <point x="35" y="582" type="curve" smooth="yes"/>
      <point x="35" y="621"/>
      <point x="61" y="700"/>
      <point x="151" y="700" type="curve" smooth="yes"/>
      <point x="239" y="700"/>
      <point x="267" y="618"/>
      <point x="267" y="582" type="curve" smooth="yes"/>
      <point x="267" y="569"/>
      <point x="267" y="550"/>
      <point x="267" y="537" type="curve" smooth="yes"/>
      <point x="267" y="528"/>
      <point x="259" y="525"/>
      <point x="232" y="525" type="curve" smooth="yes"/>
      <point x="207" y="525"/>
      <point x="201" y="526"/>
      <point x="201" y="535" type="curve" smooth="yes"/>
      <point x="201" y="549"/>
      <point x="200" y="570"/>
      <point x="200" y="584" type="curve" smooth="yes"/>
      <point x="200" y="606"/>
      <point x="181" y="638"/>
      <point x="151" y="638" type="curve" smooth="yes"/>
      <point x="120" y="638"/>
      <point x="100" y="606"/>
      <point x="100" y="585" type="curve" smooth="yes"/>
      <point x="100" y="443"/>
      <point x="100" y="264"/>
      <point x="100" y="120" type="curve" smooth="yes"/>
      <point x="100" y="95"/>
      <point x="111" y="65"/>
      <point x="151" y="65" type="curve" smooth="yes"/>
      <point x="190" y="65"/>
      <point x="200" y="96"/>
      <point x="200" y="117" type="curve" smooth="yes"/>
      <point x="200" y="173"/>
      <point x="200" y="225"/>
      <point x="200" y="289" type="curve" smooth="yes"/>
      <point x="200" y="294"/>
      <point x="201" y="300"/>
      <point x="196" y="304" type="curve" smooth="yes"/>
      <point x="189" y="309"/>
      <point x="168" y="306"/>
      <point x="158" y="306" type="curve" smooth="yes"/>
      <point x="150" y="306"/>
      <point x="149" y="314"/>
      <point x="149" y="335" type="curve" smooth="yes"/>
      <point x="149" y="357"/>
      <point x="150" y="366"/>
      <point x="157" y="366" type="curve" smooth="yes"/>
      <point x="184" y="366"/>
      <point x="255" y="369"/>
      <point x="266" y="367" type="curve" smooth="yes"/>
      <point x="270" y="366"/>
      <point x="267" y="359"/>
      <point x="267" y="355" type="curve" smooth="yes"/>
      <point x="267" y="226"/>
      <point x="267" y="148"/>
    </contour>
  </outline>
</glyph>
<glyph name="H" format="1">
  <advance width="312"/>
  <unicode hex="0048"/>
  <outline>
    <contour>
      <point x="272" y="21" type="curve" smooth="yes"/>
      <point x="272" y="3"/>
      <point x="273" y="1"/>
      <point x="240" y="1" type="curve" smooth="yes"/>
      <point x="210" y="1"/>
      <point x="207" y="2"/>
      <point x="207" y="21" type="curve" smooth="yes"/>
      <point x="207" y="116"/>
      <point x="207" y="199"/>
      <point x="207" y="294" type="curve" smooth="yes"/>
      <point x="207" y="306"/>
      <point x="208" y="326"/>
      <point x="201" y="328" type="curve"/>
      <point x="190" y="334"/>
      <point x="115" y="330"/>
      <point x="111" y="327" type="curve" smooth="yes"/>
      <point x="102" y="321"/>
      <point x="104" y="304"/>
      <point x="104" y="291" type="curve" smooth="yes"/>
      <point x="104" y="194"/>
      <point x="104" y="114"/>
      <point x="104" y="17" type="curve" smooth="yes"/>
      <point x="104" y="1"/>
      <point x="98" y="1"/>
      <point x="70" y="1" type="curve" smooth="yes"/>
      <point x="44" y="1"/>
      <point x="40" y="1"/>
      <point x="40" y="15" type="curve" smooth="yes"/>
      <point x="40" y="266"/>
      <point x="40" y="441"/>
      <point x="40" y="681" type="curve" smooth="yes"/>
      <point x="40" y="694"/>
      <point x="44" y="699"/>
      <point x="70" y="699" type="curve" smooth="yes"/>
      <point x="98" y="699"/>
      <point x="105" y="695"/>
      <point x="105" y="680" type="curve" smooth="yes"/>
      <point x="105" y="598"/>
      <point x="105" y="525"/>
      <point x="105" y="444" type="curve" smooth="yes"/>
      <point x="105" y="427"/>
      <point x="102" y="407"/>
      <point x="117" y="399" type="curve"/>
      <point x="125" y="396"/>
      <point x="190" y="393"/>
      <point x="200" y="399" type="curve" smooth="yes"/>
      <point x="209" y="405"/>
      <point x="207" y="426"/>
      <point x="207" y="441" type="curve" smooth="yes"/>
      <point x="207" y="525"/>
      <point x="207" y="612"/>
      <point x="207" y="684" type="curve" smooth="yes"/>
      <point x="207" y="702"/>
      <point x="215" y="699"/>
      <point x="239" y="699" type="curve" smooth="yes"/>
      <point x="267" y="699"/>
      <point x="272" y="699"/>
      <point x="272" y="683" type="curve" smooth="yes"/>
      <point x="272" y="446"/>
      <point x="272" y="268"/>
    </contour>
  </outline>
</glyph>
<glyph name="I" format="1">
  <advance width="144"/>
  <unicode hex="0049"/>
  <outline>
    <contour>
      <point x="104" y="17" type="curve" smooth="yes"/>
      <point x="104" y="2"/>
      <point x="102" y="1"/>
      <point x="70" y="1" type="curve" smooth="yes"/>
      <point x="43" y="1"/>
      <point x="40" y="1"/>
      <point x="40" y="15" type="curve" smooth="yes"/>
      <point x="40" y="266"/>
      <point x="40" y="444"/>
      <point x="40" y="684" type="curve" smooth="yes"/>
      <point x="40" y="697"/>
      <point x="46" y="699"/>
      <point x="70" y="699" type="curve" smooth="yes"/>
      <point x="97" y="699"/>
      <point x="104" y="698"/>
      <point x="104" y="683" type="curve" smooth="yes"/>
      <point x="104" y="444"/>
      <point x="104" y="267"/>
    </contour>
  </outline>
</glyph>
<glyph name="J" format="1">
  <advance width="257"/>
  <unicode hex="004A"/>
  <outline>
    <contour>
      <point x="227" y="116" type="curve" smooth="yes"/>
      <point x="227" y="54"/>
      <point x="202" y="0"/>
      <point x="121" y="0" type="curve" smooth="yes"/>
      <point x="40" y="0"/>
      <point x="15" y="67"/>
      <point x="15" y="115" type="curve" smooth="yes"/>
      <point x="15" y="135"/>
      <point x="15" y="159"/>
      <point x="15" y="180" type="curve" smooth="yes"/>
      <point x="15" y="190"/>
      <point x="28" y="188"/>
      <point x="45" y="188" type="curve" smooth="yes"/>
      <point x="62" y="188"/>
      <point x="80" y="187"/>
      <point x="80" y="180" type="curve" smooth="yes"/>
      <point x="80" y="162"/>
      <point x="80" y="138"/>
      <point x="80" y="120" type="curve" smooth="yes"/>
      <point x="80" y="95"/>
      <point x="82" y="67"/>
      <point x="121" y="67" type="curve" smooth="yes"/>
      <point x="160" y="67"/>
      <point x="162" y="94"/>
      <point x="162" y="119" type="curve" smooth="yes"/>
      <point x="162" y="295"/>
      <point x="162" y="474"/>
      <point x="162" y="686" type="curve" smooth="yes"/>
      <point x="162" y="697"/>
      <point x="169" y="699"/>
      <point x="192" y="699" type="curve" smooth="yes"/>
      <point x="217" y="699"/>
      <point x="227" y="698"/>
      <point x="227" y="687" type="curve" smooth="yes"/>
      <point x="227" y="474"/>
      <point x="227" y="294"/>
    </contour>
  </outline>
</glyph>
<glyph name="K" format="1">
  <advance width="275"/>
  <unicode hex="004B"/>
  <outline>
    <contour>
      <point x="271" y="12" type="curve" smooth="yes"/>
      <point x="272" y="6"/>
      <point x="269" y="0"/>
      <point x="238" y="0" type="curve" smooth="yes"/>
      <point x="218" y="0"/>
      <point x="207" y="-2"/>
      <point x="203" y="14" type="curve" smooth="yes"/>
      <point x="176" y="122"/>
      <point x="159" y="188"/>
      <point x="133" y="296" type="curve" smooth="yes"/>
      <point x="131" y="305"/>
      <point x="124" y="307"/>
      <point x="112" y="280" type="curve" smooth="yes"/>
      <point x="106" y="266"/>
      <point x="104" y="253"/>
      <point x="104" y="238" type="curve" smooth="yes"/>
      <point x="104" y="162"/>
      <point x="104" y="94"/>
      <point x="104" y="18" type="curve" smooth="yes"/>
      <point x="104" y="2"/>
      <point x="100" y="0"/>
      <point x="71" y="0" type="curve" smooth="yes"/>
      <point x="45" y="0"/>
      <point x="40" y="2"/>
      <point x="40" y="16" type="curve" smooth="yes"/>
      <point x="40" y="267"/>
      <point x="40" y="445"/>
      <point x="40" y="685" type="curve" smooth="yes"/>
      <point x="40" y="698"/>
      <point x="48" y="699"/>
      <point x="70" y="699" type="curve" smooth="yes"/>
      <point x="93" y="699"/>
      <point x="104" y="699"/>
      <point x="104" y="684" type="curve" smooth="yes"/>
      <point x="104" y="602"/>
      <point x="104" y="522"/>
      <point x="104" y="442" type="curve" smooth="yes"/>
      <point x="104" y="435"/>
      <point x="103" y="420"/>
      <point x="109" y="422" type="curve" smooth="yes"/>
      <point x="112" y="423"/>
      <point x="114" y="434"/>
      <point x="116" y="441" type="curve" smooth="yes"/>
      <point x="144" y="537"/>
      <point x="157" y="589"/>
      <point x="185" y="686" type="curve" smooth="yes"/>
      <point x="188" y="697"/>
      <point x="195" y="696"/>
      <point x="221" y="696" type="curve" smooth="yes"/>
      <point x="247" y="696"/>
      <point x="256" y="692"/>
      <point x="254" y="686" type="curve" smooth="yes"/>
      <point x="224" y="579"/>
      <point x="210" y="532"/>
      <point x="181" y="431" type="curve" smooth="yes"/>
      <point x="178" y="419"/>
      <point x="177" y="408"/>
      <point x="177" y="398" type="curve" smooth="yes"/>
      <point x="177" y="389"/>
      <point x="179" y="375"/>
      <point x="182" y="362" type="curve" smooth="yes"/>
      <point x="217" y="223"/>
      <point x="234" y="160"/>
    </contour>
  </outline>
</glyph>
<glyph name="M" format="1">
  <advance width="348"/>
  <unicode hex="004D"/>
  <outline>
    <contour>
      <point x="308" y="18" type="curve" smooth="yes"/>
      <point x="308" y="2"/>
      <point x="305" y="0"/>
      <point x="275" y="0" type="curve" smooth="yes"/>
      <point x="249" y="0"/>
      <point x="243" y="2"/>
      <point x="243" y="18" type="curve" smooth="yes"/>
      <point x="243" y="145"/>
      <point x="243" y="240"/>
      <point x="243" y="367" type="curve" smooth="yes"/>
      <point x="243" y="406"/>
      <point x="243" y="469"/>
      <point x="236" y="469" type="curve" smooth="yes"/>
      <point x="229" y="469"/>
      <point x="226" y="458"/>
      <point x="224" y="452" type="curve" smooth="yes"/>
      <point x="210" y="398"/>
      <point x="202" y="371"/>
      <point x="187" y="319" type="curve" smooth="yes"/>
      <point x="185" y="312"/>
      <point x="184" y="304"/>
      <point x="173" y="304" type="curve" smooth="yes"/>
      <point x="164" y="304"/>
      <point x="161" y="312"/>
      <point x="159" y="318" type="curve" smooth="yes"/>
      <point x="147" y="365"/>
      <point x="138" y="396"/>
      <point x="124" y="450" type="curve" smooth="yes"/>
      <point x="122" y="457"/>
      <point x="118" y="466"/>
      <point x="110" y="466" type="curve" smooth="yes"/>
      <point x="104" y="466"/>
      <point x="105" y="405"/>
      <point x="105" y="367" type="curve" smooth="yes"/>
      <point x="105" y="240"/>
      <point x="105" y="145"/>
      <point x="105" y="18" type="curve" smooth="yes"/>
      <point x="105" y="2"/>
      <point x="99" y="0"/>
      <point x="73" y="0" type="curve" smooth="yes"/>
      <point x="45" y="0"/>
      <point x="40" y="2"/>
      <point x="40" y="18" type="curve" smooth="yes"/>
      <point x="40" y="268"/>
      <point x="40" y="448"/>
      <point x="40" y="685" type="curve" smooth="yes"/>
      <point x="40" y="701"/>
      <point x="49" y="699"/>
      <point x="68" y="699" type="curve" smooth="yes"/>
      <point x="90" y="699"/>
      <point x="94" y="694"/>
      <point x="110" y="644" type="curve" smooth="yes"/>
      <point x="130" y="581"/>
      <point x="145" y="535"/>
      <point x="162" y="482" type="curve" smooth="yes"/>
      <point x="164" y="477"/>
      <point x="168" y="471"/>
      <point x="174" y="471" type="curve" smooth="yes"/>
      <point x="179" y="471"/>
      <point x="184" y="477"/>
      <point x="186" y="482" type="curve" smooth="yes"/>
      <point x="207" y="545"/>
      <point x="217" y="578"/>
      <point x="238" y="644" type="curve" smooth="yes"/>
      <point x="253" y="692"/>
      <point x="255" y="700"/>
      <point x="277" y="700" type="curve" smooth="yes"/>
      <point x="299" y="700"/>
      <point x="308" y="700"/>
      <point x="308" y="685" type="curve" smooth="yes"/>
      <point x="308" y="448"/>
      <point x="308" y="268"/>
    </contour>
  </outline>
</glyph>
<glyph name="N" format="1">
  <advance width="312"/>
  <unicode hex="004E"/>
  <outline>
    <contour>
      <point x="272" y="41" type="curve" smooth="yes"/>
      <point x="272" y="5"/>
      <point x="271" y="0"/>
      <point x="247" y="0" type="curve" smooth="yes"/>
      <point x="232" y="0"/>
      <point x="219" y="5"/>
      <point x="211" y="39" type="curve" smooth="yes"/>
      <point x="181" y="166"/>
      <point x="165" y="238"/>
      <point x="133" y="362" type="curve" smooth="yes"/>
      <point x="126" y="388"/>
      <point x="118" y="435"/>
      <point x="112" y="435" type="curve" smooth="yes"/>
      <point x="106" y="435"/>
      <point x="105" y="423"/>
      <point x="105" y="417" type="curve" smooth="yes"/>
      <point x="105" y="279"/>
      <point x="105" y="164"/>
      <point x="105" y="18" type="curve" smooth="yes"/>
      <point x="105" y="2"/>
      <point x="100" y="0"/>
      <point x="73" y="0" type="curve" smooth="yes"/>
      <point x="44" y="0"/>
      <point x="40" y="2"/>
      <point x="40" y="18" type="curve" smooth="yes"/>
      <point x="40" y="268"/>
      <point x="40" y="453"/>
      <point x="40" y="690" type="curve" smooth="yes"/>
      <point x="40" y="700"/>
      <point x="47" y="700"/>
      <point x="65" y="700" type="curve" smooth="yes"/>
      <point x="93" y="700"/>
      <point x="100" y="694"/>
      <point x="110" y="656" type="curve" smooth="yes"/>
      <point x="141" y="532"/>
      <point x="161" y="450"/>
      <point x="192" y="326" type="curve" smooth="yes"/>
      <point x="194" y="317"/>
      <point x="198" y="302"/>
      <point x="203" y="302" type="curve" smooth="yes"/>
      <point x="208" y="302"/>
      <point x="209" y="314"/>
      <point x="209" y="320" type="curve" smooth="yes"/>
      <point x="209" y="446"/>
      <point x="209" y="550"/>
      <point x="209" y="682" type="curve" smooth="yes"/>
      <point x="209" y="698"/>
      <point x="214" y="700"/>
      <point x="243" y="700" type="curve" smooth="yes"/>
      <point x="266" y="700"/>
      <point x="272" y="699"/>
      <point x="272" y="685" type="curve" smooth="yes"/>
      <point x="272" y="445"/>
      <point x="272" y="282"/>
    </contour>
  </outline>
</glyph>
<glyph name="P" format="1">
  <advance width="296"/>
  <unicode hex="0050"/>
  <outline>
    <contour>
      <point x="272" y="431" type="curve" smooth="yes"/>
      <point x="272" y="408"/>
      <point x="272" y="375"/>
      <point x="236" y="333" type="curve" smooth="yes"/>
      <point x="202" y="295"/>
      <point x="154" y="290"/>
      <point x="123" y="290" type="curve" smooth="yes"/>
      <point x="111" y="290"/>
      <point x="104" y="283"/>
      <point x="104" y="269" type="curve" smooth="yes"/>
      <point x="104" y="199"/>
      <point x="104" y="104"/>
      <point x="104" y="16" type="curve" smooth="yes"/>
      <point x="104" y="0"/>
      <point x="97" y="0"/>
      <point x="70" y="0" type="curve" smooth="yes"/>
      <point x="44" y="0"/>
      <point x="40" y="0"/>
      <point x="40" y="14" type="curve" smooth="yes"/>
      <point x="40" y="260"/>
      <point x="40" y="431"/>
      <point x="40" y="669" type="curve" smooth="yes"/>
      <point x="40" y="679"/>
      <point x="41" y="688"/>
      <point x="47" y="694" type="curve" smooth="yes"/>
      <point x="55" y="701"/>
      <point x="62" y="700"/>
      <point x="70" y="700" type="curve" smooth="yes"/>
      <point x="92" y="700"/>
      <point x="108" y="700"/>
      <point x="130" y="700" type="curve" smooth="yes"/>
      <point x="164" y="700"/>
      <point x="205" y="692"/>
      <point x="235" y="665" type="curve" smooth="yes"/>
      <point x="265" y="637"/>
      <point x="272" y="603"/>
      <point x="272" y="561" type="curve" smooth="yes"/>
      <point x="272" y="511"/>
      <point x="272" y="481"/>
    </contour>
    <contour>
      <point x="207" y="430" type="curve" smooth="yes"/>
      <point x="207" y="479"/>
      <point x="207" y="512"/>
      <point x="207" y="561" type="curve" smooth="yes"/>
      <point x="207" y="584"/>
      <point x="204" y="601"/>
      <point x="186" y="619" type="curve" smooth="yes"/>
      <point x="175" y="630"/>
      <point x="162" y="634"/>
      <point x="140" y="634" type="curve" smooth="yes"/>
      <point x="128" y="634"/>
      <point x="112" y="634"/>
      <point x="108" y="627" type="curve" smooth="yes"/>
      <point x="105" y="621"/>
      <point x="105" y="616"/>
      <point x="105" y="610" type="curve" smooth="yes"/>
      <point x="105" y="525"/>
      <point x="105" y="470"/>
      <point x="105" y="387" type="curve" smooth="yes"/>
      <point x="105" y="376"/>
      <point x="103" y="363"/>
      <point x="112" y="358" type="curve" smooth="yes"/>
      <point x="117" y="355"/>
      <point x="126" y="356"/>
      <point x="135" y="356" type="curve" smooth="yes"/>
      <point x="147" y="356"/>
      <point x="169" y="358"/>
      <point x="187" y="377" type="curve" smooth="yes"/>
      <point x="207" y="399"/>
      <point x="207" y="409"/>
    </contour>
  </outline>
</glyph>
<glyph name="Q" format="1">
  <advance width="302"/>
  <unicode hex="0051"/>
  <outline>
    <contour>
      <point x="267" y="125" type="curve" smooth="yes"/>
      <point x="267" y="38"/>
      <point x="222" y="14"/>
      <point x="190" y="5" type="curve" smooth="yes"/>
      <point x="179" y="2"/>
      <point x="180" y="-2"/>
      <point x="180" y="-2" type="curve"/>
      <point x="180" y="-40"/>
      <point x="207" y="-62"/>
      <point x="231" y="-62" type="curve" smooth="yes"/>
      <point x="236" y="-62"/>
      <point x="236" y="-75"/>
      <point x="236" y="-93" type="curve" smooth="yes"/>
      <point x="236" y="-111"/>
      <point x="237" y="-124"/>
      <point x="231" y="-124" type="curve" smooth="yes"/>
      <point x="166" y="-124"/>
      <point x="115" y="-78"/>
      <point x="115" y="-2" type="curve" smooth="yes"/>
      <point x="115" y="4"/>
      <point x="109" y="4"/>
      <point x="105" y="7" type="curve" smooth="yes"/>
      <point x="95" y="14"/>
      <point x="35" y="35"/>
      <point x="35" y="125" type="curve" smooth="yes"/>
      <point x="35" y="287"/>
      <point x="35" y="429"/>
      <point x="35" y="578" type="curve" smooth="yes"/>
      <point x="35" y="653"/>
      <point x="86" y="700"/>
      <point x="151" y="700" type="curve" smooth="yes"/>
      <point x="217" y="700"/>
      <point x="267" y="648"/>
      <point x="267" y="578" type="curve" smooth="yes"/>
      <point x="267" y="429"/>
      <point x="267" y="285"/>
    </contour>
    <contour>
      <point x="201" y="125" type="curve" smooth="yes"/>
      <point x="201" y="271"/>
      <point x="201" y="433"/>
      <point x="201" y="578" type="curve" smooth="yes"/>
      <point x="201" y="606"/>
      <point x="180" y="638"/>
      <point x="151" y="638" type="curve" smooth="yes"/>
      <point x="121" y="638"/>
      <point x="100" y="606"/>
      <point x="100" y="578" type="curve" smooth="yes"/>
      <point x="100" y="434"/>
      <point x="100" y="270"/>
      <point x="100" y="125" type="curve" smooth="yes"/>
      <point x="100" y="84"/>
      <point x="121" y="64"/>
      <point x="151" y="64" type="curve" smooth="yes"/>
      <point x="182" y="64"/>
      <point x="201" y="84"/>
    </contour>
  </outline>
</glyph>
<glyph name="R" format="1">
  <advance width="307"/>
  <unicode hex="0052"/>
  <outline>
    <contour>
      <point x="270" y="16" type="curve" smooth="yes"/>
      <point x="270" y="0"/>
      <point x="263" y="0"/>
      <point x="236" y="0" type="curve" smooth="yes"/>
      <point x="213" y="0"/>
      <point x="206" y="-1"/>
      <point x="206" y="14" type="curve" smooth="yes"/>
      <point x="206" y="103"/>
      <point x="206" y="188"/>
      <point x="206" y="268" type="curve" smooth="yes"/>
      <point x="206" y="309"/>
      <point x="179" y="334"/>
      <point x="157" y="334" type="curve" smooth="yes"/>
      <point x="110" y="334"/>
      <point x="104" y="335"/>
      <point x="104" y="319" type="curve" smooth="yes"/>
      <point x="104" y="226"/>
      <point x="104" y="124"/>
      <point x="104" y="16" type="curve" smooth="yes"/>
      <point x="104" y="0"/>
      <point x="100" y="0"/>
      <point x="70" y="0" type="curve" smooth="yes"/>
      <point x="47" y="0"/>
      <point x="40" y="0"/>
      <point x="40" y="14" type="curve" smooth="yes"/>
      <point x="40" y="260"/>
      <point x="40" y="431"/>
      <point x="40" y="669" type="curve" smooth="yes"/>
      <point x="40" y="679"/>
      <point x="41" y="690"/>
      <point x="47" y="696" type="curve" smooth="yes"/>
      <point x="55" y="703"/>
      <point x="62" y="700"/>
      <point x="70" y="700" type="curve" smooth="yes"/>
      <point x="91" y="700"/>
      <point x="106" y="700"/>
      <point x="127" y="700" type="curve" smooth="yes"/>
      <point x="159" y="700"/>
      <point x="202" y="692"/>
      <point x="232" y="665" type="curve" smooth="yes"/>
      <point x="262" y="637"/>
      <point x="269" y="596"/>
      <point x="269" y="561" type="curve" smooth="yes"/>
      <point x="269" y="527"/>
      <point x="269" y="505"/>
      <point x="269" y="471" type="curve" smooth="yes"/>
      <point x="269" y="447"/>
      <point x="270" y="430"/>
      <point x="258" y="408" type="curve" smooth="yes"/>
      <point x="243" y="380"/>
      <point x="211" y="372"/>
      <point x="211" y="368" type="curve" smooth="yes"/>
      <point x="211" y="364"/>
      <point x="244" y="358"/>
      <point x="259" y="328" type="curve" smooth="yes"/>
      <point x="271" y="304"/>
      <point x="270" y="289"/>
      <point x="270" y="265" type="curve" smooth="yes"/>
      <point x="270" y="178"/>
      <point x="270" y="103"/>
    </contour>
    <contour>
      <point x="204" y="466" type="curve" smooth="yes"/>
      <point x="204" y="502"/>
      <point x="204" y="525"/>
      <point x="204" y="561" type="curve" smooth="yes"/>
      <point x="204" y="584"/>
      <point x="201" y="601"/>
      <point x="183" y="619" type="curve" smooth="yes"/>
      <point x="172" y="630"/>
      <point x="166" y="634"/>
      <point x="130" y="634" type="curve" smooth="yes"/>
      <point x="121" y="634"/>
      <point x="112" y="634"/>
      <point x="108" y="627" type="curve" smooth="yes"/>
      <point x="105" y="621"/>
      <point x="105" y="616"/>
      <point x="105" y="610" type="curve" smooth="yes"/>
      <point x="105" y="538"/>
      <point x="105" y="493"/>
      <point x="105" y="423" type="curve" smooth="yes"/>
      <point x="105" y="412"/>
      <point x="103" y="401"/>
      <point x="111" y="395" type="curve" smooth="yes"/>
      <point x="117" y="390"/>
      <point x="124" y="391"/>
      <point x="129" y="391" type="curve" smooth="yes"/>
      <point x="140" y="391"/>
      <point x="166" y="394"/>
      <point x="184" y="413" type="curve" smooth="yes"/>
      <point x="204" y="435"/>
      <point x="204" y="452"/>
    </contour>
  </outline>
</glyph>
<glyph name="S" format="1">
  <advance width="273"/>
  <unicode hex="0053"/>
  <outline>
    <contour>
      <point x="255" y="116" type="curve" smooth="yes"/>
      <point x="255" y="48"/>
      <point x="204" y="0"/>
      <point x="139" y="0" type="curve" smooth="yes"/>
      <point x="74" y="0"/>
      <point x="23" y="37"/>
      <point x="23" y="116" type="curve" smooth="yes"/>
      <point x="23" y="120"/>
      <point x="23" y="168"/>
      <point x="23" y="172" type="curve" smooth="yes"/>
      <point x="23" y="183"/>
      <point x="30" y="185"/>
      <point x="56" y="185" type="curve" smooth="yes"/>
      <point x="80" y="185"/>
      <point x="90" y="184"/>
      <point x="90" y="174" type="curve" smooth="yes"/>
      <point x="90" y="168"/>
      <point x="90" y="125"/>
      <point x="90" y="119" type="curve" smooth="yes"/>
      <point x="90" y="94"/>
      <point x="103" y="67"/>
      <point x="139" y="67" type="curve" smooth="yes"/>
      <point x="182" y="67"/>
      <point x="190" y="99"/>
      <point x="190" y="122" type="curve" smooth="yes"/>
      <point x="190" y="146"/>
      <point x="190" y="166"/>
      <point x="190" y="183" type="curve" smooth="yes"/>
      <point x="190" y="236"/>
      <point x="151" y="292"/>
      <point x="111" y="348" type="curve" smooth="yes"/>
      <point x="69" y="407"/>
      <point x="22" y="471"/>
      <point x="22" y="530" type="curve" smooth="yes"/>
      <point x="22" y="546"/>
      <point x="22" y="560"/>
      <point x="22" y="581" type="curve" smooth="yes"/>
      <point x="22" y="633"/>
      <point x="53" y="700"/>
      <point x="136" y="700" type="curve" smooth="yes"/>
      <point x="212" y="700"/>
      <point x="250" y="633"/>
      <point x="250" y="582" type="curve" smooth="yes"/>
      <point x="250" y="576"/>
      <point x="250" y="542"/>
      <point x="250" y="536" type="curve" smooth="yes"/>
      <point x="250" y="528"/>
      <point x="238" y="528"/>
      <point x="215" y="528" type="curve" smooth="yes"/>
      <point x="196" y="528"/>
      <point x="183" y="528"/>
      <point x="183" y="537" type="curve" smooth="yes"/>
      <point x="183" y="543"/>
      <point x="183" y="579"/>
      <point x="183" y="584" type="curve" smooth="yes"/>
      <point x="183" y="617"/>
      <point x="158" y="638"/>
      <point x="136" y="638" type="curve" smooth="yes"/>
      <point x="108" y="638"/>
      <point x="87" y="610"/>
      <point x="87" y="585" type="curve" smooth="yes"/>
      <point x="87" y="561"/>
      <point x="87" y="546"/>
      <point x="87" y="530" type="curve" smooth="yes"/>
      <point x="87" y="492"/>
      <point x="126" y="441"/>
      <point x="164" y="388" type="curve" smooth="yes"/>
      <point x="208" y="327"/>
      <point x="255" y="257"/>
      <point x="255" y="182" type="curve" smooth="yes"/>
      <point x="255" y="163"/>
      <point x="255" y="141"/>
    </contour>
  </outline>
</glyph>
<glyph name="T" format="1">
  <advance width="239"/>
  <unicode hex="0054"/>
  <outline>
    <contour>
      <point x="236" y="670" type="curve" smooth="yes"/>
      <point x="236" y="647"/>
      <point x="235" y="643"/>
      <point x="224" y="643" type="curve" smooth="yes"/>
      <point x="212" y="643"/>
      <point x="198" y="644"/>
      <point x="181" y="643" type="curve" smooth="yes"/>
      <point x="173" y="643"/>
      <point x="165" y="643"/>
      <point x="160" y="641" type="curve"/>
      <point x="151" y="634"/>
      <point x="153" y="617"/>
      <point x="153" y="604" type="curve" smooth="yes"/>
      <point x="153" y="383"/>
      <point x="153" y="229"/>
      <point x="153" y="10" type="curve" smooth="yes"/>
      <point x="153" y="1"/>
      <point x="138" y="0"/>
      <point x="117" y="0" type="curve" smooth="yes"/>
      <point x="99" y="0"/>
      <point x="86" y="0"/>
      <point x="86" y="10" type="curve" smooth="yes"/>
      <point x="86" y="229"/>
      <point x="86" y="384"/>
      <point x="86" y="604" type="curve" smooth="yes"/>
      <point x="86" y="617"/>
      <point x="88" y="634"/>
      <point x="79" y="641" type="curve"/>
      <point x="74" y="643"/>
      <point x="66" y="643"/>
      <point x="58" y="643" type="curve" smooth="yes"/>
      <point x="44" y="643"/>
      <point x="30" y="643"/>
      <point x="21" y="643" type="curve" smooth="yes"/>
      <point x="6" y="643"/>
      <point x="3" y="648"/>
      <point x="3" y="670" type="curve" smooth="yes"/>
      <point x="3" y="692"/>
      <point x="5" y="700"/>
      <point x="17" y="700" type="curve" smooth="yes"/>
      <point x="80" y="700"/>
      <point x="160" y="700"/>
      <point x="223" y="700" type="curve" smooth="yes"/>
      <point x="235" y="700"/>
      <point x="236" y="690"/>
    </contour>
  </outline>
</glyph>
<glyph name="U" format="1">
  <advance width="302"/>
  <unicode hex="0055"/>
  <outline>
    <contour>
      <point x="267" y="116" type="curve" smooth="yes"/>
      <point x="267" y="53"/>
      <point x="232" y="0"/>
      <point x="151" y="0" type="curve" smooth="yes"/>
      <point x="70" y="0"/>
      <point x="35" y="66"/>
      <point x="35" y="115" type="curve" smooth="yes"/>
      <point x="35" y="294"/>
      <point x="35" y="465"/>
      <point x="35" y="685" type="curve" smooth="yes"/>
      <point x="35" y="698"/>
      <point x="46" y="700"/>
      <point x="67" y="700" type="curve" smooth="yes"/>
      <point x="88" y="700"/>
      <point x="100" y="696"/>
      <point x="100" y="685" type="curve" smooth="yes"/>
      <point x="100" y="468"/>
      <point x="100" y="290"/>
      <point x="100" y="120" type="curve" smooth="yes"/>
      <point x="100" y="93"/>
      <point x="115" y="67"/>
      <point x="151" y="67" type="curve" smooth="yes"/>
      <point x="185" y="67"/>
      <point x="202" y="92"/>
      <point x="202" y="119" type="curve" smooth="yes"/>
      <point x="202" y="283"/>
      <point x="202" y="476"/>
      <point x="202" y="688" type="curve" smooth="yes"/>
      <point x="202" y="697"/>
      <point x="208" y="700"/>
      <point x="232" y="700" type="curve" smooth="yes"/>
      <point x="257" y="700"/>
      <point x="267" y="698"/>
      <point x="267" y="689" type="curve" smooth="yes"/>
      <point x="267" y="476"/>
      <point x="267" y="291"/>
    </contour>
  </outline>
</glyph>
<glyph name="V" format="1">
  <advance width="257"/>
  <unicode hex="0056"/>
  <outline>
    <contour>
      <point x="247" y="686" type="curve" smooth="yes"/>
      <point x="217" y="440"/>
      <point x="194" y="258"/>
      <point x="164" y="15" type="curve" smooth="yes"/>
      <point x="162" y="1"/>
      <point x="151" y="0"/>
      <point x="131" y="0" type="curve" smooth="yes"/>
      <point x="105" y="0"/>
      <point x="93" y="0"/>
      <point x="91" y="17" type="curve" smooth="yes"/>
      <point x="64" y="242"/>
      <point x="39" y="442"/>
      <point x="10" y="688" type="curve" smooth="yes"/>
      <point x="9" y="700"/>
      <point x="14" y="700"/>
      <point x="42" y="700" type="curve" smooth="yes"/>
      <point x="71" y="700"/>
      <point x="77" y="697"/>
      <point x="78" y="684" type="curve" smooth="yes"/>
      <point x="94" y="509"/>
      <point x="106" y="373"/>
      <point x="121" y="207" type="curve"/>
      <point x="121" y="204"/>
      <point x="122" y="197"/>
      <point x="127" y="197" type="curve" smooth="yes"/>
      <point x="133" y="197"/>
      <point x="134" y="204"/>
      <point x="134" y="208" type="curve"/>
      <point x="151" y="380"/>
      <point x="166" y="526"/>
      <point x="182" y="683" type="curve" smooth="yes"/>
      <point x="184" y="700"/>
      <point x="192" y="699"/>
      <point x="210" y="699" type="curve" smooth="yes"/>
      <point x="238" y="699"/>
      <point x="248" y="697"/>
    </contour>
  </outline>
</glyph>
<glyph name="W" format="1">
  <advance width="340"/>
  <unicode hex="0057"/>
  <outline>
    <contour>
      <point x="330" y="689" type="curve" smooth="yes"/>
      <point x="317" y="532"/>
      <point x="289" y="194"/>
      <point x="274" y="11" type="curve" smooth="yes"/>
      <point x="273" y="-2"/>
      <point x="267" y="0"/>
      <point x="241" y="0" type="curve" smooth="yes"/>
      <point x="228" y="0"/>
      <point x="222" y="1"/>
      <point x="220" y="11" type="curve" smooth="yes"/>
      <point x="206" y="89"/>
      <point x="195" y="150"/>
      <point x="180" y="230" type="curve" smooth="yes"/>
      <point x="179" y="234"/>
      <point x="179" y="241"/>
      <point x="173" y="241" type="curve" smooth="yes"/>
      <point x="168" y="241"/>
      <point x="168" y="234"/>
      <point x="167" y="231" type="curve"/>
      <point x="153" y="155"/>
      <point x="142" y="101"/>
      <point x="125" y="12" type="curve" smooth="yes"/>
      <point x="123" y="-1"/>
      <point x="115" y="0"/>
      <point x="101" y="0" type="curve" smooth="yes"/>
      <point x="88" y="0"/>
      <point x="67" y="-2"/>
      <point x="66" y="11" type="curve" smooth="yes"/>
      <point x="52" y="187"/>
      <point x="31" y="436"/>
      <point x="10" y="688" type="curve" smooth="yes"/>
      <point x="9" y="696"/>
      <point x="18" y="700"/>
      <point x="38" y="700" type="curve" smooth="yes"/>
      <point x="68" y="700"/>
      <point x="76" y="699"/>
      <point x="77" y="689" type="curve" smooth="yes"/>
      <point x="89" y="503"/>
      <point x="97" y="378"/>
      <point x="108" y="210" type="curve" smooth="yes"/>
      <point x="108" y="207"/>
      <point x="109" y="200"/>
      <point x="114" y="200" type="curve" smooth="yes"/>
      <point x="120" y="200"/>
      <point x="121" y="207"/>
      <point x="121" y="211" type="curve"/>
      <point x="132" y="308"/>
      <point x="140" y="383"/>
      <point x="149" y="469" type="curve" smooth="yes"/>
      <point x="150" y="478"/>
      <point x="155" y="481"/>
      <point x="173" y="481" type="curve" smooth="yes"/>
      <point x="193" y="481"/>
      <point x="198" y="479"/>
      <point x="199" y="469" type="curve" smooth="yes"/>
      <point x="209" y="375"/>
      <point x="215" y="306"/>
      <point x="226" y="207" type="curve"/>
      <point x="226" y="204"/>
      <point x="227" y="197"/>
      <point x="232" y="197" type="curve" smooth="yes"/>
      <point x="238" y="197"/>
      <point x="239" y="204"/>
      <point x="239" y="208" type="curve" smooth="yes"/>
      <point x="250" y="385"/>
      <point x="260" y="548"/>
      <point x="269" y="690" type="curve" smooth="yes"/>
      <point x="270" y="700"/>
      <point x="273" y="700"/>
      <point x="296" y="700" type="curve" smooth="yes"/>
      <point x="323" y="700"/>
      <point x="331" y="702"/>
    </contour>
  </outline>
</glyph>
<glyph name="X" format="1">
  <advance width="246"/>
  <unicode hex="0058"/>
  <outline>
    <contour>
      <point x="236" y="13" type="curve" smooth="yes"/>
      <point x="238" y="4"/>
      <point x="237" y="0"/>
      <point x="207" y="0" type="curve" smooth="yes"/>
      <point x="183" y="0"/>
      <point x="176" y="-2"/>
      <point x="174" y="10" type="curve" smooth="yes"/>
      <point x="159" y="86"/>
      <point x="143" y="168"/>
      <point x="129" y="242" type="curve"/>
      <point x="128" y="245"/>
      <point x="127" y="251"/>
      <point x="123" y="251" type="curve" smooth="yes"/>
      <point x="118" y="251"/>
      <point x="117" y="245"/>
      <point x="116" y="241" type="curve" smooth="yes"/>
      <point x="103" y="170"/>
      <point x="88" y="87"/>
      <point x="74" y="13" type="curve" smooth="yes"/>
      <point x="72" y="0"/>
      <point x="68" y="0"/>
      <point x="37" y="0" type="curve" smooth="yes"/>
      <point x="13" y="0"/>
      <point x="8" y="1"/>
      <point x="11" y="17" type="curve" smooth="yes"/>
      <point x="33" y="124"/>
      <point x="52" y="219"/>
      <point x="75" y="334" type="curve" smooth="yes"/>
      <point x="77" y="342"/>
      <point x="78" y="348"/>
      <point x="78" y="357" type="curve" smooth="yes"/>
      <point x="78" y="368"/>
      <point x="76" y="374"/>
      <point x="74" y="384" type="curve" smooth="yes"/>
      <point x="55" y="490"/>
      <point x="38" y="583"/>
      <point x="17" y="691" type="curve" smooth="yes"/>
      <point x="15" y="699"/>
      <point x="30" y="700"/>
      <point x="48" y="700" type="curve" smooth="yes"/>
      <point x="70" y="700"/>
      <point x="81" y="701"/>
      <point x="83" y="691" type="curve" smooth="yes"/>
      <point x="94" y="619"/>
      <point x="107" y="536"/>
      <point x="117" y="471" type="curve"/>
      <point x="117" y="468"/>
      <point x="119" y="462"/>
      <point x="123" y="462" type="curve" smooth="yes"/>
      <point x="127" y="462"/>
      <point x="128" y="469"/>
      <point x="128" y="472" type="curve"/>
      <point x="139" y="542"/>
      <point x="152" y="622"/>
      <point x="163" y="694" type="curve" smooth="yes"/>
      <point x="164" y="702"/>
      <point x="172" y="700"/>
      <point x="194" y="700" type="curve" smooth="yes"/>
      <point x="222" y="700"/>
      <point x="230" y="700"/>
      <point x="229" y="692" type="curve" smooth="yes"/>
      <point x="209" y="584"/>
      <point x="191" y="491"/>
      <point x="172" y="385" type="curve" smooth="yes"/>
      <point x="170" y="375"/>
      <point x="168" y="369"/>
      <point x="168" y="358" type="curve" smooth="yes"/>
      <point x="168" y="349"/>
      <point x="169" y="344"/>
      <point x="171" y="336" type="curve" smooth="yes"/>
      <point x="193" y="224"/>
      <point x="213" y="124"/>
    </contour>
  </outline>
</glyph>
<glyph name="Y" format="1">
  <advance width="229"/>
  <unicode hex="0059"/>
  <outline>
    <contour>
      <point x="219" y="685" type="curve" smooth="yes"/>
      <point x="199" y="567"/>
      <point x="183" y="473"/>
      <point x="163" y="354" type="curve" smooth="yes"/>
      <point x="159" y="332"/>
      <point x="156" y="311"/>
      <point x="154" y="295" type="curve" smooth="yes"/>
      <point x="153" y="286"/>
      <point x="148" y="264"/>
      <point x="148" y="246" type="curve" smooth="yes"/>
      <point x="148" y="161"/>
      <point x="148" y="92"/>
      <point x="148" y="8" type="curve" smooth="yes"/>
      <point x="148" y="-1"/>
      <point x="126" y="0"/>
      <point x="113" y="0" type="curve" smooth="yes"/>
      <point x="97" y="0"/>
      <point x="81" y="-1"/>
      <point x="81" y="11" type="curve" smooth="yes"/>
      <point x="81" y="92"/>
      <point x="82" y="154"/>
      <point x="82" y="243" type="curve" smooth="yes"/>
      <point x="82" y="261"/>
      <point x="79" y="281"/>
      <point x="77" y="292" type="curve" smooth="yes"/>
      <point x="75" y="305"/>
      <point x="69" y="330"/>
      <point x="65" y="353" type="curve" smooth="yes"/>
      <point x="44" y="470"/>
      <point x="29" y="568"/>
      <point x="10" y="685" type="curve" smooth="yes"/>
      <point x="8" y="698"/>
      <point x="17" y="699"/>
      <point x="34" y="699" type="curve" smooth="yes"/>
      <point x="65" y="699"/>
      <point x="73" y="698"/>
      <point x="75" y="683" type="curve" smooth="yes"/>
      <point x="87" y="596"/>
      <point x="97" y="511"/>
      <point x="108" y="430" type="curve"/>
      <point x="108" y="427"/>
      <point x="110" y="421"/>
      <point x="114" y="421" type="curve" smooth="yes"/>
      <point x="118" y="421"/>
      <point x="119" y="428"/>
      <point x="119" y="431" type="curve"/>
      <point x="132" y="520"/>
      <point x="140" y="593"/>
      <point x="152" y="683" type="curve" smooth="yes"/>
      <point x="154" y="696"/>
      <point x="163" y="699"/>
      <point x="189" y="699" type="curve" smooth="yes"/>
      <point x="216" y="699"/>
      <point x="221" y="698"/>
    </contour>
  </outline>
</glyph>
<glyph name="Z" format="1">
  <advance width="246"/>
  <unicode hex="005A"/>
  <outline>
    <contour>
      <point x="227" y="672" type="curve" smooth="yes"/>
      <point x="227" y="648"/>
      <point x="226" y="633"/>
      <point x="224" y="623" type="curve" smooth="yes"/>
      <point x="164" y="382"/>
      <point x="149" y="311"/>
      <point x="96" y="105" type="curve" smooth="yes"/>
      <point x="94" y="97"/>
      <point x="95" y="91"/>
      <point x="95" y="69" type="curve" smooth="yes"/>
      <point x="95" y="64"/>
      <point x="96" y="60"/>
      <point x="107" y="60" type="curve" smooth="yes"/>
      <point x="143" y="60"/>
      <point x="177" y="60"/>
      <point x="213" y="60" type="curve" smooth="yes"/>
      <point x="224" y="60"/>
      <point x="224" y="53"/>
      <point x="224" y="28" type="curve" smooth="yes"/>
      <point x="224" y="3"/>
      <point x="224" y="0"/>
      <point x="213" y="0" type="curve" smooth="yes"/>
      <point x="160" y="0"/>
      <point x="86" y="0"/>
      <point x="33" y="0" type="curve" smooth="yes"/>
      <point x="24" y="0"/>
      <point x="25" y="17"/>
      <point x="25" y="26" type="curve" smooth="yes"/>
      <point x="25" y="82"/>
      <point x="24" y="90"/>
      <point x="27" y="100" type="curve" smooth="yes"/>
      <point x="85" y="315"/>
      <point x="104" y="401"/>
      <point x="153" y="600" type="curve" smooth="yes"/>
      <point x="156" y="612"/>
      <point x="155" y="630"/>
      <point x="146" y="637" type="curve"/>
      <point x="141" y="639"/>
      <point x="132" y="639"/>
      <point x="125" y="639" type="curve" smooth="yes"/>
      <point x="92" y="639"/>
      <point x="76" y="639"/>
      <point x="43" y="639" type="curve" smooth="yes"/>
      <point x="33" y="639"/>
      <point x="31" y="647"/>
      <point x="31" y="670" type="curve" smooth="yes"/>
      <point x="31" y="694"/>
      <point x="31" y="700"/>
      <point x="43" y="700" type="curve" smooth="yes"/>
      <point x="105" y="700"/>
      <point x="146" y="700"/>
      <point x="208" y="700" type="curve" smooth="yes"/>
      <point x="226" y="700"/>
      <point x="227" y="698"/>
    </contour>
  </outline>
</glyph>
<glyph name="bracketleft" format="1">
  <advance width="172"/>
  <unicode hex="005B"/>
  <outline>
    <contour>
      <point x="164" y="775" type="curve" smooth="yes"/>
      <point x="164" y="763"/>
      <point x="163" y="743"/>
      <point x="156" y="743" type="curve" smooth="yes"/>
      <point x="126" y="743"/>
      <point x="105" y="746"/>
      <point x="105" y="718" type="curve" smooth="yes"/>
      <point x="105" y="493"/>
      <point x="105" y="182"/>
      <point x="105" y="-8" type="curve" smooth="yes"/>
      <point x="105" y="-45"/>
      <point x="126" y="-38"/>
      <point x="156" y="-38" type="curve" smooth="yes"/>
      <point x="165" y="-38"/>
      <point x="162" y="-57"/>
      <point x="162" y="-68" type="curve" smooth="yes"/>
      <point x="162" y="-85"/>
      <point x="163" y="-105"/>
      <point x="156" y="-105" type="curve" smooth="yes"/>
      <point x="90" y="-105"/>
      <point x="40" y="-117"/>
      <point x="40" y="-85" type="curve" smooth="yes"/>
      <point x="40" y="144"/>
      <point x="40" y="567"/>
      <point x="40" y="783" type="curve" smooth="yes"/>
      <point x="40" y="813"/>
      <point x="91" y="805"/>
      <point x="156" y="805" type="curve" smooth="yes"/>
      <point x="169" y="805"/>
      <point x="164" y="787"/>
    </contour>
  </outline>
</glyph>
<glyph name="backslash" format="1">
  <advance width="211"/>
  <unicode hex="005C"/>
  <outline>
    <contour>
      <point x="194" y="13" type="curve" smooth="yes"/>
      <point x="196" y="1"/>
      <point x="184" y="0"/>
      <point x="164" y="0" type="curve" smooth="yes"/>
      <point x="143" y="0"/>
      <point x="133" y="2"/>
      <point x="131" y="15" type="curve" smooth="yes"/>
      <point x="89" y="252"/>
      <point x="56" y="439"/>
      <point x="15" y="680" type="curve" smooth="yes"/>
      <point x="12" y="695"/>
      <point x="21" y="699"/>
      <point x="43" y="699" type="curve" smooth="yes"/>
      <point x="64" y="699"/>
      <point x="77" y="699"/>
      <point x="79" y="689" type="curve" smooth="yes"/>
      <point x="121" y="446"/>
      <point x="151" y="262"/>
    </contour>
  </outline>
</glyph>
<glyph name="bracketright" format="1">
  <advance width="172"/>
  <unicode hex="005D"/>
  <outline>
    <contour>
      <point x="131" y="-88" type="curve" smooth="yes"/>
      <point x="131" y="-110"/>
      <point x="81" y="-105"/>
      <point x="15" y="-105" type="curve" smooth="yes"/>
      <point x="8" y="-105"/>
      <point x="10" y="-83"/>
      <point x="10" y="-66" type="curve" smooth="yes"/>
      <point x="10" y="-55"/>
      <point x="6" y="-38"/>
      <point x="15" y="-38" type="curve" smooth="yes"/>
      <point x="56" y="-38"/>
      <point x="66" y="-40"/>
      <point x="66" y="-10" type="curve" smooth="yes"/>
      <point x="66" y="222"/>
      <point x="66" y="463"/>
      <point x="66" y="717" type="curve" smooth="yes"/>
      <point x="66" y="746"/>
      <point x="45" y="743"/>
      <point x="15" y="743" type="curve" smooth="yes"/>
      <point x="8" y="743"/>
      <point x="9" y="763"/>
      <point x="9" y="775" type="curve" smooth="yes"/>
      <point x="9" y="787"/>
      <point x="2" y="805"/>
      <point x="15" y="805" type="curve" smooth="yes"/>
      <point x="80" y="805"/>
      <point x="131" y="813"/>
      <point x="131" y="782" type="curve" smooth="yes"/>
      <point x="131" y="510"/>
      <point x="131" y="159"/>
    </contour>
  </outline>
</glyph>
<glyph name="asciicircum" format="1">
  <advance width="297"/>
  <unicode hex="005E"/>
  <outline>
    <contour>
      <point x="276" y="493" type="curve"/>
      <point x="267" y="489"/>
      <point x="256" y="486"/>
      <point x="247" y="482" type="curve"/>
      <point x="238" y="479"/>
      <point x="233" y="484"/>
      <point x="230" y="489" type="curve" smooth="yes"/>
      <point x="207" y="528"/>
      <point x="189" y="559"/>
      <point x="169" y="589" type="curve" smooth="yes"/>
      <point x="159" y="603"/>
      <point x="155" y="610"/>
      <point x="148" y="610" type="curve" smooth="yes"/>
      <point x="141" y="610"/>
      <point x="136" y="602"/>
      <point x="126" y="587" type="curve" smooth="yes"/>
      <point x="106" y="555"/>
      <point x="77" y="504"/>
      <point x="64" y="484" type="curve"/>
      <point x="62" y="480"/>
      <point x="52" y="477"/>
      <point x="43" y="482" type="curve" smooth="yes"/>
      <point x="34" y="488"/>
      <point x="24" y="493"/>
      <point x="18" y="499" type="curve"/>
      <point x="12" y="503"/>
      <point x="23" y="526"/>
      <point x="40" y="550" type="curve" smooth="yes"/>
      <point x="45" y="558"/>
      <point x="86" y="627"/>
      <point x="117" y="669" type="curve" smooth="yes"/>
      <point x="131" y="689"/>
      <point x="144" y="701"/>
      <point x="148" y="701" type="curve" smooth="yes"/>
      <point x="153" y="701"/>
      <point x="168" y="687"/>
      <point x="184" y="665" type="curve" smooth="yes"/>
      <point x="216" y="620"/>
      <point x="256" y="550"/>
      <point x="268" y="533" type="curve" smooth="yes"/>
      <point x="285" y="510"/>
      <point x="284" y="498"/>
    </contour>
  </outline>
</glyph>
<glyph name="underscore" format="1">
  <advance width="293"/>
  <unicode hex="005F"/>
  <outline>
    <contour>
      <point x="290" y="-87" type="curve" smooth="yes"/>
      <point x="277" y="-93"/>
      <point x="175" y="-88"/>
      <point x="162" y="-89" type="curve" smooth="yes"/>
      <point x="128" y="-92"/>
      <point x="107" y="-90"/>
      <point x="72" y="-89" type="curve" smooth="yes"/>
      <point x="55" y="-89"/>
      <point x="26" y="-89"/>
      <point x="8" y="-87" type="curve" smooth="yes"/>
      <point x="2" y="-86"/>
      <point x="3" y="-36"/>
      <point x="9" y="-34" type="curve" smooth="yes"/>
      <point x="24" y="-30"/>
      <point x="53" y="-32"/>
      <point x="67" y="-32" type="curve" smooth="yes"/>
      <point x="98" y="-31"/>
      <point x="117" y="-33"/>
      <point x="147" y="-33" type="curve" smooth="yes"/>
      <point x="165" y="-33"/>
      <point x="268" y="-34"/>
      <point x="286" y="-34" type="curve" smooth="yes"/>
      <point x="291" y="-34"/>
      <point x="295" y="-85"/>
    </contour>
  </outline>
</glyph>
<glyph name="grave" format="1">
  <advance width="286"/>
  <unicode hex="0060"/>
  <outline>
    <contour>
      <point x="222" y="570" type="curve"/>
      <point x="217" y="560"/>
      <point x="212" y="552"/>
      <point x="209" y="542" type="curve" smooth="yes"/>
      <point x="207" y="533"/>
      <point x="203" y="527"/>
      <point x="185" y="537" type="curve" smooth="yes"/>
      <point x="125" y="572"/>
      <point x="126" y="572"/>
      <point x="78" y="599" type="curve"/>
      <point x="74" y="602"/>
      <point x="58" y="616"/>
      <point x="68" y="627" type="curve" smooth="yes"/>
      <point x="75" y="635"/>
      <point x="77" y="641"/>
      <point x="82" y="652" type="curve" smooth="yes"/>
      <point x="87" y="663"/>
      <point x="97" y="660"/>
      <point x="117" y="649" type="curve" smooth="yes"/>
      <point x="146" y="632"/>
      <point x="162" y="621"/>
      <point x="190" y="606" type="curve" smooth="yes"/>
      <point x="214" y="593"/>
      <point x="228" y="579"/>
    </contour>
  </outline>
</glyph>
<glyph name="a" format="1">
  <advance width="292"/>
  <unicode hex="0061"/>
  <outline>
    <contour>
      <point x="262" y="11" type="curve" smooth="yes"/>
      <point x="262" y="0"/>
      <point x="259" y="0"/>
      <point x="229" y="0" type="curve" smooth="yes"/>
      <point x="206" y="0"/>
      <point x="199" y="0"/>
      <point x="199" y="9" type="curve" smooth="yes"/>
      <point x="199" y="17"/>
      <point x="202" y="27"/>
      <point x="193" y="27" type="curve" smooth="yes"/>
      <point x="187" y="27"/>
      <point x="185" y="0"/>
      <point x="146" y="0" type="curve" smooth="yes"/>
      <point x="80" y="0"/>
      <point x="30" y="44"/>
      <point x="30" y="125" type="curve" smooth="yes"/>
      <point x="30" y="207"/>
      <point x="30" y="277"/>
      <point x="30" y="360" type="curve" smooth="yes"/>
      <point x="30" y="435"/>
      <point x="81" y="482"/>
      <point x="146" y="482" type="curve" smooth="yes"/>
      <point x="156" y="482"/>
      <point x="171" y="482"/>
      <point x="186" y="467" type="curve" smooth="yes"/>
      <point x="194" y="459"/>
      <point x="197" y="459"/>
      <point x="197" y="477" type="curve" smooth="yes"/>
      <point x="197" y="484"/>
      <point x="204" y="483"/>
      <point x="228" y="483" type="curve" smooth="yes"/>
      <point x="258" y="483"/>
      <point x="262" y="481"/>
      <point x="262" y="471" type="curve" smooth="yes"/>
      <point x="262" y="440"/>
      <point x="262" y="229"/>
    </contour>
    <contour>
      <point x="196" y="128" type="curve" smooth="yes"/>
      <point x="196" y="206"/>
      <point x="196" y="282"/>
      <point x="196" y="360" type="curve" smooth="yes"/>
      <point x="196" y="388"/>
      <point x="175" y="420"/>
      <point x="146" y="420" type="curve" smooth="yes"/>
      <point x="116" y="420"/>
      <point x="95" y="388"/>
      <point x="95" y="360" type="curve" smooth="yes"/>
      <point x="95" y="283"/>
      <point x="95" y="205"/>
      <point x="95" y="128" type="curve" smooth="yes"/>
      <point x="95" y="86"/>
      <point x="116" y="67"/>
      <point x="146" y="67" type="curve" smooth="yes"/>
      <point x="177" y="67"/>
      <point x="196" y="88"/>
    </contour>
  </outline>
</glyph>
<glyph name="b" format="1">
  <advance width="297"/>
  <unicode hex="0062"/>
  <outline>
    <contour>
      <point x="267" y="121" type="curve" smooth="yes"/>
      <point x="267" y="51"/>
      <point x="231" y="0"/>
      <point x="151" y="0" type="curve" smooth="yes"/>
      <point x="112" y="0"/>
      <point x="110" y="27"/>
      <point x="104" y="27" type="curve" smooth="yes"/>
      <point x="95" y="27"/>
      <point x="97" y="15"/>
      <point x="97" y="9" type="curve" smooth="yes"/>
      <point x="97" y="-1"/>
      <point x="79" y="0"/>
      <point x="65" y="0" type="curve" smooth="yes"/>
      <point x="51" y="0"/>
      <point x="35" y="-1"/>
      <point x="35" y="8" type="curve" smooth="yes"/>
      <point x="35" y="226"/>
      <point x="35" y="337"/>
      <point x="35" y="692" type="curve" smooth="yes"/>
      <point x="35" y="698"/>
      <point x="46" y="701"/>
      <point x="65" y="701" type="curve" smooth="yes"/>
      <point x="90" y="701"/>
      <point x="100" y="700"/>
      <point x="100" y="693" type="curve" smooth="yes"/>
      <point x="100" y="592"/>
      <point x="100" y="540"/>
      <point x="100" y="487" type="curve" smooth="yes"/>
      <point x="100" y="472"/>
      <point x="107" y="466"/>
      <point x="114" y="469" type="curve" smooth="yes"/>
      <point x="133" y="478"/>
      <point x="141" y="482"/>
      <point x="151" y="482" type="curve" smooth="yes"/>
      <point x="222" y="482"/>
      <point x="267" y="428"/>
      <point x="267" y="357" type="curve" smooth="yes"/>
      <point x="267" y="274"/>
      <point x="267" y="203"/>
    </contour>
    <contour>
      <point x="201" y="128" type="curve" smooth="yes"/>
      <point x="201" y="206"/>
      <point x="201" y="283"/>
      <point x="201" y="360" type="curve" smooth="yes"/>
      <point x="201" y="388"/>
      <point x="180" y="420"/>
      <point x="151" y="420" type="curve" smooth="yes"/>
      <point x="121" y="420"/>
      <point x="100" y="388"/>
      <point x="100" y="360" type="curve" smooth="yes"/>
      <point x="100" y="283"/>
      <point x="100" y="205"/>
      <point x="100" y="128" type="curve" smooth="yes"/>
      <point x="100" y="88"/>
      <point x="121" y="67"/>
      <point x="151" y="67" type="curve" smooth="yes"/>
      <point x="182" y="67"/>
      <point x="201" y="87"/>
    </contour>
  </outline>
</glyph>
<glyph name="c" format="1">
  <advance width="287"/>
  <unicode hex="0063"/>
  <outline>
    <contour>
      <point x="262" y="125" type="curve" smooth="yes"/>
      <point x="262" y="53"/>
      <point x="228" y="-1"/>
      <point x="146" y="-1" type="curve" smooth="yes"/>
      <point x="68" y="-1"/>
      <point x="30" y="58"/>
      <point x="30" y="125" type="curve" smooth="yes"/>
      <point x="30" y="206"/>
      <point x="30" y="276"/>
      <point x="30" y="357" type="curve" smooth="yes"/>
      <point x="30" y="434"/>
      <point x="78" y="482"/>
      <point x="146" y="482" type="curve" smooth="yes"/>
      <point x="212" y="482"/>
      <point x="262" y="432"/>
      <point x="262" y="356" type="curve" smooth="yes"/>
      <point x="262" y="349"/>
      <point x="258" y="347"/>
      <point x="231" y="347" type="curve" smooth="yes"/>
      <point x="206" y="347"/>
      <point x="196" y="348"/>
      <point x="196" y="353" type="curve" smooth="yes"/>
      <point x="196" y="393"/>
      <point x="174" y="420"/>
      <point x="146" y="420" type="curve" smooth="yes"/>
      <point x="116" y="420"/>
      <point x="95" y="388"/>
      <point x="95" y="360" type="curve" smooth="yes"/>
      <point x="95" y="284"/>
      <point x="95" y="204"/>
      <point x="95" y="128" type="curve" smooth="yes"/>
      <point x="95" y="98"/>
      <point x="107" y="67"/>
      <point x="146" y="67" type="curve" smooth="yes"/>
      <point x="187" y="67"/>
      <point x="196" y="102"/>
      <point x="196" y="128" type="curve" smooth="yes"/>
      <point x="196" y="132"/>
      <point x="203" y="132"/>
      <point x="229" y="132" type="curve" smooth="yes"/>
      <point x="256" y="132"/>
      <point x="262" y="131"/>
    </contour>
  </outline>
</glyph>
<glyph name="d" format="1">
  <advance width="297"/>
  <unicode hex="0064"/>
  <outline>
    <contour>
      <point x="262" y="8" type="curve" smooth="yes"/>
      <point x="262" y="-1"/>
      <point x="249" y="0"/>
      <point x="228" y="0" type="curve" smooth="yes"/>
      <point x="210" y="0"/>
      <point x="200" y="-3"/>
      <point x="200" y="5" type="curve" smooth="yes"/>
      <point x="200" y="11"/>
      <point x="202" y="27"/>
      <point x="193" y="27" type="curve" smooth="yes"/>
      <point x="187" y="27"/>
      <point x="185" y="0"/>
      <point x="146" y="0" type="curve" smooth="yes"/>
      <point x="66" y="0"/>
      <point x="30" y="52"/>
      <point x="30" y="121" type="curve" smooth="yes"/>
      <point x="30" y="203"/>
      <point x="30" y="274"/>
      <point x="30" y="357" type="curve" smooth="yes"/>
      <point x="30" y="430"/>
      <point x="78" y="482"/>
      <point x="146" y="482" type="curve" smooth="yes"/>
      <point x="156" y="482"/>
      <point x="164" y="478"/>
      <point x="183" y="469" type="curve" smooth="yes"/>
      <point x="190" y="466"/>
      <point x="197" y="472"/>
      <point x="197" y="487" type="curve" smooth="yes"/>
      <point x="197" y="540"/>
      <point x="197" y="585"/>
      <point x="197" y="693" type="curve" smooth="yes"/>
      <point x="197" y="700"/>
      <point x="201" y="700"/>
      <point x="229" y="700" type="curve" smooth="yes"/>
      <point x="257" y="700"/>
      <point x="262" y="698"/>
      <point x="262" y="692" type="curve" smooth="yes"/>
      <point x="262" y="402"/>
      <point x="262" y="226"/>
    </contour>
    <contour>
      <point x="196" y="128" type="curve" smooth="yes"/>
      <point x="196" y="206"/>
      <point x="196" y="282"/>
      <point x="196" y="360" type="curve" smooth="yes"/>
      <point x="196" y="388"/>
      <point x="175" y="420"/>
      <point x="146" y="420" type="curve" smooth="yes"/>
      <point x="116" y="420"/>
      <point x="95" y="388"/>
      <point x="95" y="360" type="curve" smooth="yes"/>
      <point x="95" y="283"/>
      <point x="95" y="205"/>
      <point x="95" y="128" type="curve" smooth="yes"/>
      <point x="95" y="86"/>
      <point x="116" y="67"/>
      <point x="146" y="67" type="curve" smooth="yes"/>
      <point x="177" y="67"/>
      <point x="196" y="88"/>
    </contour>
  </outline>
</glyph>
<glyph name="e" format="1">
  <advance width="292"/>
  <unicode hex="0065"/>
  <outline>
    <contour>
      <point x="262" y="125" type="curve" smooth="yes"/>
      <point x="262" y="36"/>
      <point x="213" y="0"/>
      <point x="146" y="0" type="curve" smooth="yes"/>
      <point x="80" y="0"/>
      <point x="30" y="45"/>
      <point x="30" y="125" type="curve" smooth="yes"/>
      <point x="30" y="208"/>
      <point x="30" y="277"/>
      <point x="30" y="360" type="curve" smooth="yes"/>
      <point x="30" y="435"/>
      <point x="81" y="482"/>
      <point x="146" y="482" type="curve" smooth="yes"/>
      <point x="212" y="482"/>
      <point x="262" y="430"/>
      <point x="262" y="360" type="curve" smooth="yes"/>
      <point x="262" y="315"/>
      <point x="262" y="272"/>
      <point x="262" y="237" type="curve" smooth="yes"/>
      <point x="262" y="230"/>
      <point x="263" y="221"/>
      <point x="243" y="221" type="curve" smooth="yes"/>
      <point x="174" y="221"/>
      <point x="162" y="221"/>
      <point x="106" y="221" type="curve" smooth="yes"/>
      <point x="101" y="221"/>
      <point x="95" y="215"/>
      <point x="95" y="203" type="curve" smooth="yes"/>
      <point x="95" y="177"/>
      <point x="95" y="155"/>
      <point x="95" y="128" type="curve" smooth="yes"/>
      <point x="95" y="88"/>
      <point x="116" y="67"/>
      <point x="146" y="67" type="curve" smooth="yes"/>
      <point x="177" y="67"/>
      <point x="196" y="88"/>
      <point x="196" y="128" type="curve" smooth="yes"/>
      <point x="196" y="132"/>
      <point x="201" y="134"/>
      <point x="231" y="134" type="curve" smooth="yes"/>
      <point x="257" y="134"/>
      <point x="262" y="133"/>
    </contour>
    <contour>
      <point x="196" y="296" type="curve" smooth="yes"/>
      <point x="196" y="314"/>
      <point x="196" y="337"/>
      <point x="196" y="360" type="curve" smooth="yes"/>
      <point x="196" y="391"/>
      <point x="175" y="420"/>
      <point x="146" y="420" type="curve" smooth="yes"/>
      <point x="116" y="420"/>
      <point x="95" y="389"/>
      <point x="95" y="360" type="curve" smooth="yes"/>
      <point x="95" y="337"/>
      <point x="95" y="314"/>
      <point x="95" y="296" type="curve" smooth="yes"/>
      <point x="95" y="282"/>
      <point x="103" y="282"/>
      <point x="143" y="282" type="curve" smooth="yes"/>
      <point x="186" y="282"/>
      <point x="196" y="282"/>
    </contour>
  </outline>
</glyph>
<glyph name="f" format="1">
  <advance width="170"/>
  <unicode hex="0066"/>
  <outline>
    <contour>
      <point x="166" y="438" type="curve" smooth="yes"/>
      <point x="166" y="413"/>
      <point x="165" y="409"/>
      <point x="155" y="409" type="curve" smooth="yes"/>
      <point x="107" y="409"/>
      <point x="101" y="408"/>
      <point x="101" y="394" type="curve" smooth="yes"/>
      <point x="101" y="269"/>
      <point x="101" y="130"/>
      <point x="101" y="18" type="curve" smooth="yes"/>
      <point x="101" y="0"/>
      <point x="100" y="0"/>
      <point x="73" y="0" type="curve" smooth="yes"/>
      <point x="47" y="0"/>
      <point x="43" y="0"/>
      <point x="43" y="16" type="curve" smooth="yes"/>
      <point x="43" y="128"/>
      <point x="43" y="269"/>
      <point x="43" y="394" type="curve" smooth="yes"/>
      <point x="43" y="407"/>
      <point x="39" y="410"/>
      <point x="15" y="410" type="curve" smooth="yes"/>
      <point x="3" y="410"/>
      <point x="5" y="423"/>
      <point x="5" y="441" type="curve" smooth="yes"/>
      <point x="5" y="460"/>
      <point x="6" y="469"/>
      <point x="14" y="469" type="curve" smooth="yes"/>
      <point x="37" y="469"/>
      <point x="43" y="471"/>
      <point x="43" y="484" type="curve" smooth="yes"/>
      <point x="43" y="516"/>
      <point x="43" y="545"/>
      <point x="43" y="578" type="curve" smooth="yes"/>
      <point x="43" y="643"/>
      <point x="90" y="700"/>
      <point x="155" y="700" type="curve" smooth="yes"/>
      <point x="162" y="700"/>
      <point x="160" y="688"/>
      <point x="160" y="669" type="curve" smooth="yes"/>
      <point x="160" y="647"/>
      <point x="160" y="638"/>
      <point x="155" y="638" type="curve" smooth="yes"/>
      <point x="131" y="638"/>
      <point x="101" y="613"/>
      <point x="101" y="578" type="curve" smooth="yes"/>
      <point x="101" y="547"/>
      <point x="101" y="516"/>
      <point x="101" y="484" type="curve" smooth="yes"/>
      <point x="101" y="469"/>
      <point x="110" y="469"/>
      <point x="153" y="469" type="curve" smooth="yes"/>
      <point x="163" y="469"/>
      <point x="166" y="463"/>
    </contour>
  </outline>
</glyph>
<glyph name="g" format="1">
  <advance width="297"/>
  <unicode hex="0067"/>
  <outline>
    <contour>
      <point x="262" y="-75" type="curve" smooth="yes"/>
      <point x="262" y="-149"/>
      <point x="228" y="-200"/>
      <point x="146" y="-200" type="curve" smooth="yes"/>
      <point x="72" y="-200"/>
      <point x="30" y="-147"/>
      <point x="30" y="-75" type="curve" smooth="yes"/>
      <point x="30" y="-69"/>
      <point x="37" y="-70"/>
      <point x="61" y="-70" type="curve" smooth="yes"/>
      <point x="86" y="-70"/>
      <point x="95" y="-67"/>
      <point x="95" y="-75" type="curve" smooth="yes"/>
      <point x="95" y="-109"/>
      <point x="113" y="-133"/>
      <point x="146" y="-133" type="curve" smooth="yes"/>
      <point x="183" y="-133"/>
      <point x="196" y="-101"/>
      <point x="196" y="-72" type="curve" smooth="yes"/>
      <point x="196" y="-47"/>
      <point x="196" y="-28"/>
      <point x="196" y="-3" type="curve" smooth="yes"/>
      <point x="196" y="16"/>
      <point x="193" y="21"/>
      <point x="187" y="18" type="curve"/>
      <point x="176" y="11"/>
      <point x="175" y="0"/>
      <point x="146" y="0" type="curve" smooth="yes"/>
      <point x="85" y="0"/>
      <point x="30" y="41"/>
      <point x="30" y="122" type="curve" smooth="yes"/>
      <point x="30" y="205"/>
      <point x="30" y="277"/>
      <point x="30" y="359" type="curve" smooth="yes"/>
      <point x="30" y="428"/>
      <point x="71" y="482"/>
      <point x="151" y="482" type="curve" smooth="yes"/>
      <point x="183" y="482"/>
      <point x="188" y="457"/>
      <point x="198" y="454" type="curve" smooth="yes"/>
      <point x="206" y="452"/>
      <point x="207" y="458"/>
      <point x="207" y="473" type="curve" smooth="yes"/>
      <point x="207" y="479"/>
      <point x="209" y="479"/>
      <point x="233" y="479" type="curve" smooth="yes"/>
      <point x="254" y="479"/>
      <point x="262" y="478"/>
      <point x="262" y="471" type="curve" smooth="yes"/>
      <point x="262" y="253"/>
      <point x="262" y="402"/>
      <point x="262" y="358" type="curve" smooth="yes"/>
      <point x="262" y="189"/>
      <point x="262" y="69"/>
    </contour>
    <contour>
      <point x="196" y="128" type="curve" smooth="yes"/>
      <point x="196" y="206"/>
      <point x="196" y="283"/>
      <point x="196" y="360" type="curve" smooth="yes"/>
      <point x="196" y="388"/>
      <point x="175" y="420"/>
      <point x="146" y="420" type="curve" smooth="yes"/>
      <point x="114" y="420"/>
      <point x="95" y="388"/>
      <point x="95" y="360" type="curve" smooth="yes"/>
      <point x="95" y="283"/>
      <point x="95" y="205"/>
      <point x="95" y="128" type="curve" smooth="yes"/>
      <point x="95" y="87"/>
      <point x="116" y="67"/>
      <point x="146" y="67" type="curve" smooth="yes"/>
      <point x="177" y="67"/>
      <point x="196" y="87"/>
    </contour>
  </outline>
</glyph>
<glyph name="h" format="1">
  <advance width="297"/>
  <unicode hex="0068"/>
  <outline>
    <contour>
      <point x="267" y="9" type="curve" smooth="yes"/>
      <point x="267" y="0"/>
      <point x="253" y="0"/>
      <point x="236" y="0" type="curve" smooth="yes"/>
      <point x="214" y="0"/>
      <point x="201" y="0"/>
      <point x="201" y="8" type="curve" smooth="yes"/>
      <point x="201" y="115"/>
      <point x="201" y="245"/>
      <point x="201" y="360" type="curve" smooth="yes"/>
      <point x="201" y="389"/>
      <point x="180" y="420"/>
      <point x="151" y="420" type="curve" smooth="yes"/>
      <point x="121" y="420"/>
      <point x="100" y="389"/>
      <point x="100" y="360" type="curve" smooth="yes"/>
      <point x="100" y="246"/>
      <point x="100" y="111"/>
      <point x="100" y="10" type="curve" smooth="yes"/>
      <point x="100" y="-1"/>
      <point x="85" y="0"/>
      <point x="64" y="0" type="curve" smooth="yes"/>
      <point x="49" y="0"/>
      <point x="35" y="0"/>
      <point x="35" y="10" type="curve" smooth="yes"/>
      <point x="35" y="154"/>
      <point x="35" y="426"/>
      <point x="35" y="692" type="curve" smooth="yes"/>
      <point x="35" y="700"/>
      <point x="47" y="701"/>
      <point x="65" y="701" type="curve" smooth="yes"/>
      <point x="87" y="701"/>
      <point x="100" y="702"/>
      <point x="100" y="693" type="curve" smooth="yes"/>
      <point x="100" y="662"/>
      <point x="100" y="540"/>
      <point x="100" y="487" type="curve" smooth="yes"/>
      <point x="100" y="472"/>
      <point x="107" y="466"/>
      <point x="114" y="469" type="curve" smooth="yes"/>
      <point x="133" y="478"/>
      <point x="141" y="482"/>
      <point x="151" y="482" type="curve" smooth="yes"/>
      <point x="220" y="482"/>
      <point x="267" y="430"/>
      <point x="267" y="357" type="curve" smooth="yes"/>
      <point x="267" y="239"/>
      <point x="267" y="107"/>
    </contour>
  </outline>
</glyph>
<glyph name="i" format="1">
  <advance width="140"/>
  <unicode hex="0069"/>
  <outline>
    <contour>
      <point x="110" y="615" type="curve" smooth="yes"/>
      <point x="112" y="590"/>
      <point x="111" y="571"/>
      <point x="70" y="567" type="curve" smooth="yes"/>
      <point x="45" y="565"/>
      <point x="25" y="591"/>
      <point x="28" y="617" type="curve" smooth="yes"/>
      <point x="30" y="639"/>
      <point x="36" y="660"/>
      <point x="70" y="658" type="curve" smooth="yes"/>
      <point x="93" y="657"/>
      <point x="109" y="638"/>
    </contour>
    <contour>
      <point x="102" y="18" type="curve" smooth="yes"/>
      <point x="102" y="0"/>
      <point x="100" y="0"/>
      <point x="68" y="0" type="curve" smooth="yes"/>
      <point x="40" y="0"/>
      <point x="38" y="0"/>
      <point x="38" y="16" type="curve" smooth="yes"/>
      <point x="38" y="179"/>
      <point x="38" y="310"/>
      <point x="38" y="465" type="curve" smooth="yes"/>
      <point x="38" y="480"/>
      <point x="45" y="481"/>
      <point x="68" y="481" type="curve" smooth="yes"/>
      <point x="94" y="481"/>
      <point x="102" y="482"/>
      <point x="102" y="464" type="curve" smooth="yes"/>
      <point x="102" y="310"/>
      <point x="102" y="180"/>
    </contour>
  </outline>
</glyph>
<glyph name="j" format="1">
  <advance width="134"/>
  <unicode hex="006A"/>
  <outline>
    <contour>
      <point x="107" y="615" type="curve" smooth="yes"/>
      <point x="109" y="590"/>
      <point x="113" y="571"/>
      <point x="68" y="567" type="curve" smooth="yes"/>
      <point x="43" y="564"/>
      <point x="22" y="591"/>
      <point x="25" y="617" type="curve" smooth="yes"/>
      <point x="27" y="639"/>
      <point x="33" y="660"/>
      <point x="68" y="658" type="curve" smooth="yes"/>
      <point x="91" y="657"/>
      <point x="106" y="638"/>
    </contour>
    <contour>
      <point x="99" y="-78" type="curve" smooth="yes"/>
      <point x="99" y="-143"/>
      <point x="49" y="-200"/>
      <point x="-16" y="-200" type="curve" smooth="yes"/>
      <point x="-22" y="-200"/>
      <point x="-22" y="-188"/>
      <point x="-22" y="-168" type="curve" smooth="yes"/>
      <point x="-22" y="-151"/>
      <point x="-21" y="-138"/>
      <point x="-16" y="-138" type="curve" smooth="yes"/>
      <point x="8" y="-138"/>
      <point x="35" y="-107"/>
      <point x="35" y="-78" type="curve" smooth="yes"/>
      <point x="35" y="87"/>
      <point x="35" y="262"/>
      <point x="35" y="464" type="curve" smooth="yes"/>
      <point x="35" y="475"/>
      <point x="38" y="481"/>
      <point x="68" y="481" type="curve" smooth="yes"/>
      <point x="94" y="481"/>
      <point x="99" y="475"/>
      <point x="99" y="466" type="curve" smooth="yes"/>
      <point x="99" y="263"/>
      <point x="99" y="92"/>
    </contour>
  </outline>
</glyph>
<glyph name="k" format="1">
  <advance width="266"/>
  <unicode hex="006B"/>
  <outline>
    <contour>
      <point x="266" y="12" type="curve" smooth="yes"/>
      <point x="268" y="6"/>
      <point x="258" y="0"/>
      <point x="235" y="0" type="curve" smooth="yes"/>
      <point x="203" y="0"/>
      <point x="199" y="1"/>
      <point x="194" y="14" type="curve" smooth="yes"/>
      <point x="167" y="85"/>
      <point x="151" y="128"/>
      <point x="125" y="196" type="curve" smooth="yes"/>
      <point x="120" y="210"/>
      <point x="113" y="218"/>
      <point x="107" y="213" type="curve" smooth="yes"/>
      <point x="101" y="208"/>
      <point x="99" y="203"/>
      <point x="99" y="190" type="curve" smooth="yes"/>
      <point x="99" y="134"/>
      <point x="99" y="76"/>
      <point x="99" y="18" type="curve" smooth="yes"/>
      <point x="99" y="1"/>
      <point x="95" y="1"/>
      <point x="65" y="1" type="curve" smooth="yes"/>
      <point x="39" y="1"/>
      <point x="35" y="2"/>
      <point x="35" y="16" type="curve" smooth="yes"/>
      <point x="35" y="267"/>
      <point x="35" y="445"/>
      <point x="35" y="685" type="curve" smooth="yes"/>
      <point x="35" y="698"/>
      <point x="49" y="699"/>
      <point x="65" y="699" type="curve" smooth="yes"/>
      <point x="84" y="699"/>
      <point x="99" y="699"/>
      <point x="99" y="684" type="curve" smooth="yes"/>
      <point x="99" y="560"/>
      <point x="99" y="449"/>
      <point x="99" y="335" type="curve" smooth="yes"/>
      <point x="99" y="323"/>
      <point x="102" y="315"/>
      <point x="106" y="320" type="curve" smooth="yes"/>
      <point x="110" y="325"/>
      <point x="113" y="333"/>
      <point x="117" y="341" type="curve" smooth="yes"/>
      <point x="140" y="391"/>
      <point x="153" y="424"/>
      <point x="174" y="470" type="curve" smooth="yes"/>
      <point x="179" y="482"/>
      <point x="188" y="480"/>
      <point x="211" y="480" type="curve" smooth="yes"/>
      <point x="235" y="480"/>
      <point x="254" y="480"/>
      <point x="249" y="470" type="curve" smooth="yes"/>
      <point x="219" y="405"/>
      <point x="202" y="371"/>
      <point x="173" y="308" type="curve" smooth="yes"/>
      <point x="169" y="299"/>
      <point x="164" y="289"/>
      <point x="164" y="282" type="curve" smooth="yes"/>
      <point x="164" y="277"/>
      <point x="166" y="264"/>
      <point x="170" y="255" type="curve" smooth="yes"/>
      <point x="209" y="157"/>
      <point x="229" y="105"/>
    </contour>
  </outline>
</glyph>
<glyph name="l" format="1">
  <advance width="134"/>
  <unicode hex="006C"/>
  <outline>
    <contour>
      <point x="99" y="16" type="curve" smooth="yes"/>
      <point x="99" y="1"/>
      <point x="95" y="0"/>
      <point x="65" y="0" type="curve" smooth="yes"/>
      <point x="41" y="0"/>
      <point x="35" y="0"/>
      <point x="35" y="14" type="curve" smooth="yes"/>
      <point x="35" y="265"/>
      <point x="35" y="444"/>
      <point x="35" y="684" type="curve" smooth="yes"/>
      <point x="35" y="697"/>
      <point x="44" y="699"/>
      <point x="65" y="699" type="curve" smooth="yes"/>
      <point x="87" y="699"/>
      <point x="99" y="698"/>
      <point x="99" y="683" type="curve" smooth="yes"/>
      <point x="99" y="444"/>
      <point x="99" y="266"/>
    </contour>
  </outline>
</glyph>
<glyph name="m" format="1">
  <advance width="399"/>
  <unicode hex="006D"/>
  <outline>
    <contour>
      <point x="369" y="10" type="curve" smooth="yes"/>
      <point x="369" y="1"/>
      <point x="365" y="0"/>
      <point x="340" y="0" type="curve" smooth="yes"/>
      <point x="309" y="0"/>
      <point x="303" y="2"/>
      <point x="303" y="10" type="curve" smooth="yes"/>
      <point x="303" y="151"/>
      <point x="303" y="240"/>
      <point x="303" y="353" type="curve" smooth="yes"/>
      <point x="303" y="389"/>
      <point x="303" y="418"/>
      <point x="265" y="418" type="curve" smooth="yes"/>
      <point x="237" y="418"/>
      <point x="235" y="395"/>
      <point x="235" y="358" type="curve" smooth="yes"/>
      <point x="235" y="237"/>
      <point x="235" y="154"/>
      <point x="235" y="10" type="curve" smooth="yes"/>
      <point x="235" y="0"/>
      <point x="222" y="0"/>
      <point x="203" y="0" type="curve" smooth="yes"/>
      <point x="181" y="0"/>
      <point x="169" y="2"/>
      <point x="169" y="10" type="curve" smooth="yes"/>
      <point x="169" y="156"/>
      <point x="169" y="238"/>
      <point x="169" y="361" type="curve" smooth="yes"/>
      <point x="169" y="389"/>
      <point x="166" y="418"/>
      <point x="134" y="418" type="curve" smooth="yes"/>
      <point x="106" y="418"/>
      <point x="100" y="395"/>
      <point x="100" y="358" type="curve" smooth="yes"/>
      <point x="100" y="235"/>
      <point x="100" y="154"/>
      <point x="100" y="10" type="curve" smooth="yes"/>
      <point x="100" y="2"/>
      <point x="96" y="0"/>
      <point x="66" y="0" type="curve" smooth="yes"/>
      <point x="39" y="0"/>
      <point x="35" y="2"/>
      <point x="35" y="10" type="curve" smooth="yes"/>
      <point x="35" y="154"/>
      <point x="35" y="359"/>
      <point x="35" y="472" type="curve" smooth="yes"/>
      <point x="35" y="479"/>
      <point x="39" y="480"/>
      <point x="64" y="480" type="curve" smooth="yes"/>
      <point x="93" y="480"/>
      <point x="96" y="480"/>
      <point x="96" y="470" type="curve" smooth="yes"/>
      <point x="96" y="462"/>
      <point x="97" y="437"/>
      <point x="98" y="440" type="curve" smooth="yes"/>
      <point x="101" y="452"/>
      <point x="122" y="480"/>
      <point x="144" y="480" type="curve" smooth="yes"/>
      <point x="201" y="480"/>
      <point x="201" y="443"/>
      <point x="206" y="443" type="curve" smooth="yes"/>
      <point x="212" y="443"/>
      <point x="219" y="480"/>
      <point x="271" y="480" type="curve" smooth="yes"/>
      <point x="360" y="480"/>
      <point x="369" y="428"/>
      <point x="369" y="353" type="curve" smooth="yes"/>
      <point x="369" y="242"/>
      <point x="369" y="147"/>
    </contour>
  </outline>
</glyph>
<glyph name="n" format="1">
  <advance width="297"/>
  <unicode hex="006E"/>
  <outline>
    <contour>
      <point x="267" y="9" type="curve" smooth="yes"/>
      <point x="267" y="1"/>
      <point x="262" y="0"/>
      <point x="237" y="0" type="curve" smooth="yes"/>
      <point x="209" y="0"/>
      <point x="202" y="1"/>
      <point x="202" y="8" type="curve" smooth="yes"/>
      <point x="202" y="120"/>
      <point x="202" y="229"/>
      <point x="202" y="353" type="curve" smooth="yes"/>
      <point x="202" y="385"/>
      <point x="193" y="418"/>
      <point x="167" y="418" type="curve" smooth="yes"/>
      <point x="130" y="418"/>
      <point x="100" y="396"/>
      <point x="100" y="358" type="curve" smooth="yes"/>
      <point x="100" y="252"/>
      <point x="100" y="111"/>
      <point x="100" y="10" type="curve" smooth="yes"/>
      <point x="100" y="1"/>
      <point x="95" y="0"/>
      <point x="66" y="0" type="curve" smooth="yes"/>
      <point x="40" y="0"/>
      <point x="35" y="1"/>
      <point x="35" y="10" type="curve" smooth="yes"/>
      <point x="35" y="154"/>
      <point x="35" y="359"/>
      <point x="35" y="472" type="curve" smooth="yes"/>
      <point x="35" y="479"/>
      <point x="38" y="480"/>
      <point x="67" y="480" type="curve" smooth="yes"/>
      <point x="94" y="480"/>
      <point x="96" y="479"/>
      <point x="96" y="472" type="curve" smooth="yes"/>
      <point x="96" y="437"/>
      <point x="96" y="425"/>
      <point x="102" y="436" type="curve" smooth="yes"/>
      <point x="116" y="460"/>
      <point x="140" y="480"/>
      <point x="167" y="480" type="curve" smooth="yes"/>
      <point x="233" y="480"/>
      <point x="267" y="441"/>
      <point x="267" y="353" type="curve" smooth="yes"/>
      <point x="267" y="233"/>
      <point x="267" y="122"/>
    </contour>
  </outline>
</glyph>
<glyph name="o" format="1">
  <advance width="292"/>
  <unicode hex="006F"/>
  <outline>
    <contour>
      <point x="262" y="125" type="curve" smooth="yes"/>
      <point x="262" y="36"/>
      <point x="213" y="0"/>
      <point x="146" y="0" type="curve" smooth="yes"/>
      <point x="80" y="0"/>
      <point x="30" y="44"/>
      <point x="30" y="125" type="curve" smooth="yes"/>
      <point x="30" y="208"/>
      <point x="30" y="277"/>
      <point x="30" y="360" type="curve" smooth="yes"/>
      <point x="30" y="435"/>
      <point x="81" y="482"/>
      <point x="146" y="482" type="curve" smooth="yes"/>
      <point x="212" y="482"/>
      <point x="262" y="430"/>
      <point x="262" y="360" type="curve" smooth="yes"/>
      <point x="262" y="277"/>
      <point x="262" y="208"/>
    </contour>
    <contour>
      <point x="196" y="128" type="curve" smooth="yes"/>
      <point x="196" y="206"/>
      <point x="196" y="282"/>
      <point x="196" y="360" type="curve" smooth="yes"/>
      <point x="196" y="388"/>
      <point x="175" y="420"/>
      <point x="146" y="420" type="curve" smooth="yes"/>
      <point x="116" y="420"/>
      <point x="95" y="388"/>
      <point x="95" y="360" type="curve" smooth="yes"/>
      <point x="95" y="283"/>
      <point x="95" y="205"/>
      <point x="95" y="128" type="curve" smooth="yes"/>
      <point x="95" y="86"/>
      <point x="116" y="67"/>
      <point x="146" y="67" type="curve" smooth="yes"/>
      <point x="177" y="67"/>
      <point x="196" y="88"/>
    </contour>
  </outline>
</glyph>
<glyph name="p" format="1">
  <advance width="297"/>
  <unicode hex="0070"/>
  <outline>
    <contour>
      <point x="267" y="122" type="curve" smooth="yes"/>
      <point x="267" y="46"/>
      <point x="226" y="0"/>
      <point x="151" y="0" type="curve" smooth="yes"/>
      <point x="142" y="0"/>
      <point x="133" y="1"/>
      <point x="114" y="10" type="curve"/>
      <point x="107" y="12"/>
      <point x="100" y="7"/>
      <point x="100" y="-8" type="curve" smooth="yes"/>
      <point x="100" y="-61"/>
      <point x="100" y="-103"/>
      <point x="100" y="-192" type="curve" smooth="yes"/>
      <point x="100" y="-201"/>
      <point x="92" y="-200"/>
      <point x="65" y="-200" type="curve" smooth="yes"/>
      <point x="43" y="-200"/>
      <point x="35" y="-200"/>
      <point x="35" y="-191" type="curve" smooth="yes"/>
      <point x="35" y="65"/>
      <point x="35" y="253"/>
      <point x="35" y="471" type="curve" smooth="yes"/>
      <point x="35" y="478"/>
      <point x="38" y="480"/>
      <point x="67" y="480" type="curve" smooth="yes"/>
      <point x="92" y="480"/>
      <point x="90" y="483"/>
      <point x="97" y="473" type="curve" smooth="yes"/>
      <point x="101" y="467"/>
      <point x="95" y="453"/>
      <point x="103" y="449" type="curve"/>
      <point x="107" y="446"/>
      <point x="105" y="482"/>
      <point x="151" y="482" type="curve" smooth="yes"/>
      <point x="224" y="482"/>
      <point x="267" y="422"/>
      <point x="267" y="358" type="curve" smooth="yes"/>
      <point x="267" y="275"/>
      <point x="267" y="205"/>
    </contour>
    <contour>
      <point x="201" y="128" type="curve" smooth="yes"/>
      <point x="201" y="206"/>
      <point x="201" y="283"/>
      <point x="201" y="360" type="curve" smooth="yes"/>
      <point x="201" y="388"/>
      <point x="180" y="420"/>
      <point x="151" y="420" type="curve" smooth="yes"/>
      <point x="121" y="420"/>
      <point x="100" y="388"/>
      <point x="100" y="360" type="curve" smooth="yes"/>
      <point x="100" y="283"/>
      <point x="100" y="205"/>
      <point x="100" y="128" type="curve" smooth="yes"/>
      <point x="100" y="87"/>
      <point x="121" y="67"/>
      <point x="151" y="67" type="curve" smooth="yes"/>
      <point x="182" y="67"/>
      <point x="201" y="88"/>
    </contour>
  </outline>
</glyph>
<glyph name="q" format="1">
  <advance width="297"/>
  <unicode hex="0071"/>
  <outline>
    <contour>
      <point x="262" y="-191" type="curve" smooth="yes"/>
      <point x="262" y="-200"/>
      <point x="252" y="-200"/>
      <point x="233" y="-200" type="curve" smooth="yes"/>
      <point x="209" y="-200"/>
      <point x="197" y="-200"/>
      <point x="197" y="-192" type="curve" smooth="yes"/>
      <point x="197" y="-96"/>
      <point x="197" y="-61"/>
      <point x="197" y="-8" type="curve" smooth="yes"/>
      <point x="197" y="7"/>
      <point x="190" y="12"/>
      <point x="183" y="10" type="curve"/>
      <point x="164" y="1"/>
      <point x="155" y="0"/>
      <point x="146" y="0" type="curve" smooth="yes"/>
      <point x="80" y="0"/>
      <point x="30" y="41"/>
      <point x="30" y="122" type="curve" smooth="yes"/>
      <point x="30" y="206"/>
      <point x="30" y="277"/>
      <point x="30" y="360" type="curve" smooth="yes"/>
      <point x="30" y="435"/>
      <point x="81" y="482"/>
      <point x="146" y="482" type="curve" smooth="yes"/>
      <point x="192" y="482"/>
      <point x="190" y="446"/>
      <point x="194" y="449" type="curve"/>
      <point x="202" y="453"/>
      <point x="200" y="464"/>
      <point x="200" y="470" type="curve" smooth="yes"/>
      <point x="200" y="479"/>
      <point x="205" y="480"/>
      <point x="232" y="480" type="curve" smooth="yes"/>
      <point x="254" y="480"/>
      <point x="262" y="480"/>
      <point x="262" y="471" type="curve" smooth="yes"/>
      <point x="262" y="253"/>
      <point x="262" y="66"/>
    </contour>
    <contour>
      <point x="196" y="128" type="curve" smooth="yes"/>
      <point x="196" y="206"/>
      <point x="196" y="282"/>
      <point x="196" y="360" type="curve" smooth="yes"/>
      <point x="196" y="388"/>
      <point x="175" y="420"/>
      <point x="146" y="420" type="curve" smooth="yes"/>
      <point x="116" y="420"/>
      <point x="95" y="388"/>
      <point x="95" y="360" type="curve" smooth="yes"/>
      <point x="95" y="283"/>
      <point x="95" y="205"/>
      <point x="95" y="128" type="curve" smooth="yes"/>
      <point x="95" y="86"/>
      <point x="116" y="67"/>
      <point x="146" y="67" type="curve" smooth="yes"/>
      <point x="177" y="67"/>
      <point x="196" y="88"/>
    </contour>
  </outline>
</glyph>
<glyph name="r" format="1">
  <advance width="187"/>
  <unicode hex="0072"/>
  <outline>
    <contour>
      <point x="181" y="447" type="curve" smooth="yes"/>
      <point x="181" y="427"/>
      <point x="180" y="415"/>
      <point x="175" y="415" type="curve" smooth="yes"/>
      <point x="147" y="415"/>
      <point x="100" y="390"/>
      <point x="100" y="353" type="curve" smooth="yes"/>
      <point x="100" y="251"/>
      <point x="100" y="152"/>
      <point x="100" y="10" type="curve" smooth="yes"/>
      <point x="100" y="0"/>
      <point x="91" y="0"/>
      <point x="65" y="0" type="curve" smooth="yes"/>
      <point x="43" y="0"/>
      <point x="35" y="1"/>
      <point x="35" y="10" type="curve" smooth="yes"/>
      <point x="35" y="154"/>
      <point x="35" y="359"/>
      <point x="35" y="472" type="curve" smooth="yes"/>
      <point x="35" y="479"/>
      <point x="40" y="479"/>
      <point x="67" y="479" type="curve" smooth="yes"/>
      <point x="90" y="479"/>
      <point x="96" y="480"/>
      <point x="96" y="472" type="curve" smooth="yes"/>
      <point x="96" y="464"/>
      <point x="97" y="452"/>
      <point x="97" y="445" type="curve" smooth="yes"/>
      <point x="97" y="432"/>
      <point x="96" y="426"/>
      <point x="101" y="437" type="curve" smooth="yes"/>
      <point x="114" y="465"/>
      <point x="154" y="482"/>
      <point x="175" y="482" type="curve" smooth="yes"/>
      <point x="182" y="482"/>
      <point x="181" y="471"/>
    </contour>
  </outline>
</glyph>
<glyph name="s" format="1">
  <advance width="262"/>
  <unicode hex="0073"/>
  <outline>
    <contour>
      <point x="242" y="116" type="curve" smooth="yes"/>
      <point x="242" y="48"/>
      <point x="196" y="0"/>
      <point x="131" y="0" type="curve" smooth="yes"/>
      <point x="66" y="0"/>
      <point x="20" y="37"/>
      <point x="20" y="116" type="curve" smooth="yes"/>
      <point x="20" y="123"/>
      <point x="31" y="124"/>
      <point x="51" y="124" type="curve" smooth="yes"/>
      <point x="69" y="124"/>
      <point x="87" y="125"/>
      <point x="87" y="119" type="curve" smooth="yes"/>
      <point x="87" y="94"/>
      <point x="95" y="67"/>
      <point x="131" y="67" type="curve" smooth="yes"/>
      <point x="174" y="67"/>
      <point x="177" y="99"/>
      <point x="177" y="122" type="curve" smooth="yes"/>
      <point x="177" y="171"/>
      <point x="143" y="201"/>
      <point x="103" y="232" type="curve" smooth="yes"/>
      <point x="61" y="265"/>
      <point x="23" y="300"/>
      <point x="23" y="361" type="curve" smooth="yes"/>
      <point x="23" y="413"/>
      <point x="47" y="480"/>
      <point x="130" y="480" type="curve" smooth="yes"/>
      <point x="206" y="480"/>
      <point x="237" y="413"/>
      <point x="237" y="362" type="curve" smooth="yes"/>
      <point x="237" y="356"/>
      <point x="227" y="356"/>
      <point x="202" y="356" type="curve" smooth="yes"/>
      <point x="177" y="356"/>
      <point x="170" y="359"/>
      <point x="170" y="364" type="curve" smooth="yes"/>
      <point x="170" y="397"/>
      <point x="152" y="418"/>
      <point x="130" y="418" type="curve" smooth="yes"/>
      <point x="102" y="418"/>
      <point x="88" y="390"/>
      <point x="88" y="365" type="curve" smooth="yes"/>
      <point x="88" y="330"/>
      <point x="116" y="305"/>
      <point x="152" y="275" type="curve" smooth="yes"/>
      <point x="197" y="239"/>
      <point x="242" y="195"/>
    </contour>
  </outline>
</glyph>
<glyph name="t" format="1">
  <advance width="181"/>
  <unicode hex="0074"/>
  <outline>
    <contour>
      <point x="166" y="31" type="curve" smooth="yes"/>
      <point x="166" y="9"/>
      <point x="167" y="0"/>
      <point x="161" y="0" type="curve" smooth="yes"/>
      <point x="85" y="0"/>
      <point x="45" y="44"/>
      <point x="45" y="102" type="curve" smooth="yes"/>
      <point x="45" y="196"/>
      <point x="45" y="292"/>
      <point x="45" y="393" type="curve" smooth="yes"/>
      <point x="45" y="410"/>
      <point x="41" y="418"/>
      <point x="17" y="418" type="curve" smooth="yes"/>
      <point x="7" y="418"/>
      <point x="5" y="427"/>
      <point x="5" y="441" type="curve" smooth="yes"/>
      <point x="5" y="461"/>
      <point x="7" y="467"/>
      <point x="16" y="467" type="curve" smooth="yes"/>
      <point x="44" y="467"/>
      <point x="45" y="473"/>
      <point x="45" y="489" type="curve" smooth="yes"/>
      <point x="45" y="507"/>
      <point x="45" y="524"/>
      <point x="45" y="540" type="curve" smooth="yes"/>
      <point x="45" y="552"/>
      <point x="51" y="552"/>
      <point x="75" y="552" type="curve" smooth="yes"/>
      <point x="102" y="552"/>
      <point x="110" y="552"/>
      <point x="110" y="538" type="curve" smooth="yes"/>
      <point x="110" y="523"/>
      <point x="110" y="507"/>
      <point x="110" y="489" type="curve" smooth="yes"/>
      <point x="110" y="473"/>
      <point x="114" y="470"/>
      <point x="147" y="470" type="curve" smooth="yes"/>
      <point x="159" y="470"/>
      <point x="162" y="464"/>
      <point x="162" y="444" type="curve" smooth="yes"/>
      <point x="162" y="420"/>
      <point x="161" y="416"/>
      <point x="151" y="416" type="curve" smooth="yes"/>
      <point x="115" y="416"/>
      <point x="110" y="411"/>
      <point x="110" y="393" type="curve" smooth="yes"/>
      <point x="110" y="292"/>
      <point x="110" y="192"/>
      <point x="110" y="102" type="curve" smooth="yes"/>
      <point x="110" y="77"/>
      <point x="131" y="62"/>
      <point x="161" y="62" type="curve" smooth="yes"/>
      <point x="166" y="62"/>
      <point x="166" y="51"/>
    </contour>
  </outline>
</glyph>
<glyph name="u" format="1">
  <advance width="297"/>
  <unicode hex="0075"/>
  <outline>
    <contour>
      <point x="262" y="7" type="curve" smooth="yes"/>
      <point x="262" y="0"/>
      <point x="258" y="0"/>
      <point x="233" y="0" type="curve" smooth="yes"/>
      <point x="211" y="0"/>
      <point x="201" y="1"/>
      <point x="201" y="7" type="curve" smooth="yes"/>
      <point x="201" y="15"/>
      <point x="200" y="27"/>
      <point x="200" y="34" type="curve" smooth="yes"/>
      <point x="200" y="47"/>
      <point x="201" y="54"/>
      <point x="195" y="43" type="curve" smooth="yes"/>
      <point x="181" y="19"/>
      <point x="157" y="-1"/>
      <point x="130" y="-1" type="curve" smooth="yes"/>
      <point x="64" y="-1"/>
      <point x="30" y="37"/>
      <point x="30" y="126" type="curve" smooth="yes"/>
      <point x="30" y="246"/>
      <point x="30" y="373"/>
      <point x="30" y="470" type="curve" smooth="yes"/>
      <point x="30" y="479"/>
      <point x="39" y="480"/>
      <point x="59" y="480" type="curve" smooth="yes"/>
      <point x="87" y="480"/>
      <point x="95" y="478"/>
      <point x="95" y="471" type="curve" smooth="yes"/>
      <point x="95" y="322"/>
      <point x="95" y="250"/>
      <point x="95" y="126" type="curve" smooth="yes"/>
      <point x="95" y="100"/>
      <point x="101" y="61"/>
      <point x="130" y="61" type="curve" smooth="yes"/>
      <point x="172" y="61"/>
      <point x="197" y="87"/>
      <point x="197" y="121" type="curve" smooth="yes"/>
      <point x="197" y="227"/>
      <point x="197" y="368"/>
      <point x="197" y="469" type="curve" smooth="yes"/>
      <point x="197" y="478"/>
      <point x="202" y="479"/>
      <point x="229" y="479" type="curve" smooth="yes"/>
      <point x="256" y="479"/>
      <point x="262" y="476"/>
      <point x="262" y="469" type="curve" smooth="yes"/>
      <point x="262" y="325"/>
      <point x="262" y="120"/>
    </contour>
  </outline>
</glyph>
<glyph name="v" format="1">
  <advance width="253"/>
  <unicode hex="0076"/>
  <outline>
    <contour>
      <point x="243" y="463" type="curve" smooth="yes"/>
      <point x="219" y="303"/>
      <point x="199" y="173"/>
      <point x="175" y="16" type="curve" smooth="yes"/>
      <point x="173" y="2"/>
      <point x="160" y="0"/>
      <point x="128" y="0" type="curve" smooth="yes"/>
      <point x="98" y="0"/>
      <point x="80" y="-1"/>
      <point x="77" y="19" type="curve" smooth="yes"/>
      <point x="56" y="163"/>
      <point x="34" y="307"/>
      <point x="10" y="467" type="curve" smooth="yes"/>
      <point x="8" y="478"/>
      <point x="17" y="479"/>
      <point x="40" y="479" type="curve" smooth="yes"/>
      <point x="68" y="479"/>
      <point x="76" y="478"/>
      <point x="78" y="465" type="curve" smooth="yes"/>
      <point x="93" y="343"/>
      <point x="106" y="235"/>
      <point x="120" y="121" type="curve"/>
      <point x="120" y="118"/>
      <point x="121" y="111"/>
      <point x="126" y="111" type="curve" smooth="yes"/>
      <point x="132" y="111"/>
      <point x="132" y="118"/>
      <point x="133" y="122" type="curve"/>
      <point x="149" y="243"/>
      <point x="162" y="345"/>
      <point x="177" y="466" type="curve" smooth="yes"/>
      <point x="178" y="477"/>
      <point x="185" y="480"/>
      <point x="209" y="480" type="curve" smooth="yes"/>
      <point x="238" y="480"/>
      <point x="245" y="477"/>
    </contour>
  </outline>
</glyph>
<glyph name="w" format="1">
  <advance width="377"/>
  <unicode hex="0077"/>
  <outline>
    <contour>
      <point x="367" y="466" type="curve" smooth="yes"/>
      <point x="339" y="284"/>
      <point x="320" y="154"/>
      <point x="297" y="10" type="curve" smooth="yes"/>
      <point x="295" y="-5"/>
      <point x="279" y="-1"/>
      <point x="258" y="0" type="curve" smooth="yes"/>
      <point x="245" y="1"/>
      <point x="226" y="0"/>
      <point x="224" y="13" type="curve" smooth="yes"/>
      <point x="213" y="85"/>
      <point x="205" y="150"/>
      <point x="193" y="233" type="curve"/>
      <point x="192" y="237"/>
      <point x="192" y="244"/>
      <point x="186" y="244" type="curve" smooth="yes"/>
      <point x="181" y="244"/>
      <point x="180" y="237"/>
      <point x="180" y="234" type="curve"/>
      <point x="168" y="147"/>
      <point x="160" y="91"/>
      <point x="149" y="9" type="curve" smooth="yes"/>
      <point x="147" y="-4"/>
      <point x="135" y="-1"/>
      <point x="114" y="0" type="curve" smooth="yes"/>
      <point x="101" y="1"/>
      <point x="80" y="0"/>
      <point x="78" y="13" type="curve" smooth="yes"/>
      <point x="57" y="152"/>
      <point x="32" y="316"/>
      <point x="10" y="461" type="curve" smooth="yes"/>
      <point x="8" y="471"/>
      <point x="3" y="478"/>
      <point x="34" y="478" type="curve" smooth="yes"/>
      <point x="70" y="478"/>
      <point x="67" y="475"/>
      <point x="69" y="462" type="curve" smooth="yes"/>
      <point x="85" y="333"/>
      <point x="92" y="272"/>
      <point x="106" y="161" type="curve"/>
      <point x="106" y="158"/>
      <point x="107" y="151"/>
      <point x="112" y="151" type="curve" smooth="yes"/>
      <point x="118" y="151"/>
      <point x="118" y="158"/>
      <point x="119" y="162" type="curve"/>
      <point x="136" y="287"/>
      <point x="145" y="363"/>
      <point x="159" y="467" type="curve" smooth="yes"/>
      <point x="160" y="476"/>
      <point x="159" y="479"/>
      <point x="185" y="479" type="curve" smooth="yes"/>
      <point x="211" y="479"/>
      <point x="213" y="478"/>
      <point x="214" y="467" type="curve" smooth="yes"/>
      <point x="227" y="363"/>
      <point x="239" y="272"/>
      <point x="253" y="161" type="curve"/>
      <point x="253" y="158"/>
      <point x="254" y="151"/>
      <point x="259" y="151" type="curve" smooth="yes"/>
      <point x="265" y="151"/>
      <point x="265" y="158"/>
      <point x="266" y="162" type="curve"/>
      <point x="282" y="282"/>
      <point x="294" y="360"/>
      <point x="308" y="469" type="curve" smooth="yes"/>
      <point x="309" y="478"/>
      <point x="310" y="480"/>
      <point x="335" y="480" type="curve" smooth="yes"/>
      <point x="367" y="480"/>
      <point x="369" y="478"/>
    </contour>
  </outline>
</glyph>
<glyph name="x" format="1">
  <advance width="253"/>
  <unicode hex="0078"/>
  <outline>
    <contour>
      <point x="243" y="12" type="curve" smooth="yes"/>
      <point x="246" y="3"/>
      <point x="242" y="0"/>
      <point x="209" y="0" type="curve" smooth="yes"/>
      <point x="179" y="0"/>
      <point x="179" y="1"/>
      <point x="176" y="11" type="curve" smooth="yes"/>
      <point x="164" y="54"/>
      <point x="145" y="115"/>
      <point x="131" y="156" type="curve" smooth="yes"/>
      <point x="130" y="159"/>
      <point x="129" y="165"/>
      <point x="125" y="165" type="curve" smooth="yes"/>
      <point x="120" y="165"/>
      <point x="119" y="159"/>
      <point x="118" y="155" type="curve" smooth="yes"/>
      <point x="104" y="112"/>
      <point x="88" y="58"/>
      <point x="73" y="13" type="curve" smooth="yes"/>
      <point x="69" y="0"/>
      <point x="67" y="0"/>
      <point x="39" y="0" type="curve" smooth="yes"/>
      <point x="13" y="0"/>
      <point x="6" y="1"/>
      <point x="10" y="13" type="curve" smooth="yes"/>
      <point x="33" y="83"/>
      <point x="54" y="149"/>
      <point x="77" y="220" type="curve" smooth="yes"/>
      <point x="79" y="228"/>
      <point x="80" y="234"/>
      <point x="80" y="243" type="curve" smooth="yes"/>
      <point x="80" y="254"/>
      <point x="79" y="260"/>
      <point x="76" y="270" type="curve" smooth="yes"/>
      <point x="56" y="336"/>
      <point x="36" y="399"/>
      <point x="16" y="467" type="curve" smooth="yes"/>
      <point x="14" y="475"/>
      <point x="19" y="479"/>
      <point x="45" y="479" type="curve" smooth="yes"/>
      <point x="77" y="479"/>
      <point x="79" y="478"/>
      <point x="82" y="466" type="curve" smooth="yes"/>
      <point x="93" y="426"/>
      <point x="109" y="367"/>
      <point x="119" y="329" type="curve" smooth="yes"/>
      <point x="120" y="326"/>
      <point x="121" y="320"/>
      <point x="125" y="320" type="curve" smooth="yes"/>
      <point x="129" y="320"/>
      <point x="129" y="327"/>
      <point x="130" y="330" type="curve" smooth="yes"/>
      <point x="141" y="371"/>
      <point x="157" y="428"/>
      <point x="167" y="471" type="curve" smooth="yes"/>
      <point x="169" y="480"/>
      <point x="172" y="479"/>
      <point x="200" y="479" type="curve" smooth="yes"/>
      <point x="232" y="479"/>
      <point x="235" y="474"/>
      <point x="233" y="467" type="curve" smooth="yes"/>
      <point x="212" y="397"/>
      <point x="194" y="336"/>
      <point x="174" y="271" type="curve" smooth="yes"/>
      <point x="171" y="261"/>
      <point x="170" y="255"/>
      <point x="170" y="244" type="curve" smooth="yes"/>
      <point x="170" y="235"/>
      <point x="170" y="230"/>
      <point x="173" y="222" type="curve" smooth="yes"/>
      <point x="196" y="152"/>
      <point x="219" y="83"/>
    </contour>
  </outline>
</glyph>
<glyph name="y" format="1">
  <advance width="250"/>
  <unicode hex="0079"/>
  <outline>
    <contour>
      <point x="240" y="466" type="curve" smooth="yes"/>
      <point x="190" y="226"/>
      <point x="148" y="27"/>
      <point x="103" y="-187" type="curve" smooth="yes"/>
      <point x="101" y="-199"/>
      <point x="96" y="-200"/>
      <point x="70" y="-200" type="curve" smooth="yes"/>
      <point x="49" y="-200"/>
      <point x="42" y="-199"/>
      <point x="45" y="-184" type="curve" smooth="yes"/>
      <point x="60" y="-113"/>
      <point x="70" y="-66"/>
      <point x="84" y="3" type="curve" smooth="yes"/>
      <point x="87" y="16"/>
      <point x="86" y="19"/>
      <point x="86" y="39" type="curve" smooth="yes"/>
      <point x="86" y="60"/>
      <point x="85" y="60"/>
      <point x="83" y="72" type="curve" smooth="yes"/>
      <point x="54" y="219"/>
      <point x="35" y="320"/>
      <point x="5" y="469" type="curve" smooth="yes"/>
      <point x="3" y="479"/>
      <point x="11" y="480"/>
      <point x="38" y="480" type="curve" smooth="yes"/>
      <point x="65" y="480"/>
      <point x="71" y="479"/>
      <point x="73" y="466" type="curve" smooth="yes"/>
      <point x="88" y="367"/>
      <point x="102" y="276"/>
      <point x="116" y="183" type="curve"/>
      <point x="116" y="180"/>
      <point x="117" y="173"/>
      <point x="122" y="173" type="curve" smooth="yes"/>
      <point x="128" y="173"/>
      <point x="128" y="180"/>
      <point x="129" y="184" type="curve" smooth="yes"/>
      <point x="145" y="283"/>
      <point x="159" y="368"/>
      <point x="175" y="468" type="curve" smooth="yes"/>
      <point x="177" y="479"/>
      <point x="181" y="480"/>
      <point x="211" y="480" type="curve" smooth="yes"/>
      <point x="234" y="480"/>
      <point x="242" y="477"/>
    </contour>
  </outline>
</glyph>
<glyph name="z" format="1">
  <advance width="245"/>
  <unicode hex="007A"/>
  <outline>
    <contour>
      <point x="230" y="28" type="curve" smooth="yes"/>
      <point x="230" y="4"/>
      <point x="232" y="0"/>
      <point x="215" y="0" type="curve" smooth="yes"/>
      <point x="170" y="0"/>
      <point x="78" y="0"/>
      <point x="33" y="0" type="curve" smooth="yes"/>
      <point x="16" y="0"/>
      <point x="15" y="5"/>
      <point x="15" y="39" type="curve" smooth="yes"/>
      <point x="15" y="69"/>
      <point x="16" y="79"/>
      <point x="17" y="82" type="curve"/>
      <point x="71" y="205"/>
      <point x="90" y="248"/>
      <point x="151" y="384" type="curve" smooth="yes"/>
      <point x="156" y="396"/>
      <point x="158" y="414"/>
      <point x="149" y="421" type="curve"/>
      <point x="144" y="423"/>
      <point x="130" y="423"/>
      <point x="123" y="423" type="curve" smooth="yes"/>
      <point x="98" y="423"/>
      <point x="63" y="423"/>
      <point x="37" y="423" type="curve" smooth="yes"/>
      <point x="22" y="423"/>
      <point x="21" y="429"/>
      <point x="21" y="450" type="curve" smooth="yes"/>
      <point x="21" y="475"/>
      <point x="22" y="480"/>
      <point x="34" y="480" type="curve" smooth="yes"/>
      <point x="87" y="480"/>
      <point x="156" y="480"/>
      <point x="209" y="480" type="curve" smooth="yes"/>
      <point x="230" y="480"/>
      <point x="230" y="477"/>
      <point x="230" y="440" type="curve" smooth="yes"/>
      <point x="230" y="420"/>
      <point x="227" y="409"/>
      <point x="225" y="403" type="curve" smooth="yes"/>
      <point x="166" y="265"/>
      <point x="130" y="184"/>
      <point x="88" y="87" type="curve" smooth="yes"/>
      <point x="84" y="79"/>
      <point x="83" y="62"/>
      <point x="88" y="59" type="curve" smooth="yes"/>
      <point x="93" y="56"/>
      <point x="112" y="56"/>
      <point x="123" y="56" type="curve" smooth="yes"/>
      <point x="152" y="56"/>
      <point x="186" y="56"/>
      <point x="215" y="56" type="curve" smooth="yes"/>
      <point x="227" y="56"/>
      <point x="230" y="51"/>
    </contour>
  </outline>
</glyph>
<glyph name="braceleft" format="1">
  <advance width="192"/>
  <unicode hex="007B"/>
  <outline>
    <contour>
      <point x="194" y="775" type="curve" smooth="yes"/>
      <point x="194" y="763"/>
      <point x="194" y="743"/>
      <point x="187" y="743" type="curve" smooth="yes"/>
      <point x="157" y="743"/>
      <point x="136" y="712"/>
      <point x="136" y="683" type="curve" smooth="yes"/>
      <point x="136" y="613"/>
      <point x="136" y="518"/>
      <point x="136" y="440" type="curve" smooth="yes"/>
      <point x="136" y="368"/>
      <point x="101" y="356"/>
      <point x="101" y="349" type="curve" smooth="yes"/>
      <point x="101" y="342"/>
      <point x="136" y="329"/>
      <point x="136" y="258" type="curve" smooth="yes"/>
      <point x="136" y="183"/>
      <point x="136" y="91"/>
      <point x="136" y="23" type="curve" smooth="yes"/>
      <point x="136" y="-18"/>
      <point x="157" y="-38"/>
      <point x="187" y="-38" type="curve" smooth="yes"/>
      <point x="193" y="-38"/>
      <point x="192" y="-55"/>
      <point x="192" y="-66" type="curve" smooth="yes"/>
      <point x="192" y="-83"/>
      <point x="193" y="-105"/>
      <point x="187" y="-105" type="curve" smooth="yes"/>
      <point x="121" y="-105"/>
      <point x="71" y="-60"/>
      <point x="71" y="20" type="curve" smooth="yes"/>
      <point x="71" y="92"/>
      <point x="71" y="189"/>
      <point x="71" y="258" type="curve" smooth="yes"/>
      <point x="71" y="287"/>
      <point x="44" y="318"/>
      <point x="20" y="318" type="curve" smooth="yes"/>
      <point x="15" y="318"/>
      <point x="15" y="324"/>
      <point x="15" y="348" type="curve" smooth="yes"/>
      <point x="15" y="371"/>
      <point x="15" y="380"/>
      <point x="20" y="380" type="curve" smooth="yes"/>
      <point x="46" y="380"/>
      <point x="71" y="411"/>
      <point x="71" y="440" type="curve" smooth="yes"/>
      <point x="71" y="510"/>
      <point x="71" y="610"/>
      <point x="71" y="683" type="curve" smooth="yes"/>
      <point x="71" y="758"/>
      <point x="122" y="805"/>
      <point x="187" y="805" type="curve" smooth="yes"/>
      <point x="195" y="805"/>
      <point x="194" y="787"/>
    </contour>
  </outline>
</glyph>
<glyph name="bar" format="1">
  <advance width="144"/>
  <unicode hex="007C"/>
  <outline>
    <contour>
      <point x="104" y="-55" type="curve" smooth="yes"/>
      <point x="104" y="-70"/>
      <point x="101" y="-70"/>
      <point x="70" y="-70" type="curve" smooth="yes"/>
      <point x="46" y="-70"/>
      <point x="40" y="-71"/>
      <point x="40" y="-57" type="curve" smooth="yes"/>
      <point x="40" y="249"/>
      <point x="40" y="460"/>
      <point x="40" y="755" type="curve" smooth="yes"/>
      <point x="40" y="768"/>
      <point x="43" y="770"/>
      <point x="70" y="770" type="curve" smooth="yes"/>
      <point x="101" y="770"/>
      <point x="104" y="769"/>
      <point x="104" y="754" type="curve" smooth="yes"/>
      <point x="104" y="461"/>
      <point x="104" y="250"/>
    </contour>
  </outline>
</glyph>
<glyph name="braceright" format="1">
  <advance width="192"/>
  <unicode hex="007D"/>
  <outline>
    <contour>
      <point x="179" y="349" type="curve" smooth="yes"/>
      <point x="179" y="335"/>
      <point x="178" y="318"/>
      <point x="173" y="318" type="curve" smooth="yes"/>
      <point x="149" y="318"/>
      <point x="122" y="287"/>
      <point x="122" y="258" type="curve" smooth="yes"/>
      <point x="122" y="189"/>
      <point x="122" y="92"/>
      <point x="122" y="20" type="curve" smooth="yes"/>
      <point x="122" y="-60"/>
      <point x="72" y="-105"/>
      <point x="6" y="-105" type="curve" smooth="yes"/>
      <point x="0" y="-105"/>
      <point x="0" y="-86"/>
      <point x="0" y="-68" type="curve" smooth="yes"/>
      <point x="0" y="-57"/>
      <point x="-1" y="-38"/>
      <point x="6" y="-38" type="curve" smooth="yes"/>
      <point x="36" y="-38"/>
      <point x="57" y="-17"/>
      <point x="57" y="23" type="curve" smooth="yes"/>
      <point x="57" y="91"/>
      <point x="57" y="183"/>
      <point x="57" y="258" type="curve" smooth="yes"/>
      <point x="57" y="329"/>
      <point x="92" y="342"/>
      <point x="92" y="349" type="curve" smooth="yes"/>
      <point x="92" y="356"/>
      <point x="57" y="367"/>
      <point x="57" y="440" type="curve" smooth="yes"/>
      <point x="57" y="518"/>
      <point x="57" y="613"/>
      <point x="57" y="683" type="curve" smooth="yes"/>
      <point x="57" y="712"/>
      <point x="36" y="743"/>
      <point x="6" y="743" type="curve" smooth="yes"/>
      <point x="-1" y="743"/>
      <point x="-1" y="764"/>
      <point x="-1" y="776" type="curve" smooth="yes"/>
      <point x="-1" y="788"/>
      <point x="-3" y="805"/>
      <point x="6" y="805" type="curve" smooth="yes"/>
      <point x="71" y="805"/>
      <point x="122" y="758"/>
      <point x="122" y="683" type="curve" smooth="yes"/>
      <point x="122" y="610"/>
      <point x="122" y="510"/>
      <point x="122" y="440" type="curve" smooth="yes"/>
      <point x="122" y="411"/>
      <point x="147" y="380"/>
      <point x="173" y="380" type="curve" smooth="yes"/>
      <point x="180" y="380"/>
      <point x="179" y="365"/>
    </contour>
  </outline>
</glyph>
<glyph name="asciitilde" format="1">
  <advance width="298"/>
  <unicode hex="007E"/>
  <outline>
    <contour>
      <point x="284" y="325" type="curve" smooth="yes"/>
      <point x="286" y="321"/>
      <point x="270" y="304"/>
      <point x="248" y="282" type="curve" smooth="yes"/>
      <point x="231" y="265"/>
      <point x="204" y="255"/>
      <point x="190" y="255" type="curve" smooth="yes"/>
      <point x="172" y="255"/>
      <point x="161" y="261"/>
      <point x="143" y="279" type="curve" smooth="yes"/>
      <point x="125" y="297"/>
      <point x="110" y="309"/>
      <point x="98" y="309" type="curve" smooth="yes"/>
      <point x="89" y="309"/>
      <point x="78" y="301"/>
      <point x="66" y="287" type="curve" smooth="yes"/>
      <point x="46" y="265"/>
      <point x="36" y="258"/>
      <point x="33" y="262" type="curve" smooth="yes"/>
      <point x="25" y="271"/>
      <point x="21" y="285"/>
      <point x="14" y="295" type="curve" smooth="yes"/>
      <point x="9" y="303"/>
      <point x="11" y="312"/>
      <point x="48" y="345" type="curve" smooth="yes"/>
      <point x="67" y="362"/>
      <point x="89" y="371"/>
      <point x="107" y="371" type="curve" smooth="yes"/>
      <point x="132" y="371"/>
      <point x="139" y="357"/>
      <point x="160" y="339" type="curve" smooth="yes"/>
      <point x="180" y="322"/>
      <point x="189" y="317"/>
      <point x="197" y="317" type="curve" smooth="yes"/>
      <point x="206" y="317"/>
      <point x="224" y="332"/>
      <point x="235" y="345" type="curve" smooth="yes"/>
      <point x="246" y="358"/>
      <point x="257" y="373"/>
      <point x="262" y="365" type="curve" smooth="yes"/>
      <point x="269" y="354"/>
      <point x="277" y="338"/>
    </contour>
  </outline>
</glyph>
<glyph name="cent" format="1">
  <advance width="278"/>
  <unicode hex="00A2"/>
  <outline>
    <contour>
      <point x="258" y="125" type="curve" smooth="yes"/>
      <point x="258" y="65"/>
      <point x="236" y="19"/>
      <point x="178" y="3" type="curve" smooth="yes"/>
      <point x="172" y="1"/>
      <point x="173" y="-2"/>
      <point x="173" y="-7" type="curve" smooth="yes"/>
      <point x="173" y="-64"/>
      <point x="173" y="8"/>
      <point x="173" y="-56" type="curve" smooth="yes"/>
      <point x="173" y="-71"/>
      <point x="170" y="-71"/>
      <point x="139" y="-71" type="curve" smooth="yes"/>
      <point x="115" y="-71"/>
      <point x="109" y="-72"/>
      <point x="109" y="-58" type="curve" smooth="yes"/>
      <point x="109" y="7"/>
      <point x="109" y="-76"/>
      <point x="109" y="-5" type="curve" smooth="yes"/>
      <point x="109" y="-2"/>
      <point x="110" y="3"/>
      <point x="104" y="5" type="curve" smooth="yes"/>
      <point x="50" y="23"/>
      <point x="26" y="70"/>
      <point x="26" y="125" type="curve" smooth="yes"/>
      <point x="26" y="206"/>
      <point x="26" y="276"/>
      <point x="26" y="357" type="curve" smooth="yes"/>
      <point x="26" y="420"/>
      <point x="54" y="459"/>
      <point x="106" y="477" type="curve"/>
      <point x="110" y="478"/>
      <point x="109" y="481"/>
      <point x="109" y="488" type="curve" smooth="yes"/>
      <point x="109" y="531"/>
      <point x="109" y="491"/>
      <point x="109" y="538" type="curve" smooth="yes"/>
      <point x="109" y="551"/>
      <point x="112" y="553"/>
      <point x="139" y="553" type="curve" smooth="yes"/>
      <point x="170" y="553"/>
      <point x="173" y="552"/>
      <point x="173" y="537" type="curve" smooth="yes"/>
      <point x="173" y="491"/>
      <point x="173" y="532"/>
      <point x="173" y="489" type="curve" smooth="yes"/>
      <point x="173" y="483"/>
      <point x="172" y="479"/>
      <point x="176" y="478" type="curve" smooth="yes"/>
      <point x="224" y="466"/>
      <point x="258" y="431"/>
      <point x="258" y="356" type="curve" smooth="yes"/>
      <point x="258" y="349"/>
      <point x="254" y="347"/>
      <point x="227" y="347" type="curve" smooth="yes"/>
      <point x="202" y="347"/>
      <point x="192" y="348"/>
      <point x="192" y="353" type="curve" smooth="yes"/>
      <point x="192" y="397"/>
      <point x="170" y="414"/>
      <point x="142" y="414" type="curve" smooth="yes"/>
      <point x="115" y="414"/>
      <point x="91" y="397"/>
      <point x="91" y="353" type="curve" smooth="yes"/>
      <point x="91" y="277"/>
      <point x="91" y="204"/>
      <point x="91" y="128" type="curve" smooth="yes"/>
      <point x="91" y="98"/>
      <point x="103" y="67"/>
      <point x="142" y="67" type="curve" smooth="yes"/>
      <point x="183" y="67"/>
      <point x="192" y="102"/>
      <point x="192" y="128" type="curve" smooth="yes"/>
      <point x="192" y="132"/>
      <point x="199" y="132"/>
      <point x="225" y="132" type="curve" smooth="yes"/>
      <point x="252" y="132"/>
      <point x="258" y="131"/>
    </contour>
  </outline>
</glyph>
